<?xml version="1.0" encoding="utf-8"?>
<!-- Generator: Adobe Illustrator 15.1.0, SVG Export Plug-In . SVG Version: 6.00 Build 0)  -->
<!DOCTYPE svg PUBLIC "-//W3C//DTD SVG 1.1//EN" "http://www.w3.org/Graphics/SVG/1.1/DTD/svg11.dtd">
<svg version="1.1" id="Layer_1" xmlns="http://www.w3.org/2000/svg" xmlns:xlink="http://www.w3.org/1999/xlink" x="0px" y="0px"
	 width="490.22px" height="230.332px" viewBox="0 0 490.22 230.332" enable-background="new 0 0 490.22 230.332"
	 xml:space="preserve">
<g>
	<polyline fill="#BFDCE8" points="490.299,230.658 0.299,230.658 0.299,0.658 490.299,0.658 490.299,230.658 	"/>
	<path fill="#FFFFFF" d="M416.017,0.324H142.421c-0.053,0.11-0.105,0.223-0.157,0.334h274.062
		C416.224,0.547,416.12,0.436,416.017,0.324"/>
	<path fill="#E9F3F7" d="M416.326,0.658H142.264c-13.629,29.292,11.741,76.003,11.911,113.346
		c0.171,37.646-34.631,86.522-24.002,116.654h283.354c28.659-29.33,46.479-71.024,46.27-117.22
		C459.597,69.331,443.002,29.474,416.326,0.658"/>
	<path fill="#41135E" d="M350.676,159.971c0,0-1.658-5.33-3.754-9.713c-0.65-1.365-1.705-1.495-2.992-0.91
		c-1.242,0.565-2.279,1.694-1.539,2.812c2.602,3.925,3.725,5.618,5.438,10.079c0.348,0.905,1.482,1.239,2.357,0.819
		c2.896-1.392,8.75-5.068,9.451-12.28c0.039-0.379-0.293-0.694-0.67-0.644c-1.607,0.214-5.559,0.958-8.367,3.316
		c0.498,2.805,0.432,5.583,0.387,6.098C350.951,159.942,350.746,159.973,350.676,159.971z"/>
	<path fill="#41135E" d="M361.631,163.225c-6.213-2.277-7.428,2.058-11.367,2.187c-3.939-0.129-5.154-4.464-11.369-2.187
		c-3.809,1.396-5.984,6.966-5.984,13.636c0,2.448,0.381,4.998,1.166,7.454c2.729,8.551,5.662,9.606,8.988,9.916
		c3.494,0.325,4.932-2.034,7.199-2.325c2.268,0.291,3.705,2.683,7.197,2.356c3.326-0.311,6.262-1.396,8.99-9.947
		C369.311,175.355,366.879,165.147,361.631,163.225z"/>
	<path fill="#41135E" d="M370.074,147.789c-4.25-9.399-15.477-14.639-28.193-13.253c2.621,1.701,3.893,3.252,4.359,3.827
		c0.529,0.65,0.666,1.072,0.434,1.375c-0.973-0.387-4.646-3.271-11.064-3.989c-2.807,0.782-4.643,1.556-6.689,2.53
		c5.201,2.353,7.391,5.021,8.039,5.818c0.529,0.652,0.666,1.073,0.436,1.376c-1.107-0.439-5.707-4.104-13.863-4.147
		c-1.844,1.24-3.561,2.601-5.127,4.058c5.996,2.453,8.436,5.438,9.129,6.29c0.527,0.651,0.666,1.072,0.434,1.375
		c-1.064-0.422-5.352-3.827-12.924-4.13c-6.963,8.293-9.625,18.952-5.986,26.998c3.238,7.165,10.865,4.541,21.279-0.361
		c0.238-6.983,3.1-13.049,7.682-14.728c2.055-0.753,4.098-1.072,6.217-0.573c-1.043-2.257-2.072-3.818-3.971-6.687
		c-1.461-2.204-0.52-5.119,2.609-6.543c2.822-1.284,5.217-0.244,6.352,2.132c0.25,0.52,0.49,1.049,0.725,1.582
		c3.045-2.113,6.67-2.869,8.682-3.136c2.014-0.266,3.742,1.418,3.547,3.422c-0.369,3.796-1.947,6.748-3.852,8.988l0.016-0.002
		c1.404,0,3.047,0.32,4.668,1.05C369.537,157.782,372.959,154.168,370.074,147.789z"/>
	<path fill="#41135E" d="M261.617,72.494c-0.127-1.311-0.047-2.515,0.246-3.594c-2.461,1.101-4.734,2.373-5.969,3.717
		c-3.633,3.948-5.545,18.82-5.545,18.82h9.939l-0.131-0.197C259.918,90.639,254.59,77.009,261.617,72.494"/>
	<path fill="#41135E" d="M308.006,72.617c-1.334-1.449-3.875-2.82-6.561-3.978c0.674,2.067,0.537,4.511-0.383,7.282
		c1.51,1.051,2.502,2.793,2.502,4.771c0,3.212-2.602,5.814-5.814,5.814c-3.211,0-5.814-2.603-5.814-5.814
		c0-3.211,2.604-5.816,5.814-5.816c0.111,0,0.215,0.027,0.322,0.034c0.812-2.446,0.854-4.455,0.096-5.966
		c-1.012-2.017-3.268-2.797-4.52-3.084l0.004-0.023l-0.041-0.015c-0.195-1.408-0.455-3.041-0.688-4.401
		c2.26-2.739,3.648-5.569,4.105-8.466c1.68-1.541,2.615-4.002,2.615-7.022c0-0.941,0-3.416-1.553-5.103
		c0.385-4.219,0.65-10.749-0.994-13.382c-2.023-3.243-4.486-4.823-9.18-3.764c-3.078-1.464-5.176-2.38-10.57-1.063
		c-3.746,0.915-7.85,2.411-10.012,4.904c-2.088,2.411-1.945,9.133-1.607,13.407c-1.467,1.683-1.473,4.078-1.473,5
		c0,3.016,0.934,5.472,2.605,7.015c0.482,3.176,2.039,6.212,4.691,9.179c-0.135,1.021-0.291,2.213-0.445,3.453
		c-0.691,0.203-1.67,0.499-2.793,0.868c-2.443,0.861-3.617,2.446-3.611,4.9c1.264-0.163,2.527,0.031,3.73,0.59
		c5.762,2.66,8.564,12.487,8.68,12.905c0.1,0.351,0.045,0.695-0.082,1.01l-0.029,0.082c-0.041,0.095-0.1,0.175-0.16,0.257
		c-0.066,0.093-0.143,0.184-0.236,0.275l-0.045,0.044c-0.832,0.809-2.504,1.628-3.721,2.009c-1.438,0.45-1.867-0.226-2.209-1.222
		c-0.342-0.988-0.197-1.637,1.068-2.417c0.48-0.295,1.127-0.643,1.809-0.891c-1.102-2.981-3.41-7.803-6.398-9.184
		c-1.078-0.499-2.111-0.484-3.25,0.045c-4.398,2.035-2.408,10.135-1.314,13.615c0.637-0.281,1.309-0.475,1.836-0.595
		c1.453-0.324,2.008,0.04,2.455,0.984c0.449,0.951,0.615,1.737-0.729,2.418c-0.105,0.055-0.232,0.108-0.35,0.162h16.193h31.6
		C313.551,91.438,311.639,76.565,308.006,72.617 M281.971,79.227c-2.906-2.212-7.871-6.99-7.324-11.404
		c0.299-2.418,0.051-0.695,1.041-6.873c-2.877-2.78-5.188-6.152-5.188-10.189c-2.045-0.636-2.582-3.218-2.582-4.826
		s0.408-2.479,0.979-2.749c0.496-0.233,0.979-0.06,1.281,0.113c0.18,0.825,0.314,1.438,0.365,1.654
		c0.262,1.077,1.295,0.978,1.295,0.978v-8.526c2.621-0.189,7.828-0.951,13.588-3.927l6.637,4.457v7.996c0,0,1.033,0.1,1.293-0.978
		c0.053-0.217,0.188-0.829,0.367-1.654c0.305-0.173,0.783-0.347,1.281-0.113c0.57,0.271,0.977,1.141,0.977,2.749
		s-0.535,4.19-2.58,4.826c0,4.68-3.203,8.21-6.75,11.231c-0.988,0.84-2.844,1.397-4.699,1.397c-1.346-0.002-2.689-0.364-3.701-0.804
		c0.775,1.176,2.092,2.622,4.531,3.269c3.986,1.056,6.898-1.156,6.898-1.156s0.359,2.419,0.35,3.055
		C290.441,72.161,285.072,77.001,281.971,79.227"/>
	<path fill="#41135E" d="M297.75,78.165c-1.396,0-2.527,1.131-2.527,2.528c0,1.396,1.131,2.527,2.527,2.527
		c1.398,0,2.527-1.131,2.527-2.527C300.277,79.296,299.148,78.165,297.75,78.165"/>
	<circle fill="#E1AA09" cx="226.86" cy="32.233" r="10.558"/>
	<circle fill="#FFFFFF" cx="226.859" cy="32.232" r="5.361"/>
	<circle fill="#E1AA09" cx="349.708" cy="85.113" r="10.577"/>
	<circle fill="#FFFFFF" cx="349.707" cy="85.112" r="5.371"/>
	<rect x="387.184" y="69.446" fill="#FFFFFF" width="32.121" height="25.876"/>
	<path fill="#41135E" d="M417.314,61.126l3.246-6.491c3.371-0.212,6.049-2.986,6.049-6.411c0-3.562-2.889-6.45-6.451-6.45
		s-6.449,2.888-6.449,6.45c0,1.312,0.396,2.53,1.068,3.549l-4.676,9.354H417.314z"/>
	<path fill="#41135E" d="M420.111,98.777c2.668-3.799,8.25-13.993,8.648-33.312c0.023-1.197-0.959-2.189-2.158-2.189h-42.99
		c-1.199,0-2.182,0.992-2.156,2.189c0.396,19.318,5.98,29.514,8.648,33.312c-1.621,1.396-3.16,3.216-4.158,5.105
		c-0.576,1.089,0.219,2.399,1.451,2.399h35.422c1.232,0,2.025-1.311,1.451-2.399C423.27,101.993,421.732,100.173,420.111,98.777z
		 M414.783,85.316c0,0.298-0.24,0.538-0.537,0.538h-5.914v5.914c0,0.297-0.24,0.537-0.537,0.537h-5.377
		c-0.297,0-0.537-0.24-0.537-0.537v-5.914h-5.912c-0.297,0-0.539-0.24-0.539-0.538v-5.375c0-0.298,0.242-0.538,0.539-0.538h5.912
		V73.49c0-0.297,0.24-0.537,0.537-0.537h5.377c0.297,0,0.537,0.24,0.537,0.537v5.913h5.914c0.297,0,0.537,0.24,0.537,0.538V85.316z"
		/>
	<polygon fill="#FFFFFF" points="77.646,153.228 71.312,159.894 95.978,169.228 108.645,156.561 	"/>
	<path fill="#009F18" d="M98.611,96.399c2.575,1.573,5.825,2.495,9.082,2.495c9.288,0,16.549-6.926,16.549-16.062
		c0-3.773-1.299-7.242-3.467-10.027c4.16-2.561,6.552-7.092,6.552-12.271c0-6.194-3.962-11.463-9.518-13.535
		c0.032-0.432,0.058-0.868,0.051-1.31c-0.12-8.537-7.125-15.35-16.452-15.216c-3.936,0.054-7.526,1.35-10.367,3.456
		c-2.592-2.235-5.98-3.602-9.699-3.602c-8.701,0-16.968,7.43-15.936,16.17c-6.529,2.13-11.246,8.171-11.246,15.306
		c0,5.107,3.732,9.654,7.502,12.611c-2.646,2.853-4.271,6.64-4.271,10.809c0,11.026,11.275,17.31,21.188,14.635
		c2.313-7.766,3.039-14.18,3.305-16.722c0.083-0.779,0.643-1.146,0.983-0.959c0.183,2.049,0.269,4.604,0.276,7.481
		c0.038,11.304-1.127,36.165-2.587,46.858l20.908,2.281C100.511,127.831,99.072,103.42,98.611,96.399z"/>
	<polyline fill="#FFFFFF" points="220.375,184.199 272.721,177.852 71.203,148.201 39.453,158.26 233.972,211.227 206.723,194.144 	
		"/>
	<path fill="#538696" d="M180.722,84.048c5.85,0.96,9.907-2.582,10.876-8.481c1.103-6.72-1.843-10.904-7.54-11.841
		c-6.004-0.985-9.938,2.745-10.934,8.811C172.076,78.925,174.87,83.087,180.722,84.048z"/>
	<path fill="#538696" d="M191.594,146.335c-1.328-2.18-2.585-3.858-3.821-5.568c-2.588-3.519-5.274-6.957-8.01-10.381
		c1.084-5.689,2.668-12.72,4.151-19.003c0.632,1.971,1.352,4.021,2.45,6.236c1.337,2.604,5.755,6.618,7.771,8.741
		c1.122,1.183,2.256,1.959,3.353,2.471c-0.442,0.877-0.586,1.906-0.295,2.865l1.071,3.56l-5.463,1.667l9.096,29.813l23.48-7.163
		l-9.096-29.814l-5.021,1.531l-1.061-3.512c-0.3-1.002-0.974-1.827-1.896-2.324c-0.923-0.495-1.982-0.603-2.985-0.3l-2.396,0.721
		c-2.058-2.49-4.546-5.375-5.415-6.446c-0.977-1.199-3.308-3.964-3.943-5.368c-0.868-1.87-1.574-4.315-2.191-6.524
		c-0.29-1.03-3.224-13.151-3.673-13.805c-1.585-3.951-13.517-9.457-20.579-5.249c-3.887,2.313-11.194,7.748-14.896,11.806
		c-2.251,2.498-3.161,4.001-4.126,9.479c-0.587,3.455-0.966,7.45-1.035,10.924c-0.012,0.556,0.033,1.098,0.109,1.634
		c-1.23,0.114-2.414,0.768-3.059,1.849l-1.907,3.19l-4.913-2.915l-15.908,26.806l21.114,12.527l15.907-26.805l-4.515-2.681
		l1.881-3.149c0.538-0.896,0.694-1.949,0.44-2.965c-0.256-1.015-0.89-1.87-1.788-2.41l-0.832-0.497
		c0.869-6.149,2.109-13.442,3.848-16.961c0.861-1.739,4.759-4.342,6.387-5.4c-1.035,4.803-4.605,20.818-4.605,24.486
		c0,4.535,2.931,6.893,4.801,8.852l7.313,7.66c0,0-0.271,0.465-0.895,0.105c-3.199-1.852-7.414-4.282-7.414-4.282
		c-1.049,3.961-2.766,10.419-4.272,14.258c-1.2,3.059-0.786,2.188-1.949,4.176c-2.351,4.024-5.386,8.088-7.998,12.656
		c-4.293,7.508,0.898,13.022,1.627,13.726c4.217-5.925,11.489-14.686,15.592-20.854c1.371-2.035,1.522-2.201,3.067-5.167
		c1.173-2.374,2.77-5.78,5.063-11.464c1.006,0.92,1.98,1.959,2.986,2.971c2.476,2.489,4.004,3.702,4.979,5.542
		c0.295,0.554,0.909,1.817,1.526,3.412c3.777,9.729,6.798,15.395,8.471,19.384c2.513,5.996,9.497,6.583,11.455,5.99
		c-1.928-7.617-6.379-23.181-8.86-30.741C192.964,148.282,192.728,148.198,191.594,146.335z M206.449,128.905l1.062,3.527
		l-5.502,1.68l-1.068-3.547L206.449,128.905z M150.524,132.298l-4.949-2.938l1.901-3.178l4.938,2.953L150.524,132.298z"/>
	<circle fill="#E1AA09" cx="290.945" cy="194.895" r="10.559"/>
	<circle fill="#FFFFFF" cx="290.943" cy="194.894" r="5.361"/>
	<polygon fill="#FFFFFF" points="227.572,179.451 205.472,194.614 233.972,211.227 272.721,177.852 	"/>
</g>
</svg>
