<?xml version="1.0" encoding="UTF-8" standalone="no"?>
<!-- Generator: Adobe Illustrator 19.1.0, SVG Export Plug-In . SVG Version: 6.00 Build 0)  -->

<svg
   xmlns:dc="http://purl.org/dc/elements/1.1/"
   xmlns:cc="http://creativecommons.org/ns#"
   xmlns:rdf="http://www.w3.org/1999/02/22-rdf-syntax-ns#"
   xmlns:svg="http://www.w3.org/2000/svg"
   xmlns="http://www.w3.org/2000/svg"
   xmlns:sodipodi="http://sodipodi.sourceforge.net/DTD/sodipodi-0.dtd"
   xmlns:inkscape="http://www.inkscape.org/namespaces/inkscape"
   version="1.2"
   x="0px"
   y="0px"
   width="64px"
   height="64px"
   viewBox="0 0 64 64"
   xml:space="preserve"
   id="svg2"
   inkscape:version="0.91 r13725"
   sodipodi:docname="bag_10.svg"><metadata
     id="metadata14"><rdf:RDF><cc:Work
         rdf:about=""><dc:format>image/svg+xml</dc:format><dc:type
           rdf:resource="http://purl.org/dc/dcmitype/StillImage" /><dc:title></dc:title></cc:Work></rdf:RDF></metadata><defs
     id="defs12" /><sodipodi:namedview
     pagecolor="#ffffff"
     bordercolor="#666666"
     borderopacity="1"
     objecttolerance="10"
     gridtolerance="10"
     guidetolerance="10"
     inkscape:pageopacity="0"
     inkscape:pageshadow="2"
     inkscape:window-width="1568"
     inkscape:window-height="853"
     id="namedview10"
     showgrid="false"
     inkscape:zoom="3.6875"
     inkscape:cx="24.271186"
     inkscape:cy="32"
     inkscape:window-x="0"
     inkscape:window-y="0"
     inkscape:window-maximized="0"
     inkscape:current-layer="layer1" /><g
     id="Box"><rect
       fill="none"
       width="64"
       height="64"
       id="rect5" /></g><g
     id="Icon"><path
       d="M 61.2248,30.2057 32.8126,3.3202 c -0.4594,-0.4269 -1.1659,-0.4269 -1.6253,0 L 2.7752,30.2057 C 2.2813,30.6652 2,31.3124 2,31.9904 l 0,1.7968 C 2,34.4569 2.5374,35 3.2,35 l 4.8,0 0,25 48,0 0,-25 4.8,0 c 0.6626,0 1.2,-0.5431 1.2,-1.2128 l 0,-1.7968 c 0,-0.678 -0.2813,-1.3252 -0.7752,-1.7847 z"
       id="path8"
       inkscape:connector-curvature="0"
       sodipodi:nodetypes="ccccsssccccsssc" /></g><g
     inkscape:groupmode="layer"
     id="layer1"
     inkscape:label="Tekst"><text
       xml:space="preserve"
       style="font-style:normal;font-weight:normal;font-size:40px;line-height:125%;font-family:sans-serif;letter-spacing:0px;word-spacing:0px;fill:#ffffff;fill-opacity:1;stroke:none;stroke-width:1px;stroke-linecap:butt;stroke-linejoin:miter;stroke-opacity:1"
       x="21.694916"
       y="50.711864"
       id="text3345"
       sodipodi:linespacing="125%"><tspan
         sodipodi:role="line"
         id="tspan3347"
         x="21.694916"
         y="50.711864" /></text>
<text
       xml:space="preserve"
       style="font-style:normal;font-weight:normal;font-size:40px;line-height:125%;font-family:sans-serif;letter-spacing:0px;word-spacing:0px;fill:#ffffff;fill-opacity:1;stroke:none;stroke-width:1px;stroke-linecap:butt;stroke-linejoin:miter;stroke-opacity:1"
       x="24.40678"
       y="54.237289"
       id="text4153"
       sodipodi:linespacing="125%"><tspan
         sodipodi:role="line"
         id="tspan4155"
         x="24.40678"
         y="54.237289" /></text>
<g
       style="font-style:normal;font-variant:normal;font-weight:normal;font-stretch:normal;font-size:40px;line-height:125%;font-family:'Arial Rounded MT Bold';-inkscape-font-specification:'Arial Rounded MT Bold, Normal';text-align:start;letter-spacing:0px;word-spacing:0px;writing-mode:lr-tb;text-anchor:start;fill:#000000;fill-opacity:1;stroke:none;stroke-width:1px;stroke-linecap:butt;stroke-linejoin:miter;stroke-opacity:1"
       id="text4157"><path
         d="m 21.825609,30.568394 q 0,-1.855469 1.191406,-3.75 1.191407,-1.914063 3.476563,-3.164063 2.285156,-1.25 5.332031,-1.25 2.832031,0 5,1.054688 2.167969,1.035156 3.339844,2.832031 1.191406,1.796875 1.191406,3.90625 0,1.660156 -0.683594,2.910156 -0.664062,1.25 -1.601562,2.167969 -0.917969,0.898437 -3.320313,3.046875 -0.664062,0.605469 -1.074218,1.074219 -0.390625,0.449218 -0.585938,0.839843 -0.195312,0.371094 -0.3125,0.761719 -0.09766,0.371094 -0.3125,1.328125 -0.371094,2.03125 -2.324219,2.03125 -1.015625,0 -1.71875,-0.664062 -0.683593,-0.664063 -0.683593,-1.972657 0,-1.640625 0.507812,-2.832031 0.507813,-1.210937 1.347656,-2.109375 0.839844,-0.917969 2.265625,-2.167969 1.25,-1.09375 1.796875,-1.640625 0.566407,-0.566406 0.9375,-1.25 0.390625,-0.683593 0.390625,-1.484375 0,-1.5625 -1.171875,-2.636718 -1.152343,-1.074219 -2.988281,-1.074219 -2.148437,0 -3.164062,1.09375 -1.015625,1.074219 -1.71875,3.183594 -0.664063,2.207031 -2.519532,2.207031 -1.09375,0 -1.855468,-0.761719 -0.742188,-0.78125 -0.742188,-1.679687 z m 9.53125,21.40625 q -1.191406,0 -2.089844,-0.761719 -0.878906,-0.78125 -0.878906,-2.167969 0,-1.230469 0.859375,-2.070312 0.859375,-0.839844 2.109375,-0.839844 1.230469,0 2.070313,0.839844 0.839843,0.839843 0.839843,2.070312 0,1.367188 -0.878906,2.148438 -0.878906,0.78125 -2.03125,0.78125 z"
         style="fill:#ffffff"
         id="path4162" /></g></g></svg>