<?xml version="1.0" encoding="utf-8"?>
<!-- Generator: Adobe Illustrator 15.1.0, SVG Export Plug-In . SVG Version: 6.00 Build 0)  -->
<!DOCTYPE svg PUBLIC "-//W3C//DTD SVG 1.1//EN" "http://www.w3.org/Graphics/SVG/1.1/DTD/svg11.dtd">
<svg version="1.1" id="Layer_1" xmlns="http://www.w3.org/2000/svg" xmlns:xlink="http://www.w3.org/1999/xlink" x="0px" y="0px"
	 width="490px" height="231.085px" viewBox="0 0 490 231.085" enable-background="new 0 0 490 231.085" xml:space="preserve">
<g>
	<polyline fill="#BFDCE8" points="490,230.47 0,230.47 0,0.47 490,0.47 490,230.47 	"/>
	<path fill="#FFFFFF" d="M489.931,230.47H45.926c-0.111,0.203-0.217,0.408-0.317,0.615h444.322V230.47 M430.003,0H275.595
		l-0.47,0.47h155.348L430.003,0"/>
	<path fill="#EAF3F7" d="M430.473,0.47H275.125L48.307,227.293c-0.961,0.961-1.754,2.03-2.381,3.177h444.005V59.929L430.473,0.47"/>
	<rect x="128.659" y="70.015" fill="#BFDCE8" width="64.164" height="94.968"/>
	<path fill="#E1AA09" d="M389.945,56.315c0-16.812-8.9-23.239-19.902-23.239c-11,0-20.766,7.786-20.766,24.229
		c0,17.306,9.148,22.498,19.777,22.498C379.807,79.803,389.945,72.137,389.945,56.315z M369.549,69.788
		c-4.82,0-8.158-3.089-8.158-13.596c0-9.89,3.832-13.227,8.283-13.227c4.82,0,8.281,3.461,8.281,14.339
		C377.955,66.204,374.371,69.788,369.549,69.788z"/>
	<polygon fill="#E1AA09" points="408.857,31.222 375.979,114.662 385.248,118.367 418.129,34.933 	"/>
	<path fill="#E1AA09" d="M424.68,79.062c4.234,0,7.418,2.674,8.131,10.697c3.504-0.156,7.023-0.206,9.994-0.206
		c0.654,0,1.348,0.004,2.053,0.01c-0.961-14.689-9.449-20.393-19.807-20.393c-11,0-20.766,7.79-20.766,24.231
		c0,9.785,2.926,15.695,7.393,18.984c0.154-4.332,0.455-8.762,1.031-12.215c0.439-2.651,1.799-4.965,3.713-6.672
		c-0.01-0.396-0.023-0.789-0.023-1.21C416.398,82.4,420.23,79.062,424.68,79.062z"/>
	<path fill="#E1AA09" d="M468.383,120.803c0-2.18,0-13.091-1.09-19.638c-0.375-2.265-2.098-3.987-4.365-4.363
		c-6.545-1.092-17.457-1.092-19.637-1.092c-2.182,0-13.094,0-19.639,1.092c-2.266,0.376-3.986,2.099-4.363,4.363
		c-1.092,6.547-1.092,17.458-1.092,19.638c0,2.183,0,13.094,1.092,19.638c0.377,2.264,2.098,3.986,4.363,4.364
		c6.545,1.091,17.457,1.091,19.639,1.091c2.18,0,13.092,0,19.637-1.091c2.268-0.378,3.99-2.101,4.365-4.364
		C468.383,133.896,468.383,127.352,468.383,120.803z"/>
	<path fill="#FFFFFF" d="M445.58,104.098c-0.551-0.702-1.396-1.109-2.289-1.109s-1.738,0.407-2.289,1.109l-12.914,16.356
		c-0.42,0.532-0.629,1.171-0.629,1.809c0,0.676,0.236,1.355,0.707,1.901c0.91,1.061,2.445,1.324,3.656,0.63l5.1-2.908
		c0,0,1.594-5.984,1.732-6.498c0.111-0.41,0.332-0.276,0.332-0.276v20.472c0,2.338,2.021,3.035,4.303,3.035
		c2.283,0,4.305-0.697,4.305-3.035v-14.872l7.164,4.083c1.213,0.694,2.746,0.431,3.658-0.63c0.912-1.059,0.943-2.615,0.076-3.71
		L445.58,104.098z"/>
	<path fill="#73BBD8" d="M202.173,56.598l-34.539-30.967c-1.086-0.973-2.724-0.973-3.811,0l-34.539,30.967c-3.554,0-6.268,0-9.821,0
		L84.924,25.631c-1.086-0.973-2.725-0.973-3.811,0L46.572,56.598h-4.91v108.385h51.339v-42.784h17.112v42.784h14.261h51.337v-42.784
		h17.112v42.784h14.261V56.598H202.173z M73.036,150.721H55.923v-28.522h17.113V150.721z M73.036,102.233H55.923V73.711h17.113
		V102.233z M110.113,102.233H93.001V73.711h17.112V102.233z M155.747,150.721h-17.112v-28.522h17.112V150.721z M155.747,102.233
		h-17.112V73.711h17.112V102.233z M192.823,102.233h-17.112V73.711h17.112V102.233z"/>
	<path fill="#41135E" d="M281.527,92.845c7.592,0,11.984-5.37,11.984-13.103c0-8.809-4.59-13.531-11.984-13.531
		c-7.787,0-11.986,5.585-11.986,13.531C269.541,88.122,273.939,92.845,281.527,92.845z"/>
	<path fill="#41135E" d="M355.447,141.304c-1.611-8.668-3.609-13.409-4.34-19.435c-1.615-13.335-5.686-19.746-13.262-22.076
		c-3.607-1.111-7.049-1.622-10.963-1.622h-0.141c-3.914,0-7.354,0.511-10.961,1.622c-2.547,0.781-4.688,2.04-6.484,3.854
		c1.818,2.545,3.184,5.561,4.191,8.883c0.135-0.248,0.24-0.439,0.24-0.439c-0.062,0.255-0.1,0.475-0.154,0.717
		c3.561,12.011,2.59,27.828,1.896,39.1c-0.43,6.979-4.123,11.122-8.428,12.866c-0.061,1.419-0.102,2.885-0.102,4.449
		c0,0,3.439,0.675,7.877,0.858l0.561,37.286c0,0,8.561-1.308,9.141-9.686c0,0,0.721-18.749,1.055-28.323
		c0.436-0.067,0.865-0.131,1.309-0.211c0.377-0.067,0.756-0.12,1.139-0.176c0.328,9.352,1.061,28.474,1.061,28.474
		c0.434,8.629,9.168,9.922,9.168,9.922l0.537-38.557c4.051,0.385,7.896,1.044,7.896,1.044c0-20.389-5.404-28.526-7.098-34.916
		c-0.9-3.397-0.711-6.952,0.107-10.354c0.77-3.195,1.758-6.174,0.205-12.494c0,0,0.816,1.434,1.145,2.361
		c1.818,5.166,1.291,15.153,8.619,38.17C352.854,152.215,356.764,148.357,355.447,141.304z"/>
	<path fill="#41135E" d="M311.471,151.897c1.037-16.892,2.984-47.253-13.586-51.716c-9.477-2.553-22.018-2.775-32.717,0
		c-16.618,4.31-14.628,34.824-13.589,51.716c0.472,7.684,5.837,9.862,9.374,9.862c0,0,0-15.756,0-20.791
		c0-9.258,0.139-17.996,2.156-23.365c0.35-0.93,0.895-1.038,1.104-0.789v101.206c7.412,0,13.32-4.074,13.953-12.256
		c0,0,1.939-44.878,1.961-45.418c0.02-0.538,0.527-1.237,1.4-1.237c0.875,0,1.385,0.699,1.406,1.237
		c0.02,0.54,1.955,45.418,1.955,45.418c0.635,8.213,6.602,12.256,13.951,12.256V116.814c0.332-0.291,0.814-0.192,1.102,0.789
		c1.604,5.452,2.158,14.191,2.158,23.365c0,5.035,0,20.791,0,20.791C305.633,161.76,310.998,159.581,311.471,151.897z"/>
	<path fill="#41135E" d="M260.215,68.874c5.908,0,9.326-4.297,9.326-10.481c0-7.046-3.572-10.825-9.326-10.825
		c-6.062,0-9.323,4.465-9.323,10.825C250.892,65.094,254.309,68.874,260.215,68.874z"/>
	<path fill="#41135E" d="M302.834,68.874c5.906,0,9.32-4.297,9.32-10.481c0-7.046-3.57-10.825-9.32-10.825
		c-6.059,0-9.322,4.465-9.322,10.825C293.512,65.094,296.93,68.874,302.834,68.874z"/>
	<path fill="#41135E" d="M325.471,92.845c6.746,0,10.652-4.254,10.652-11.793c0-7.152-3.729-12.178-10.652-12.178
		c-6.572,0-10.652,4.249-10.652,12.178C314.818,88.012,318.723,92.845,325.471,92.845z"/>
	<path fill="#41135E" d="M255.506,101.063c-0.895-0.475-1.839-0.869-2.855-1.149c-8.417-2.303-22.288-2.303-30.388,0
		c-4.027,1.143-7.053,3.955-8.946,7.9c-5.025,10.493-15.824,42.648-15.824,42.648c0.67,0.476,1.826,0.585,3.146,0.422
		c1.008,10.344,5.307,54.524,5.514,56.17c0.191,1.542,5.406,1.033,5.242-0.62c-0.172-1.742-3.207-44.652-4.182-58.454
		c1.025-0.876,1.883-1.933,2.398-3.157c2.115-5.024,4.425-10.734,5.978-15.099c2.006-5.646,3.309-9.729,5.009-13.367
		c0.364-0.777,0.708-1.25,1.079-0.917v91.927c6.279,0,10.895-3.797,11.473-11.275c0,0,1.787-40.9,1.805-41.395
		c0.019-0.494,0.469-1.141,1.315-1.141c0.849,0,1.246,0.646,1.268,1.141c0.021,0.494,1.789,41.471,1.789,41.471
		c0.421,7.217,4.447,11.199,11.565,11.199v-46.296c-1.8-2.168-3.032-5.072-3.271-8.888
		C246.678,137.159,245.01,111.77,255.506,101.063z"/>
	<path fill="#41135E" d="M227.029,79.465c-0.043,0.524-0.106,1.035-0.106,1.587c0,7.539,3.907,11.793,10.652,11.793
		c6.75,0,10.653-4.833,10.653-11.793c0-4.082-0.435-10.469-4.279-11.865c-1.725-0.625-5.13-0.207-8.792,0.713l-0.084,0.021
		c-6.587,1.673-13.428,4.997-13.462,7.049C221.582,78.893,224.356,79.023,227.029,79.465z"/>
</g>
</svg>
