<?xml version="1.0" encoding="utf-8"?>
<!-- Generator: Adobe Illustrator 15.1.0, SVG Export Plug-In . SVG Version: 6.00 Build 0)  -->
<!DOCTYPE svg PUBLIC "-//W3C//DTD SVG 1.1//EN" "http://www.w3.org/Graphics/SVG/1.1/DTD/svg11.dtd">
<svg version="1.1" id="Layer_1" xmlns="http://www.w3.org/2000/svg" xmlns:xlink="http://www.w3.org/1999/xlink" x="0px" y="0px"
	 width="490px" height="230.664px" viewBox="0 0 490 230.664" enable-background="new 0 0 490 230.664" xml:space="preserve">
<g>
	<polyline fill="#BFDCE8" points="489.982,229.771 -0.018,229.771 -0.018,-0.229 489.982,-0.229 489.982,229.771 	"/>
	<path fill="#E1AA09" d="M369.152,97.081c0-16.812-8.9-23.239-19.902-23.239c-11,0-20.766,7.786-20.766,24.229
		c0,17.306,9.148,22.498,19.777,22.498C359.014,120.568,369.152,112.902,369.152,97.081z M348.756,110.554
		c-4.82,0-8.158-3.089-8.158-13.596c0-9.89,3.832-13.227,8.283-13.227c4.82,0,8.281,3.461,8.281,14.339
		C357.162,106.97,353.578,110.554,348.756,110.554z"/>
	<polygon fill="#E1AA09" points="388.064,71.987 355.186,155.428 364.455,159.133 397.336,75.698 	"/>
	<path fill="#E1AA09" d="M403.887,119.827c4.234,0,7.418,2.674,8.131,10.697c3.504-0.156,7.023-0.206,9.994-0.206
		c0.654,0,1.348,0.004,2.053,0.01c-0.961-14.689-9.449-20.393-19.807-20.393c-11,0-20.766,7.79-20.766,24.231
		c0,9.785,2.926,15.695,7.393,18.984c0.154-4.332,0.455-8.762,1.031-12.215c0.439-2.651,1.799-4.965,3.713-6.672
		c-0.01-0.396-0.023-0.789-0.023-1.21C395.605,123.166,399.438,119.827,403.887,119.827z"/>
	<path fill="#E1AA09" d="M447.59,161.568c0-2.18,0-13.091-1.09-19.638c-0.375-2.265-2.098-3.987-4.365-4.363
		c-6.545-1.092-17.457-1.092-19.637-1.092c-2.182,0-13.094,0-19.639,1.092c-2.266,0.376-3.986,2.099-4.363,4.363
		c-1.092,6.547-1.092,17.458-1.092,19.638c0,2.183,0,13.094,1.092,19.638c0.377,2.264,2.098,3.986,4.363,4.364
		c6.545,1.091,17.457,1.091,19.639,1.091c2.18,0,13.092,0,19.637-1.091c2.268-0.378,3.99-2.101,4.365-4.364
		C447.59,174.662,447.59,168.117,447.59,161.568z"/>
	<path fill="#FFFFFF" d="M424.787,144.863c-0.551-0.702-1.396-1.109-2.289-1.109s-1.738,0.407-2.289,1.109l-12.914,16.356
		c-0.42,0.532-0.629,1.171-0.629,1.809c0,0.676,0.236,1.355,0.707,1.901c0.91,1.061,2.445,1.324,3.656,0.63l5.1-2.908
		c0,0,1.594-5.984,1.732-6.498c0.111-0.41,0.332-0.276,0.332-0.276v20.472c0,2.338,2.021,3.035,4.303,3.035
		c2.283,0,4.305-0.697,4.305-3.035v-14.872l7.164,4.083c1.213,0.694,2.746,0.431,3.658-0.63c0.912-1.059,0.943-2.615,0.076-3.71
		L424.787,144.863z"/>
	<path fill="#90CEE0" d="M220.307,101.621l-18.74-25.215c-0.654-0.769-1.648-1.215-2.695-1.215
		c-1.047-0.002-2.037,0.448-2.691,1.216l-18.742,22.045c-0.447,0.527-0.699,1.157-0.744,1.795c-0.066,0.858,0.23,1.739,0.893,2.417
		c1.145,1.179,3.033,1.396,4.451,0.518l10.496-6.543l-0.002,37.245c0.002,3.699,3.566,4.802,6.721,4.804
		c3.162-0.001,5.961-1.102,5.959-4.803l0.004-37.248l10.492,9.714c1.418,0.879,3.305,0.661,4.451-0.518
		c0.658-0.678,0.961-1.557,0.895-2.415"/>
	<path fill="#73BBD8" d="M257.158,141.149c-0.5,0.59-0.781,1.292-0.834,2.004c-0.074,0.965,0.26,1.947,1,2.704
		c1.281,1.319,3.391,1.56,4.977,0.578l11.727-7.315l0.002,48.779c-0.002,4.133,3.98,5.365,7.51,5.367
		c3.531,0,6.658-1.233,6.66-5.365l-0.002-48.782l11.729,7.315c1.584,0.984,3.695,0.74,4.977-0.577
		c0.734-0.757,1.072-1.74,0.998-2.704c-0.057-0.712-0.332-1.414-0.834-2.003l-20.941-24.637c-0.732-0.859-1.84-1.359-3.012-1.362
		c-1.172,0.001-2.281,0.503-3.012,1.362L257.158,141.149z"/>
	<path fill="#90CEE0" d="M311.186,53.18l-18.324-24.653c-0.639-0.751-1.609-1.188-2.635-1.188c-1.023-0.003-1.99,0.438-2.631,1.188
		l-18.324,21.554c-0.439,0.515-0.684,1.133-0.729,1.754c-0.066,0.842,0.225,1.702,0.873,2.364c1.119,1.152,2.967,1.365,4.352,0.507
		l10.262-6.397v35.748c0,3.618,3.484,4.695,6.572,4.696c3.088,0,5.828-1.077,5.824-4.696l0.002-35.751l10.26,9.499
		c1.387,0.857,3.232,0.646,4.354-0.507c0.643-0.662,0.939-1.522,0.875-2.36"/>
	<path fill="#73BBD8" d="M208.658,33.149c-0.5,0.59-0.781,1.292-0.834,2.004c-0.074,0.965,0.26,1.947,1,2.704
		c1.281,1.319,3.391,1.56,4.977,0.578l11.727-7.315l0.002,48.779c-0.002,4.133,3.98,5.365,7.51,5.367
		c3.531,0,6.658-1.233,6.66-5.365l-0.002-48.782l11.729,7.315c1.584,0.984,3.695,0.74,4.977-0.577
		c0.734-0.757,1.072-1.74,0.998-2.704c-0.057-0.712-0.332-1.414-0.834-2.003L235.625,8.514c-0.732-0.859-1.84-1.359-3.012-1.362
		c-1.172,0.001-2.281,0.503-3.012,1.362L208.658,33.149z"/>
	<polyline fill="#FFFFFF" points="-0.018,204.964 -0.749,205.695 -0.749,229.664 -0.018,229.664 -0.018,204.964 	"/>
	<path fill="#EAF3F7" d="M112.892,98.256c-3.857,0-7.585,1.382-10.386,4.185L-0.018,204.964v24.7h251.502L125.441,103.62
		C121.885,100.063,117.304,98.256,112.892,98.256"/>
	<path fill="#41135E" d="M133.568,186.466c-4.066,12.099-15.477,20.823-28.943,20.823c-16.873,0-30.551-13.677-30.551-30.551
		c0-7.699,2.869-14.716,7.566-20.089c-1.725-2.946-2.689-6.289-2.689-9.863c0-0.064,0.02-0.976,0.078-2.503
		c-9.592,7.578-15.766,19.284-15.766,32.455c0,22.844,18.518,41.362,41.361,41.362c14.115,0,26.568-7.081,34.027-17.876
		l-1.814-5.012C135.828,192.497,134.727,189.542,133.568,186.466"/>
	<path fill="#41135E" d="M146.729,151.478c-2.145-5.089-3.902-6.453-7.758-8.14c-5.758-2.283-16.717-4.673-22.811-5.934
		c1.488-9.266,2.469-18.146,3.193-23.573c0.936-6.987,2.027-11.283-1.49-15.646c-4.631-5.733-14.43-6.511-20.344-3.549
		c-2.854,0.967-16.857,8.73-23.91,15.947c-2.375,2.604-3.203,3.804-4.195,5.938c-3.572,7.711-6.99,21.675-9.004,29.93
		c7.695,1.906,11.689-4.822,12.779-7.057c2.139-4.838,4.635-11.965,7.418-16.467c1.598-3.019,5.502-5.236,8.559-7.02
		c-2,11.015-2.84,23.608-2.793,30.88c0.066,9.984,8.625,14.264,16.824,14.264c8.203,0,28.836-0.021,29.061,0
		c2.852,9.089,8.045,22.815,10.82,30.339c5.369,14.574,14.285,13.173,17.174,12.449C157.441,192.35,151.078,162.389,146.729,151.478
		"/>
	<path fill="#41135E" d="M114.621,89.502c8.477,1.361,14.332-3.818,15.699-12.414c1.559-9.796-2.734-15.871-10.996-17.201
		c-8.695-1.398-14.369,4.06-15.775,12.898C102.068,82.095,106.141,88.135,114.621,89.502"/>
</g>
</svg>
