<?xml version="1.0" encoding="utf-8"?>
<!-- Generator: Adobe Illustrator 15.1.0, SVG Export Plug-In . SVG Version: 6.00 Build 0)  -->
<!DOCTYPE svg PUBLIC "-//W3C//DTD SVG 1.1//EN" "http://www.w3.org/Graphics/SVG/1.1/DTD/svg11.dtd">
<svg version="1.1" id="Layer_1" xmlns="http://www.w3.org/2000/svg" xmlns:xlink="http://www.w3.org/1999/xlink" x="0px" y="0px"
	 width="490px" height="230.664px" viewBox="0 0 490 230.664" enable-background="new 0 0 490 230.664" xml:space="preserve">
<g>
	<polyline fill="#BFDCE8" points="490,230.647 0,230.647 0,0.647 490,0.647 490,230.647 	"/>
	<path fill="#FFFFFF" d="M489.584,230.647H0.252v0.017h489.332V230.647 M378.781,0H203.45l-0.647,0.647h176.626L378.781,0"/>
	<polyline fill="#EAF3F7" points="379.429,0.647 202.803,0.647 0.252,203.197 0.252,230.647 489.584,230.647 489.584,110.804 
		379.429,0.647 	"/>
	<path fill="#41135E" d="M131.846,69.384c7.592,0,11.984-5.37,11.984-13.103c0-8.809-4.59-13.531-11.984-13.531
		c-7.787,0-11.986,5.585-11.986,13.531C119.859,64.661,124.258,69.384,131.846,69.384z"/>
	<path fill="#41135E" d="M161.789,128.437c1.037-16.892,2.984-47.253-13.586-51.716c-9.477-2.553-22.018-2.775-32.717,0
		c-16.619,4.31-14.629,34.824-13.59,51.716c0.473,7.684,5.838,9.862,9.375,9.862c0,0,0-15.756,0-20.791
		c0-9.258,0.139-17.996,2.156-23.365c0.35-0.93,0.895-1.038,1.104-0.789V194.56c7.412,0,13.32-4.074,13.953-12.256
		c0,0,1.939-44.878,1.961-45.418c0.02-0.538,0.527-1.237,1.4-1.237c0.875,0,1.385,0.699,1.406,1.237
		c0.02,0.54,1.955,45.418,1.955,45.418c0.635,8.213,6.602,12.256,13.951,12.256V93.354c0.332-0.291,0.814-0.192,1.102,0.789
		c1.604,5.452,2.158,14.191,2.158,23.365c0,5.035,0,20.791,0,20.791C155.951,138.299,161.316,136.12,161.789,128.437z"/>
	<path fill="#41135E" d="M105.824,77.603c-0.895-0.475-1.84-0.869-2.855-1.149c-8.418-2.303-22.289-2.303-30.389,0
		c-4.027,1.143-7.053,3.955-8.947,7.9c-5.025,10.493-15.824,42.648-15.824,42.648c0.67,0.476,1.826,0.585,3.146,0.422
		c1.008,10.344,5.307,54.524,5.514,56.17c0.191,1.542,5.406,1.033,5.242-0.62c-0.172-1.742-3.207-44.652-4.182-58.454
		c1.025-0.876,1.883-1.933,2.398-3.157c2.115-5.024,4.426-10.734,5.979-15.099c2.006-5.646,3.309-9.729,5.008-13.367
		c0.365-0.777,0.709-1.25,1.08-0.917v91.927c6.279,0,10.895-3.797,11.473-11.275c0,0,1.787-40.9,1.805-41.395
		c0.02-0.494,0.469-1.141,1.316-1.141s1.246,0.646,1.268,1.141c0.02,0.494,1.789,41.471,1.789,41.471
		c0.42,7.217,4.447,11.199,11.564,11.199V137.61c-1.799-2.168-3.031-5.072-3.271-8.888C96.996,113.698,95.328,88.309,105.824,77.603
		z"/>
	<path fill="#41135E" d="M77.346,56.004c-0.043,0.524-0.105,1.035-0.105,1.587c0,7.539,3.906,11.793,10.652,11.793
		c6.75,0,10.654-4.833,10.654-11.793c0-4.082-0.436-10.469-4.279-11.865c-1.725-0.625-5.131-0.207-8.793,0.713l-0.084,0.021
		c-6.588,1.673-13.428,4.997-13.463,7.049C71.898,55.432,74.674,55.562,77.346,56.004z"/>
	<path fill="#538696" d="M189.441,79.997c1.006-0.088,1.826-0.452,2.465-1.014c0.996,3.783,3.859,6.369,8.422,7.372
		c6.979,1.532,12.088-2.47,13.639-9.508c1.76-8.014-1.518-13.239-8.312-14.733c-7.162-1.572-12.137,2.663-13.725,9.897
		c-0.322,1.476-0.416,2.825-0.391,4.112c-0.295,0.207-0.773,0.069-1.109-0.969c-0.338-1.054-0.674-3.023-0.17-5.932
		c-0.541-0.168-1.137-0.23-1.785-0.172c-2.896,0.253-4.258,2.688-3.967,5.954C184.812,78.447,186.617,80.246,189.441,79.997"/>
	<path fill="#538696" d="M212.607,186.369c-3.914,0-7.084,3.169-7.084,7.081c0,3.913,3.17,7.082,7.084,7.082
		c3.91,0,7.082-3.169,7.082-7.082C219.689,189.538,216.518,186.369,212.607,186.369"/>
	<path fill="#538696" d="M240.936,186.369c-3.912,0-7.082,3.169-7.082,7.081c0,3.913,3.17,7.082,7.082,7.082
		s7.082-3.169,7.082-7.082C248.018,189.538,244.848,186.369,240.936,186.369"/>
	<path fill="#538696" d="M248.646,177.109c-0.783-0.151-1.561-0.159-2.906-0.177l-0.084-0.008h-5.826
		c-1.049,0-1.41-0.472-1.588-0.919l-10.402-39.98c-0.029-0.115-0.066-0.23-0.107-0.344c-1.434-3.85-4.598-5.972-8.908-5.972h-5.893
		c-3.359-5.824-3.949-6.934-4.98-9.147c-0.695-1.521-0.77-1.558-1.297-4.124c-0.984-4.895-1.426-12.253-2.033-17.7
		c-0.775-6.91-12.131-13.196-19.754-10.783c-10.635,3.368-19.148,24.857-22.15,31.662c-1.203,2.767-1.74,5.36-1.926,7.719
		l-4.814,41.256c3.604,1.466,8.027,1.266,13.141,0.737l0.047,0.047c0.305,0.283,0.105,1.088-0.564,1.5
		c-0.643,0.394-3.576,1.438-7.439,1.996c0.031,5.64,0.072,11.089,0.186,15.587c0.221,8.871,7.148,11.44,9.191,12.017
		c0.082-1.057,1.305-22.294,1.949-31.513c2.672-0.3,5.508-0.597,8.494-0.759c1.199,5.476,4.377,19.953,4.961,22.725
		c1.434,6.811,6.418,10.086,11.979,9.604c0,0-2.117-21.117-3.184-31.616c1.211,0.217,2.439,0.472,3.689,0.794
		c0,0-1.906-21.188-9.188-36.458c2.375-5.465,5.018-11.546,7.424-17.092c0.148,0.783,0.281,1.554,0.467,2.365
		c1.029,4.057,1.756,6.164,5.496,11.112c5.25,6.945,9.205,11.904,13.496,7.155h2.703c1.529,0,1.932,0.514,2.213,1.208l4.203,16.159
		l-10.256,25.604c-0.729,1.814,0.379,3.241,2.193,3.968c1.814,0.729,3.654,0.479,4.381-1.336l6.686-16.69l3.186,12.249l0.08,0.26
		c1.234,3.576,4.42,5.794,8.32,5.794h4.684c2.84,0,4.777-1.247,5.572-3.212C250.641,179.434,250.533,177.477,248.646,177.109"/>
	<path fill="#E1AA09" d="M377.264,63.854c0-16.812-8.9-23.239-19.902-23.239c-11,0-20.766,7.786-20.766,24.229
		c0,17.306,9.148,22.498,19.777,22.498C367.125,87.342,377.264,79.676,377.264,63.854z M356.867,77.327
		c-4.82,0-8.158-3.089-8.158-13.596c0-9.89,3.832-13.227,8.283-13.227c4.82,0,8.281,3.461,8.281,14.339
		C365.273,73.743,361.689,77.327,356.867,77.327z"/>
	<polygon fill="#E1AA09" points="396.176,38.761 363.297,122.201 372.566,125.906 405.447,42.472 	"/>
	<path fill="#E1AA09" d="M411.998,86.601c4.234,0,7.418,2.674,8.131,10.697c3.504-0.156,7.023-0.206,9.994-0.206
		c0.654,0,1.348,0.004,2.053,0.01c-0.961-14.689-9.449-20.393-19.807-20.393c-11,0-20.766,7.79-20.766,24.231
		c0,9.785,2.926,15.695,7.393,18.984c0.154-4.332,0.455-8.762,1.031-12.215c0.439-2.651,1.799-4.965,3.713-6.672
		c-0.01-0.396-0.023-0.789-0.023-1.21C403.717,89.939,407.549,86.601,411.998,86.601z"/>
	<path fill="#E1AA09" d="M455.701,128.342c0-2.18,0-13.091-1.09-19.638c-0.375-2.265-2.098-3.987-4.365-4.363
		c-6.545-1.092-17.457-1.092-19.637-1.092c-2.182,0-13.094,0-19.639,1.092c-2.266,0.376-3.986,2.099-4.363,4.363
		c-1.092,6.547-1.092,17.458-1.092,19.638c0,2.183,0,13.094,1.092,19.638c0.377,2.264,2.098,3.986,4.363,4.364
		c6.545,1.091,17.457,1.091,19.639,1.091c2.18,0,13.092,0,19.637-1.091c2.268-0.378,3.99-2.101,4.365-4.364
		C455.701,141.436,455.701,134.891,455.701,128.342z"/>
	<path fill="#FFFFFF" d="M432.898,111.637c-0.551-0.702-1.396-1.109-2.289-1.109s-1.738,0.407-2.289,1.109l-12.914,16.356
		c-0.42,0.532-0.629,1.171-0.629,1.809c0,0.676,0.236,1.355,0.707,1.901c0.91,1.061,2.445,1.324,3.656,0.63l5.1-2.908
		c0,0,1.594-5.984,1.732-6.498c0.111-0.41,0.332-0.276,0.332-0.276v20.472c0,2.338,2.021,3.035,4.303,3.035
		c2.283,0,4.305-0.697,4.305-3.035V128.25l7.164,4.083c1.213,0.694,2.746,0.431,3.658-0.63c0.912-1.059,0.943-2.615,0.076-3.71
		L432.898,111.637z"/>
	<path fill="#41135E" d="M277.566,88.699h3.293v5.761h-3.42c-3.48,0-6.361,0.715-8.641,2.145s-4,3.694-5.16,6.795l0.121,0.12
		c0.998-0.56,2.029-0.96,3.09-1.2c1.059-0.24,2.289-0.359,3.689-0.359c3.559,0,6.43,1.07,8.609,3.21s3.27,5.17,3.27,9.09
		c0,4.24-1.367,7.69-4.102,10.35c-2.732,2.661-6.016,3.99-9.848,3.99c-3.951,0-7.205-1.35-9.758-4.05
		c-2.555-2.7-3.832-6.85-3.832-12.45c0-8.319,2.094-14.3,6.285-17.94C265.354,90.521,270.822,88.699,277.566,88.699z M263.279,108.8
		c-0.08,0.64-0.141,1.319-0.18,2.04c-0.041,0.72-0.061,1.46-0.061,2.22c0,3.801,0.604,6.4,1.809,7.8
		c1.207,1.4,2.615,2.101,4.223,2.101c1.568,0,2.826-0.58,3.771-1.74s1.418-3.1,1.418-5.82c0-2.56-0.545-4.43-1.631-5.609
		s-2.492-1.771-4.221-1.771c-1.006,0-1.932,0.07-2.775,0.21C264.789,108.37,264.004,108.56,263.279,108.8z"/>
	<path fill="#41135E" d="M310.379,88.699v6.36h-15.18v7.68c0.758-0.039,1.404-0.079,1.943-0.12c0.537-0.039,1.145-0.06,1.822-0.06
		c4.385,0,7.734,1.09,10.047,3.27c2.311,2.181,3.467,4.971,3.467,8.37c0,4.36-1.766,7.851-5.297,10.471s-8.148,3.93-13.855,3.93
		h-4.967v-6h5.279c3.121,0,5.68-0.66,7.68-1.98c2-1.319,3-3.119,3-5.399c0-1.92-0.68-3.42-2.039-4.5
		c-1.361-1.08-3.541-1.62-6.541-1.62c-1.041,0-2.16,0.04-3.359,0.12s-2.361,0.18-3.48,0.3v-20.82H310.379z"/>
	<polygon fill="#41135E" points="319.678,113.18 319.678,107.42 328.559,107.42 328.559,98.54 334.377,98.54 334.377,107.42 
		343.318,107.42 343.318,113.18 334.377,113.18 334.377,122.119 328.559,122.119 328.559,113.18 	"/>
</g>
</svg>
