<?xml version="1.0" encoding="utf-8"?>
<!-- Generator: Adobe Illustrator 15.1.0, SVG Export Plug-In . SVG Version: 6.00 Build 0)  -->
<!DOCTYPE svg PUBLIC "-//W3C//DTD SVG 1.1//EN" "http://www.w3.org/Graphics/SVG/1.1/DTD/svg11.dtd">
<svg version="1.1" id="Layer_1" xmlns="http://www.w3.org/2000/svg" xmlns:xlink="http://www.w3.org/1999/xlink" x="0px" y="0px"
	 width="490.272px" height="230.298px" viewBox="0 0 490.272 230.298" enable-background="new 0 0 490.272 230.298"
	 xml:space="preserve">
<rect y="0.298" fill="#BFDCE8" width="490" height="230"/>
<path opacity="0.67" fill="#FFFFFF" d="M490.272,230.272V101.158L389.115,0H273.182L144.096,129.084l-3.607-2.106l-8.684,15.34
	l-7.709,6.766l-77.191,77.192c-1.179,1.178-2.07,2.537-2.713,3.997H490.272z"/>
<rect x="339.76" y="30.531" fill="none" width="64" height="64"/>
<g>
	<g>
		<g>
			<g>
				<path fill="#E1AA09" d="M366.264,52.522c0-16.812-8.9-23.239-19.902-23.239c-11,0-20.766,7.786-20.766,24.229
					c0,17.306,9.148,22.498,19.777,22.498C356.125,76.01,366.264,68.344,366.264,52.522z M345.867,65.995
					c-4.82,0-8.158-3.089-8.158-13.596c0-9.89,3.832-13.227,8.283-13.227c4.82,0,8.281,3.461,8.281,14.339
					C354.273,62.411,350.689,65.995,345.867,65.995z"/>
			</g>
		</g>
		<g>
			<polygon fill="#E1AA09" points="385.176,27.429 352.297,110.869 361.566,114.574 394.447,31.14 			"/>
		</g>
		<g>
			<path fill="#E1AA09" d="M400.998,75.269c4.234,0,7.418,2.674,8.131,10.697c3.504-0.156,7.023-0.206,9.994-0.206
				c0.654,0,1.348,0.004,2.053,0.01c-0.961-14.689-9.449-20.393-19.807-20.393c-11,0-20.766,7.79-20.766,24.231
				c0,9.785,2.926,15.695,7.393,18.984c0.154-4.332,0.455-8.762,1.031-12.215c0.439-2.651,1.799-4.965,3.713-6.672
				c-0.01-0.396-0.023-0.789-0.023-1.21C392.717,78.607,396.549,75.269,400.998,75.269z"/>
		</g>
		<g>
			<g>
				<path fill="#E1AA09" d="M444.701,117.01c0-2.18,0-13.091-1.09-19.638c-0.375-2.265-2.098-3.987-4.365-4.363
					c-6.545-1.092-17.457-1.092-19.637-1.092c-2.182,0-13.094,0-19.639,1.092c-2.266,0.376-3.986,2.099-4.363,4.363
					c-1.092,6.547-1.092,17.458-1.092,19.638c0,2.183,0,13.094,1.092,19.638c0.377,2.264,2.098,3.986,4.363,4.364
					c6.545,1.091,17.457,1.091,19.639,1.091c2.18,0,13.092,0,19.637-1.091c2.268-0.378,3.99-2.101,4.365-4.364
					C444.701,130.104,444.701,123.559,444.701,117.01z"/>
			</g>
		</g>
	</g>
	<path fill="#FFFFFF" d="M421.898,100.305c-0.551-0.702-1.396-1.109-2.289-1.109s-1.738,0.407-2.289,1.109l-12.914,16.356
		c-0.42,0.532-0.629,1.171-0.629,1.809c0,0.676,0.236,1.355,0.707,1.901c0.91,1.061,2.445,1.324,3.656,0.63l5.1-2.908
		c0,0,1.594-5.984,1.732-6.498c0.111-0.41,0.332-0.276,0.332-0.276v20.472c0,2.338,2.021,3.035,4.303,3.035
		c2.283,0,4.305-0.697,4.305-3.035v-14.872l7.164,4.083c1.213,0.694,2.746,0.431,3.658-0.63c0.912-1.059,0.943-2.615,0.076-3.71
		L421.898,100.305z"/>
</g>
<rect x="119.238" y="131.228" fill="#BFDCE8" width="40.75" height="54.734"/>
<polygon opacity="0.67" fill="#FFFFFF" points="100.988,166.728 52.988,166.728 52.988,78.728 100.988,78.728 100.988,125.978 
	88.738,162.478 "/>
<g>
	<path fill="#73BBD8" d="M168.949,91.931h-20.742V64.274V36.618V32.13c0-0.616-0.41-1.159-1.004-1.329L91.891,14.995
		c-0.881-0.251-1.762,0.414-1.762,1.332v47.947h16.594c1.527,0,2.766,1.239,2.766,2.766v66.375h22.125h3.965
		c0.973,0,1.875,0.508,2.371,1.345l15.789,26.312v24.891h16.594V93.313C170.332,92.552,169.715,91.931,168.949,91.931"/>
	<rect x="128.848" y="163.837" opacity="0.65" fill="#FFFFFF" width="16.594" height="13.828"/>
	<path fill="#90CEE0" d="M108.227,139.022l-17.189,22.049c-0.432-0.216-0.686-0.6-0.217-1.534
		c7.943-15.78,13.137-25.893,13.137-25.893V71.188c0-0.762-0.621-1.383-1.383-1.383H47.262c-0.762,0-1.383,0.621-1.383,1.383
		v114.773h44.25h13.828h16.594v-24.891l13.232-22.049H108.227z M84.598,83.634h8.297v8.297h-8.297V83.634z M84.598,97.462h8.297
		v8.297h-8.297V97.462z M84.598,111.29h8.297v8.297h-8.297V111.29z M65.238,147.243h-8.297v-8.297h8.297V147.243z M65.238,133.415
		h-8.297v-8.297h8.297V133.415z M65.238,119.587h-8.297v-8.297h8.297V119.587z M65.238,105.759h-8.297v-8.297h8.297V105.759z
		 M65.238,91.931h-8.297v-8.297h8.297V91.931z M79.066,147.243H70.77v-8.297h8.297V147.243z M79.066,133.415H70.77v-8.297h8.297
		V133.415z M79.066,119.587H70.77v-8.297h8.297V119.587z M79.066,105.759H70.77v-8.297h8.297V105.759z M79.066,91.931H70.77v-8.297
		h8.297V91.931z M84.598,125.118h8.297v8.297h-8.297V125.118z"/>
</g>
<g>
	<path fill="#41135E" d="M248.83,90.052c7.59,0,11.984-5.37,11.984-13.103c0-8.809-4.59-13.531-11.984-13.531
		c-7.789,0-11.986,5.585-11.986,13.531C236.844,85.329,241.24,90.052,248.83,90.052z"/>
	<path fill="#41135E" d="M322.752,138.511c-1.613-8.668-3.611-13.409-4.342-19.435c-1.613-13.335-5.684-19.746-13.262-22.076
		c-3.607-1.111-7.047-1.622-10.963-1.622h-0.139c-3.916,0-7.355,0.511-10.963,1.622c-2.547,0.781-4.688,2.04-6.484,3.854
		c1.818,2.545,3.184,5.561,4.191,8.883c0.135-0.248,0.24-0.439,0.24-0.439c-0.062,0.255-0.1,0.475-0.154,0.717
		c3.561,12.011,2.59,27.828,1.896,39.1c-0.43,6.979-4.123,11.122-8.428,12.866c-0.061,1.419-0.102,2.885-0.102,4.449
		c0,0,3.439,0.675,7.877,0.858l0.561,37.286c0,0,8.561-1.308,9.141-9.686c0,0,0.721-18.749,1.055-28.323
		c0.436-0.067,0.865-0.131,1.309-0.211c0.379-0.067,0.758-0.12,1.139-0.176c0.328,9.352,1.061,28.474,1.061,28.474
		c0.436,8.629,9.168,9.922,9.168,9.922l0.537-38.557c4.051,0.385,7.898,1.044,7.898,1.044c0-20.389-5.406-28.526-7.1-34.916
		c-0.898-3.397-0.711-6.952,0.107-10.354c0.771-3.195,1.758-6.174,0.205-12.494c0,0,0.818,1.434,1.146,2.361
		c1.816,5.166,1.289,15.153,8.619,38.17C320.158,149.422,324.066,145.564,322.752,138.511z"/>
	<path fill="#41135E" d="M278.773,149.104c1.037-16.892,2.984-47.253-13.588-51.716c-9.477-2.553-22.016-2.775-32.713,0
		c-16.613,4.31-14.623,34.824-13.584,51.716c0.471,7.684,5.836,9.862,9.371,9.862c0,0,0-15.756,0-20.791
		c0-9.258,0.139-17.996,2.156-23.365c0.348-0.93,0.895-1.038,1.102-0.789v101.206c7.408,0,13.316-4.074,13.951-12.256
		c0,0,1.939-44.878,1.959-45.418c0.02-0.538,0.527-1.237,1.402-1.237s1.383,0.699,1.404,1.237c0.02,0.54,1.957,45.418,1.957,45.418
		c0.635,8.213,6.6,12.256,13.949,12.256V114.021c0.334-0.291,0.814-0.192,1.104,0.789c1.604,5.452,2.158,14.191,2.158,23.365
		c0,5.035,0,20.791,0,20.791C272.936,158.967,278.301,156.788,278.773,149.104z"/>
	<path fill="#41135E" d="M227.523,66.081c5.904,0,9.32-4.297,9.32-10.481c0-7.046-3.57-10.825-9.32-10.825
		c-6.061,0-9.322,4.465-9.322,10.825C218.201,62.301,221.617,66.081,227.523,66.081z"/>
	<path fill="#41135E" d="M270.137,66.081c5.906,0,9.32-4.297,9.32-10.481c0-7.046-3.57-10.825-9.32-10.825
		c-6.059,0-9.322,4.465-9.322,10.825C260.814,62.301,264.23,66.081,270.137,66.081z"/>
	<path fill="#41135E" d="M292.773,90.052c6.746,0,10.654-4.254,10.654-11.793c0-7.152-3.73-12.178-10.654-12.178
		c-6.572,0-10.652,4.249-10.652,12.178C282.121,85.219,286.025,90.052,292.773,90.052z"/>
	<path fill="#41135E" d="M222.814,98.271c-0.895-0.475-1.838-0.869-2.855-1.149c-8.416-2.303-22.289-2.303-30.389,0
		c-4.027,1.143-7.053,3.955-8.945,7.9c-5.025,10.493-15.826,42.648-15.826,42.648c0.67,0.476,1.826,0.585,3.146,0.422
		c1.008,10.344,5.307,54.524,5.514,56.17c0.191,1.542,5.406,1.033,5.242-0.62c-0.172-1.742-3.207-44.652-4.18-58.454
		c1.025-0.876,1.881-1.933,2.398-3.157c2.115-5.024,4.424-10.734,5.977-15.099c2.006-5.646,3.309-9.729,5.01-13.367
		c0.363-0.777,0.707-1.25,1.078-0.917v91.927c6.279,0,10.895-3.797,11.475-11.275c0,0,1.787-40.9,1.805-41.395
		s0.469-1.141,1.314-1.141c0.85,0,1.246,0.646,1.268,1.141s1.789,41.471,1.789,41.471c0.422,7.217,4.447,11.199,11.566,11.199
		v-46.296c-1.801-2.168-3.033-5.072-3.271-8.888C213.986,134.366,212.318,108.977,222.814,98.271z"/>
	<path fill="#41135E" d="M194.338,76.672c-0.043,0.524-0.107,1.035-0.107,1.587c0,7.539,3.908,11.793,10.654,11.793
		c6.75,0,10.652-4.833,10.652-11.793c0-4.082-0.434-10.469-4.279-11.865c-1.725-0.625-5.129-0.207-8.791,0.713
		c-0.029,0.005-0.055,0.017-0.084,0.021c-6.588,1.673-13.43,4.997-13.463,7.049C188.891,76.1,191.664,76.23,194.338,76.672z"/>
</g>
</svg>
