<?xml version="1.0" encoding="utf-8"?>
<!-- Generator: Adobe Illustrator 15.1.0, SVG Export Plug-In . SVG Version: 6.00 Build 0)  -->
<!DOCTYPE svg PUBLIC "-//W3C//DTD SVG 1.1//EN" "http://www.w3.org/Graphics/SVG/1.1/DTD/svg11.dtd">
<svg version="1.1" id="Layer_1" xmlns="http://www.w3.org/2000/svg" xmlns:xlink="http://www.w3.org/1999/xlink" x="0px" y="0px"
	 width="490px" height="230.664px" viewBox="0 0 490 230.664" enable-background="new 0 0 490 230.664" xml:space="preserve">
<rect x="-0.7" y="1.132" fill="#BFDCE8" width="490" height="230"/>
<path fill="none" stroke="#231F20" stroke-miterlimit="10" d="M253.748,208.356"/>
<path opacity="0.67" fill="#FFFFFF" d="M489.249,230.746V60.608L428.313-0.328H275.885L47.606,227.955
	c-0.851,0.851-1.556,1.793-2.145,2.791H489.249z"/>
<path fill="#41135E" d="M63.256,88.73"/>
<path fill="none" stroke="#231F20" stroke-miterlimit="10" d="M54.013,153.805"/>
<g>
	<g>
		<g>
			<g>
				<path fill="#E1AA09" d="M389.246,56.978c0-16.812-8.9-23.239-19.902-23.239c-11,0-20.766,7.786-20.766,24.229
					c0,17.306,9.148,22.498,19.777,22.498C379.107,80.465,389.246,72.799,389.246,56.978z M368.85,70.45
					c-4.82,0-8.158-3.089-8.158-13.596c0-9.89,3.832-13.227,8.283-13.227c4.82,0,8.281,3.461,8.281,14.339
					C377.256,66.866,373.672,70.45,368.85,70.45z"/>
			</g>
		</g>
		<g>
			<polygon fill="#E1AA09" points="408.158,31.884 375.279,115.324 384.549,119.029 417.43,35.595 			"/>
		</g>
		<g>
			<path fill="#E1AA09" d="M423.98,79.724c4.234,0,7.418,2.674,8.131,10.697c3.504-0.156,7.023-0.206,9.994-0.206
				c0.654,0,1.348,0.004,2.053,0.01c-0.961-14.689-9.449-20.393-19.807-20.393c-11,0-20.766,7.79-20.766,24.231
				c0,9.785,2.926,15.695,7.393,18.984c0.154-4.332,0.455-8.762,1.031-12.215c0.439-2.651,1.799-4.965,3.713-6.672
				c-0.01-0.396-0.023-0.789-0.023-1.21C415.699,83.062,419.531,79.724,423.98,79.724z"/>
		</g>
		<g>
			<g>
				<path fill="#E1AA09" d="M467.684,121.465c0-2.18,0-13.091-1.09-19.638c-0.375-2.265-2.098-3.987-4.365-4.363
					c-6.545-1.092-17.457-1.092-19.637-1.092c-2.182,0-13.094,0-19.639,1.092c-2.266,0.376-3.986,2.099-4.363,4.363
					c-1.092,6.547-1.092,17.458-1.092,19.638c0,2.183,0,13.094,1.092,19.638c0.377,2.264,2.098,3.986,4.363,4.364
					c6.545,1.091,17.457,1.091,19.639,1.091c2.18,0,13.092,0,19.637-1.091c2.268-0.378,3.99-2.101,4.365-4.364
					C467.684,134.559,467.684,128.014,467.684,121.465z"/>
			</g>
		</g>
	</g>
	<path fill="#FFFFFF" d="M444.881,104.76c-0.551-0.702-1.396-1.109-2.289-1.109s-1.738,0.407-2.289,1.109l-12.914,16.356
		c-0.42,0.532-0.629,1.171-0.629,1.809c0,0.676,0.236,1.355,0.707,1.901c0.91,1.061,2.445,1.324,3.656,0.63l5.1-2.908
		c0,0,1.594-5.984,1.732-6.498c0.111-0.41,0.332-0.276,0.332-0.276v20.472c0,2.338,2.021,3.035,4.303,3.035
		c2.283,0,4.305-0.697,4.305-3.035v-14.872l7.164,4.083c1.213,0.694,2.746,0.431,3.658-0.63c0.912-1.059,0.943-2.615,0.076-3.71
		L444.881,104.76z"/>
</g>
<rect x="135.97" y="54.683" fill="#BFDCE8" width="85.15" height="94.969"/>
<path fill="#73BBD8" d="M122.003,46.793L95.6,23.121c-0.83-0.743-2.082-0.743-2.912,0L66.284,46.793c-2.718,0-4.792,0-7.509,0
	L32.371,23.121c-0.83-0.743-2.082-0.743-2.912,0L3.055,46.793H-0.7v82.854h39.246V96.94h13.082v32.706h10.901h39.245V96.94h13.081
	v32.706h10.901V46.793H122.003z M23.283,118.744H10.201V96.94h13.082V118.744z M23.283,81.679H10.201V59.875h13.082V81.679z
	 M51.628,81.679H38.546V59.875h13.082V81.679z M86.513,118.744H73.432V96.94h13.081V118.744z M86.513,81.679H73.432V59.875h13.081
	V81.679z M114.855,81.679h-13.081V59.875h13.081V81.679z"/>
<rect x="185.935" y="73.571" fill="#BFDCE8" width="64.167" height="76.08"/>
<path fill="#90CEE0" d="M247.77,66.805l-26.406-23.672c-0.83-0.743-2.082-0.743-2.912,0l-26.403,23.672c-2.717,0-4.791,0-7.509,0
	l-26.401-23.672c-0.83-0.743-2.082-0.743-2.912,0l-26.402,23.672h-3.755v82.854h39.243v-32.706h13.081v32.706h10.901h39.244v-32.706
	h13.083v32.706h10.9V66.805H247.77z M149.052,138.756H135.97v-21.804h13.082V138.756z M149.052,101.69H135.97V79.887h13.082V101.69z
	 M177.393,101.69h-13.081V79.887h13.081V101.69z M212.276,138.756h-13.081v-21.804h13.081V138.756z M212.276,101.69h-13.081V79.887
	h13.081V101.69z M240.621,101.69h-13.083V79.887h13.083V101.69z"/>
<g>
	<path fill="#538696" d="M143.308,181.021c-3.237,9.631-12.318,16.576-23.039,16.576c-13.43,0-24.317-10.888-24.317-24.319
		c0-6.129,2.283-11.714,6.023-15.99c-1.373-2.347-2.142-5.007-2.142-7.853c0-0.051,0.016-0.775,0.062-1.992
		c-7.634,6.032-12.549,15.351-12.549,25.835c0,18.184,14.74,32.926,32.923,32.926c11.236,0,21.148-5.638,27.085-14.229l-1.444-3.99
		C145.106,185.821,144.23,183.47,143.308,181.021"/>
	<path fill="#538696" d="M153.782,153.17c-1.706-4.052-3.106-5.137-6.175-6.479c-4.583-1.816-13.307-3.721-18.157-4.724
		c1.186-7.376,1.966-14.443,2.542-18.765c0.745-5.562,1.615-8.98-1.187-12.454c-3.685-4.563-11.485-5.184-16.193-2.824
		c-2.27,0.769-13.417,6.948-19.032,12.693c-1.89,2.072-2.549,3.028-3.339,4.727c-2.844,6.137-5.564,17.254-7.167,23.824
		c6.125,1.519,9.305-3.839,10.173-5.617c1.703-3.851,3.689-9.524,5.904-13.107c1.271-2.402,4.379-4.168,6.812-5.588
		c-1.592,8.769-2.262,18.792-2.224,24.581c0.054,7.947,6.866,11.354,13.394,11.354c6.528,0,22.952-0.015,23.13,0
		c2.27,7.236,6.403,18.161,8.613,24.15c4.274,11.603,11.37,10.485,13.669,9.91C162.311,185.705,157.244,161.854,153.782,153.17"/>
	<path fill="#538696" d="M128.225,103.837c6.747,1.083,11.409-3.04,12.497-9.883c1.24-7.798-2.177-12.634-8.752-13.693
		c-6.922-1.113-11.438,3.231-12.557,10.268C118.234,97.938,121.476,102.747,128.225,103.837"/>
</g>
<g>
	<path fill="#41135E" d="M285.484,57.222c1.188-0.104,2.156-0.534,2.91-1.197c1.176,4.467,4.557,7.52,9.941,8.704
		c8.24,1.809,14.273-2.916,16.102-11.225c2.078-9.461-1.789-15.631-9.812-17.395c-8.455-1.856-14.328,3.145-16.203,11.685
		c-0.381,1.742-0.49,3.336-0.461,4.855c-0.348,0.244-0.914,0.082-1.309-1.144c-0.398-1.244-0.797-3.569-0.201-7.003
		c-0.641-0.198-1.342-0.272-2.107-0.203c-3.42,0.299-5.027,3.173-4.684,7.029C280.02,55.392,282.15,57.516,285.484,57.222"/>
	<path fill="#41135E" d="M312.834,182.803c-4.621,0-8.363,3.741-8.363,8.36s3.742,8.36,8.363,8.36c4.617,0,8.361-3.741,8.361-8.36
		S317.451,182.803,312.834,182.803"/>
	<path fill="#41135E" d="M346.277,182.803c-4.617,0-8.361,3.741-8.361,8.36s3.744,8.36,8.361,8.36c4.619,0,8.361-3.741,8.361-8.36
		S350.896,182.803,346.277,182.803"/>
	<path fill="#41135E" d="M355.381,171.871c-0.926-0.179-1.842-0.188-3.432-0.209c-0.031,0-0.064-0.009-0.098-0.009h-6.879
		c-1.238,0-1.664-0.557-1.875-1.085l-12.279-47.2c-0.035-0.137-0.078-0.272-0.127-0.406c-1.693-4.545-5.428-7.05-10.518-7.05h-6.957
		c-3.965-6.876-4.662-8.186-5.879-10.8c-0.82-1.795-0.908-1.839-1.533-4.868c-1.162-5.778-1.682-14.466-2.4-20.896
		c-0.914-8.158-14.32-15.58-23.32-12.73c-12.555,3.976-22.605,29.346-26.15,37.38c-1.42,3.266-2.054,6.328-2.273,9.112
		l-5.684,48.706c4.254,1.73,9.477,1.494,15.514,0.87c0.016,0.017,0.035,0.042,0.055,0.056c0.359,0.334,0.125,1.284-0.666,1.771
		c-0.758,0.465-4.223,1.698-8.783,2.356c0.037,6.658,0.086,13.092,0.221,18.402c0.26,10.473,8.439,13.506,10.852,14.187
		c0.096-1.247,1.539-26.32,2.299-37.203c3.154-0.354,6.502-0.705,10.029-0.896c1.416,6.465,5.168,23.557,5.857,26.829
		c1.691,8.04,7.576,11.907,14.141,11.337c0,0-2.5-24.931-3.76-37.325c1.432,0.256,2.883,0.557,4.357,0.938
		c0,0-2.252-25.014-10.846-43.042c2.803-6.452,5.922-13.631,8.764-20.179c0.174,0.925,0.332,1.835,0.551,2.793
		c1.215,4.789,2.072,7.277,6.488,13.119c6.199,8.199,10.867,14.054,15.934,8.447h3.191c1.805,0,2.279,0.606,2.613,1.426
		l4.961,19.077l-12.107,30.228c-0.861,2.142,0.447,3.826,2.59,4.685c2.143,0.859,4.314,0.565,5.17-1.577l7.895-19.705l3.762,14.461
		c0.029,0.101,0.059,0.204,0.094,0.307c1.457,4.223,5.219,6.841,9.822,6.841h5.529c3.354,0,5.639-1.473,6.578-3.792
		C357.736,174.615,357.607,172.305,355.381,171.871"/>
</g>
</svg>
