<?xml version="1.0" encoding="utf-8"?>
<!-- Generator: Adobe Illustrator 15.1.0, SVG Export Plug-In . SVG Version: 6.00 Build 0)  -->
<!DOCTYPE svg PUBLIC "-//W3C//DTD SVG 1.1//EN" "http://www.w3.org/Graphics/SVG/1.1/DTD/svg11.dtd">
<svg version="1.1" id="Layer_1" xmlns="http://www.w3.org/2000/svg" xmlns:xlink="http://www.w3.org/1999/xlink" x="0px" y="0px"
	 width="490px" height="231.11px" viewBox="0 0 490 231.11" enable-background="new 0 0 490 231.11" xml:space="preserve">
<rect y="0.495" fill="#BFDCE8" width="490" height="230"/>
<path opacity="0.67" fill="#FFFFFF" d="M270.615,0L45.306,227.318c-1.131,1.131-2.029,2.412-2.699,3.792h447.152V62.784L428.977,0
	H270.615z"/>
<path fill="#41135E" d="M63.956,88.094"/>
<path fill="none" stroke="#231F20" stroke-miterlimit="10" d="M254.448,207.72"/>
<path fill="none" stroke="#231F20" stroke-miterlimit="10" d="M54.713,153.168"/>
<g>
	<g>
		<path fill="#04BA1A" d="M251.843,81.036L205.88,37.542c-0.743-0.693-1.887-0.693-2.63,0l-45.964,43.494
			c-0.8,0.746-1.255,1.793-1.255,2.886v2.908c0,1.087,0.87,1.963,1.94,1.963h7.767v40.445h77.653V88.793h7.767
			c1.07,0,1.94-0.876,1.94-1.963v-2.908C253.099,82.829,252.642,81.782,251.843,81.036z M214.413,77.462"/>
	</g>
</g>
<path fill="#1F4F03" d="M192.088,98.778c-1.443-0.327-3.174-0.604-4.783-0.789c-0.718-1.473-1.366-2.798-2.033-4.165
	c-0.109-0.227-0.303-0.342-0.526-0.342c-0.225,0-0.417,0.115-0.527,0.342c-0.666,1.367-1.315,2.692-2.033,4.165
	c-1.609,0.185-3.34,0.462-4.783,0.789c-0.489,0.117-0.668,0.779-0.339,1.145c0.989,1.094,2.172,2.342,3.366,3.543
	c-0.358,1.688-0.702,3.296-1.015,4.756c-0.079,0.494,0.489,0.846,0.965,0.623c1.439-0.646,3.002-1.374,4.366-2.277
	c1.364,0.903,2.926,1.631,4.365,2.277c0.476,0.223,1.045-0.129,0.964-0.623c-0.312-1.46-0.656-3.068-1.015-4.756
	c1.195-1.201,2.377-2.449,3.367-3.543C192.756,99.558,192.578,98.896,192.088,98.778z"/>
<path fill="#1F4F03" d="M213.036,98.778c-1.443-0.327-3.174-0.604-4.783-0.789c-0.719-1.473-1.367-2.798-2.033-4.165
	c-0.109-0.227-0.303-0.342-0.527-0.342c-0.224,0-0.416,0.115-0.527,0.342c-0.666,1.367-1.314,2.692-2.032,4.165
	c-1.609,0.185-3.341,0.462-4.783,0.789c-0.49,0.117-0.669,0.779-0.339,1.145c0.989,1.094,2.172,2.342,3.366,3.543
	c-0.358,1.688-0.702,3.296-1.015,4.756c-0.08,0.494,0.488,0.846,0.965,0.623c1.439-0.646,3.002-1.374,4.365-2.277
	c1.364,0.903,2.928,1.631,4.367,2.277c0.475,0.223,1.044-0.129,0.963-0.623c-0.312-1.46-0.656-3.068-1.014-4.756
	c1.194-1.201,2.376-2.449,3.366-3.543C213.704,99.558,213.526,98.896,213.036,98.778z"/>
<path fill="#1F4F03" d="M234.042,98.778c-1.443-0.327-3.174-0.604-4.783-0.789c-0.718-1.473-1.366-2.798-2.033-4.165
	c-0.109-0.227-0.303-0.342-0.526-0.342c-0.225,0-0.418,0.115-0.528,0.342c-0.666,1.367-1.314,2.692-2.032,4.165
	c-1.609,0.185-3.34,0.462-4.783,0.789c-0.489,0.117-0.668,0.778-0.338,1.145c0.988,1.094,2.171,2.342,3.365,3.543
	c-0.359,1.687-0.702,3.296-1.015,4.756c-0.08,0.494,0.488,0.846,0.965,0.623c1.439-0.646,3.002-1.374,4.366-2.277
	c1.363,0.903,2.926,1.631,4.365,2.277c0.476,0.223,1.044-0.129,0.964-0.623c-0.312-1.46-0.656-3.069-1.015-4.756
	c1.195-1.201,2.377-2.449,3.367-3.543C234.71,99.557,234.532,98.896,234.042,98.778z"/>
<g>
	<g>
		<path fill="#04BA1A" d="M136.848,54.036L90.885,10.542c-0.743-0.693-1.887-0.693-2.63,0L42.29,54.036
			c-0.801,0.746-1.255,1.793-1.255,2.886v2.908c0,1.087,0.87,1.963,1.94,1.963h7.767v40.445h77.654V61.793h7.766
			c1.07,0,1.94-0.876,1.94-1.963v-2.908C138.103,55.829,137.646,54.782,136.848,54.036z M99.418,50.462"/>
	</g>
</g>
<path fill="#1F4F03" d="M77.094,71.778c-1.443-0.327-3.175-0.604-4.783-0.789c-0.719-1.473-1.366-2.798-2.034-4.165
	c-0.109-0.227-0.303-0.342-0.526-0.342s-0.417,0.115-0.527,0.342c-0.666,1.367-1.315,2.692-2.032,4.165
	c-1.609,0.185-3.341,0.462-4.783,0.789c-0.49,0.117-0.669,0.779-0.34,1.145c0.99,1.094,2.172,2.342,3.367,3.543
	c-0.359,1.688-0.703,3.296-1.016,4.756c-0.079,0.494,0.489,0.846,0.965,0.623c1.439-0.646,3.002-1.374,4.366-2.277
	c1.364,0.903,2.927,1.631,4.366,2.277c0.475,0.223,1.045-0.129,0.964-0.623c-0.312-1.46-0.656-3.068-1.015-4.756
	c1.195-1.201,2.377-2.449,3.367-3.543C77.762,72.558,77.583,71.896,77.094,71.778z"/>
<path fill="#1F4F03" d="M98.041,71.778c-1.443-0.327-3.174-0.604-4.783-0.789c-0.719-1.473-1.367-2.798-2.033-4.165
	c-0.109-0.227-0.303-0.342-0.527-0.342c-0.224,0-0.416,0.115-0.527,0.342c-0.666,1.367-1.314,2.692-2.032,4.165
	c-1.608,0.185-3.34,0.462-4.782,0.789c-0.49,0.117-0.669,0.779-0.339,1.145c0.989,1.094,2.172,2.342,3.366,3.543
	c-0.358,1.688-0.702,3.296-1.015,4.756c-0.08,0.494,0.488,0.846,0.965,0.623c1.438-0.646,3.001-1.374,4.364-2.277
	c1.364,0.903,2.928,1.631,4.367,2.277c0.475,0.223,1.044-0.129,0.963-0.623c-0.312-1.46-0.656-3.068-1.014-4.756
	c1.195-1.201,2.377-2.449,3.366-3.543C98.709,72.558,98.531,71.896,98.041,71.778z"/>
<path fill="#1F4F03" d="M119.047,71.778c-1.442-0.327-3.174-0.604-4.783-0.789c-0.718-1.473-1.366-2.798-2.033-4.165
	c-0.11-0.227-0.303-0.342-0.526-0.342c-0.225,0-0.418,0.115-0.528,0.342c-0.666,1.367-1.315,2.692-2.032,4.165
	c-1.609,0.185-3.339,0.462-4.782,0.789c-0.49,0.117-0.668,0.778-0.339,1.145c0.989,1.094,2.171,2.342,3.365,3.543
	c-0.359,1.687-0.701,3.296-1.014,4.756c-0.08,0.494,0.488,0.846,0.963,0.623c1.439-0.646,3.002-1.374,4.367-2.277
	c1.363,0.903,2.926,1.631,4.365,2.277c0.476,0.223,1.045-0.129,0.964-0.623c-0.312-1.46-0.656-3.069-1.015-4.756
	c1.195-1.201,2.377-2.449,3.367-3.543C119.716,72.557,119.537,71.896,119.047,71.778z"/>
<g>
	<g>
		<path fill="#009F18" d="M204.366,150.663L140.884,90.59c-1.026-0.957-2.606-0.957-3.632,0l-63.483,60.073
			c-1.105,1.029-1.733,2.476-1.733,3.985v4.017c0,1.501,1.201,2.711,2.681,2.711h10.727v55.862h107.251v-55.862h10.727
			c1.479,0,2.68-1.21,2.68-2.711v-4.017C206.1,153.139,205.469,151.692,204.366,150.663z M152.669,145.727"/>
	</g>
</g>
<path fill="#1F4F03" d="M121.836,175.167c-1.993-0.451-4.384-0.834-6.606-1.09c-0.992-2.033-1.888-3.863-2.809-5.752
	c-0.151-0.312-0.418-0.473-0.728-0.473s-0.576,0.16-0.729,0.473c-0.92,1.889-1.816,3.719-2.808,5.752
	c-2.222,0.256-4.612,0.639-6.605,1.09c-0.677,0.162-0.923,1.076-0.468,1.582c1.366,1.51,2.999,3.234,4.649,4.893
	c-0.496,2.33-0.97,4.553-1.401,6.568c-0.11,0.684,0.675,1.168,1.332,0.861c1.987-0.893,4.146-1.898,6.029-3.146
	c1.884,1.248,4.042,2.254,6.03,3.146c0.656,0.307,1.442-0.178,1.331-0.861c-0.431-2.016-0.906-4.238-1.401-6.568
	c1.651-1.658,3.283-3.383,4.65-4.893C122.759,176.243,122.513,175.329,121.836,175.167z"/>
<path fill="#1F4F03" d="M150.768,175.167c-1.993-0.451-4.383-0.834-6.605-1.09c-0.992-2.033-1.888-3.863-2.809-5.752
	c-0.151-0.312-0.418-0.473-0.728-0.473s-0.576,0.16-0.729,0.473c-0.92,1.889-1.816,3.719-2.808,5.752
	c-2.223,0.256-4.613,0.639-6.606,1.09c-0.677,0.162-0.923,1.076-0.468,1.582c1.366,1.51,2.999,3.234,4.649,4.893
	c-0.496,2.33-0.97,4.553-1.401,6.568c-0.11,0.684,0.675,1.168,1.332,0.861c1.988-0.893,4.146-1.898,6.03-3.146
	c1.884,1.248,4.042,2.254,6.03,3.146c0.655,0.307,1.441-0.178,1.33-0.861c-0.431-2.016-0.906-4.238-1.4-6.568
	c1.65-1.658,3.282-3.383,4.649-4.893C151.69,176.243,151.444,175.329,150.768,175.167z"/>
<path fill="#1F4F03" d="M179.78,175.167c-1.993-0.451-4.384-0.834-6.606-1.09c-0.992-2.034-1.888-3.864-2.809-5.752
	c-0.151-0.313-0.418-0.473-0.728-0.473s-0.576,0.159-0.729,0.473c-0.92,1.888-1.816,3.718-2.807,5.752
	c-2.223,0.256-4.613,0.639-6.606,1.09c-0.677,0.162-0.923,1.075-0.468,1.582c1.366,1.51,2.999,3.234,4.649,4.893
	c-0.496,2.329-0.97,4.553-1.401,6.568c-0.11,0.683,0.675,1.168,1.332,0.861c1.988-0.893,4.146-1.898,6.029-3.146
	c1.884,1.248,4.042,2.254,6.03,3.146c0.656,0.307,1.442-0.179,1.331-0.861c-0.431-2.016-0.906-4.239-1.401-6.568
	c1.651-1.658,3.283-3.383,4.65-4.893C180.703,176.242,180.457,175.329,179.78,175.167z"/>
<g>
	<g>
		<g>
			<g>
				<path fill="#E1AA09" d="M386.999,53.498c0-16.812-8.9-23.239-19.902-23.239c-11,0-20.768,7.786-20.768,24.229
					c0,17.306,9.148,22.498,19.779,22.498C376.86,76.985,386.999,69.319,386.999,53.498z M366.601,66.971
					c-4.82,0-8.156-3.089-8.156-13.596c0-9.89,3.83-13.227,8.281-13.227c4.822,0,8.281,3.461,8.281,14.339
					C375.007,63.387,371.425,66.971,366.601,66.971z"/>
			</g>
		</g>
		<g>
			<polygon fill="#E1AA09" points="405.911,28.404 373.03,111.845 382.3,115.55 415.183,32.115 			"/>
		</g>
		<g>
			<path fill="#E1AA09" d="M421.733,76.244c4.234,0,7.418,2.674,8.131,10.697c3.502-0.156,7.021-0.206,9.992-0.206
				c0.656,0,1.35,0.004,2.053,0.01c-0.961-14.689-9.449-20.393-19.805-20.393c-11.002,0-20.768,7.79-20.768,24.231
				c0,9.785,2.928,15.695,7.393,18.984c0.156-4.332,0.457-8.762,1.031-12.215c0.441-2.651,1.799-4.965,3.715-6.672
				c-0.01-0.396-0.023-0.789-0.023-1.21C413.452,79.583,417.284,76.244,421.733,76.244z"/>
		</g>
		<g>
			<g>
				<path fill="#E1AA09" d="M465.437,117.985c0-2.18,0-13.091-1.09-19.638c-0.377-2.265-2.1-3.987-4.365-4.363
					c-6.545-1.092-17.457-1.092-19.637-1.092c-2.182,0-13.094,0-19.639,1.092c-2.268,0.376-3.988,2.099-4.363,4.363
					c-1.092,6.547-1.092,17.458-1.092,19.638c0,2.183,0,13.094,1.092,19.638c0.375,2.264,2.096,3.986,4.363,4.364
					c6.545,1.091,17.457,1.091,19.639,1.091c2.18,0,13.092,0,19.637-1.091c2.266-0.378,3.988-2.101,4.365-4.364
					C465.437,131.079,465.437,124.534,465.437,117.985z"/>
			</g>
		</g>
	</g>
	<path fill="#FFFFFF" d="M442.632,101.28c-0.551-0.702-1.395-1.109-2.287-1.109s-1.738,0.407-2.291,1.109l-12.912,16.356
		c-0.42,0.532-0.629,1.171-0.629,1.809c0,0.676,0.236,1.355,0.707,1.901c0.91,1.061,2.443,1.324,3.656,0.63l5.1-2.908
		c0,0,1.594-5.984,1.732-6.498c0.109-0.41,0.33-0.276,0.33-0.276v20.472c0,2.338,2.021,3.035,4.305,3.035s4.303-0.697,4.303-3.035
		v-14.872l7.166,4.083c1.211,0.694,2.746,0.431,3.656-0.63c0.912-1.059,0.943-2.615,0.078-3.71L442.632,101.28z"/>
</g>
<g>
	<g>
		<path fill="#04BA1A" d="M327.103,50.968l-36.496-34.533c-0.59-0.551-1.496-0.551-2.088,0l-36.494,34.533
			c-0.637,0.592-0.996,1.424-0.996,2.291v2.309c0,0.863,0.69,1.559,1.54,1.559h6.167v32.112h61.656V57.126h6.166
			c0.85,0,1.541-0.695,1.541-1.559v-2.309C328.099,52.392,327.735,51.56,327.103,50.968z M297.382,48.13"/>
	</g>
</g>
<path fill="#1F4F03" d="M279.657,65.054c-1.146-0.26-2.521-0.479-3.799-0.626c-0.57-1.169-1.084-2.222-1.613-3.307
	c-0.088-0.181-0.24-0.271-0.418-0.271s-0.332,0.091-0.42,0.271c-0.529,1.085-1.045,2.138-1.613,3.307
	c-1.277,0.146-2.652,0.366-3.797,0.626c-0.391,0.094-0.531,0.619-0.27,0.909c0.785,0.868,1.723,1.859,2.672,2.813
	c-0.285,1.34-0.557,2.616-0.807,3.775c-0.062,0.393,0.389,0.672,0.768,0.495c1.143-0.514,2.383-1.091,3.467-1.809
	c1.082,0.718,2.322,1.295,3.467,1.809c0.375,0.177,0.828-0.103,0.764-0.495c-0.246-1.159-0.52-2.436-0.805-3.775
	c0.949-0.954,1.887-1.945,2.674-2.813C280.187,65.673,280.046,65.147,279.657,65.054z"/>
<path fill="#1F4F03" d="M296.29,65.054c-1.146-0.26-2.521-0.479-3.799-0.626c-0.57-1.169-1.086-2.222-1.613-3.307
	c-0.088-0.181-0.24-0.271-0.42-0.271c-0.178,0-0.33,0.091-0.418,0.271c-0.529,1.085-1.043,2.138-1.613,3.307
	c-1.277,0.146-2.652,0.366-3.799,0.626c-0.389,0.094-0.531,0.619-0.268,0.909c0.785,0.868,1.723,1.859,2.672,2.813
	c-0.285,1.34-0.557,2.616-0.805,3.775c-0.064,0.393,0.387,0.672,0.766,0.495c1.143-0.514,2.383-1.091,3.465-1.809
	c1.084,0.718,2.324,1.295,3.469,1.809c0.375,0.177,0.828-0.103,0.764-0.495c-0.248-1.159-0.521-2.436-0.805-3.775
	c0.949-0.954,1.887-1.945,2.672-2.813C296.819,65.673,296.679,65.147,296.29,65.054z"/>
<path fill="#1F4F03" d="M312.968,65.054c-1.145-0.26-2.52-0.479-3.797-0.626c-0.57-1.169-1.086-2.222-1.615-3.307
	c-0.088-0.181-0.24-0.271-0.418-0.271s-0.332,0.091-0.42,0.271c-0.527,1.085-1.043,2.138-1.613,3.307
	c-1.277,0.146-2.65,0.366-3.797,0.626c-0.389,0.094-0.531,0.618-0.27,0.909c0.785,0.868,1.725,1.859,2.672,2.813
	c-0.285,1.339-0.557,2.616-0.805,3.775c-0.064,0.393,0.387,0.672,0.766,0.495c1.143-0.514,2.383-1.091,3.467-1.809
	c1.082,0.718,2.322,1.295,3.467,1.809c0.377,0.177,0.828-0.103,0.764-0.495c-0.246-1.159-0.52-2.437-0.805-3.775
	c0.949-0.954,1.887-1.945,2.674-2.813C313.499,65.672,313.356,65.147,312.968,65.054z"/>
<g>
	<g>
		<path fill="#009F18" d="M388.364,163.667l-63.484-60.073c-1.027-0.957-2.607-0.957-3.633,0l-63.486,60.073
			c-1.105,1.029-1.732,2.476-1.732,3.985v4.017c0,1.501,1.201,2.711,2.68,2.711h10.727v55.862h107.258V174.38h10.727
			c1.479,0,2.68-1.21,2.68-2.711v-4.017C390.099,166.143,389.468,164.696,388.364,163.667z M336.665,158.73"/>
	</g>
</g>
<path fill="#1F4F03" d="M305.831,188.171c-1.994-0.451-4.385-0.834-6.607-1.09c-0.992-2.033-1.887-3.863-2.809-5.752
	c-0.15-0.312-0.418-0.473-0.727-0.473c-0.311,0-0.576,0.16-0.729,0.473c-0.92,1.889-1.816,3.719-2.809,5.752
	c-2.223,0.256-4.613,0.639-6.605,1.09c-0.678,0.162-0.924,1.076-0.469,1.582c1.367,1.51,3,3.234,4.65,4.893
	c-0.496,2.33-0.971,4.553-1.402,6.568c-0.109,0.684,0.676,1.168,1.332,0.861c1.988-0.893,4.146-1.898,6.031-3.146
	c1.883,1.248,4.041,2.254,6.029,3.146c0.656,0.307,1.443-0.178,1.332-0.861c-0.432-2.016-0.906-4.238-1.402-6.568
	c1.652-1.658,3.283-3.383,4.65-4.893C306.753,189.247,306.507,188.333,305.831,188.171z"/>
<path fill="#1F4F03" d="M334.765,188.171c-1.994-0.451-4.385-0.834-6.607-1.09c-0.992-2.033-1.887-3.863-2.809-5.752
	c-0.15-0.312-0.418-0.473-0.727-0.473c-0.311,0-0.576,0.16-0.729,0.473c-0.92,1.889-1.816,3.719-2.809,5.752
	c-2.223,0.256-4.613,0.639-6.605,1.09c-0.678,0.162-0.924,1.076-0.469,1.582c1.367,1.51,3,3.234,4.65,4.893
	c-0.496,2.33-0.971,4.553-1.402,6.568c-0.109,0.684,0.676,1.168,1.332,0.861c1.988-0.893,4.146-1.898,6.031-3.146
	c1.883,1.248,4.041,2.254,6.029,3.146c0.656,0.307,1.443-0.178,1.332-0.861c-0.432-2.016-0.906-4.238-1.402-6.568
	c1.652-1.658,3.283-3.383,4.65-4.893C335.687,189.247,335.44,188.333,334.765,188.171z"/>
<path fill="#1F4F03" d="M363.778,188.171c-1.994-0.451-4.385-0.834-6.607-1.09c-0.992-2.034-1.887-3.864-2.809-5.752
	c-0.15-0.313-0.418-0.473-0.727-0.473c-0.311,0-0.576,0.159-0.729,0.473c-0.92,1.888-1.816,3.718-2.809,5.752
	c-2.223,0.256-4.613,0.639-6.605,1.09c-0.678,0.162-0.924,1.075-0.469,1.582c1.367,1.51,3,3.234,4.65,4.893
	c-0.496,2.329-0.971,4.553-1.402,6.568c-0.109,0.683,0.676,1.168,1.332,0.861c1.988-0.893,4.146-1.898,6.031-3.146
	c1.883,1.248,4.041,2.254,6.029,3.146c0.656,0.307,1.443-0.179,1.332-0.861c-0.432-2.016-0.906-4.239-1.402-6.568
	c1.652-1.658,3.283-3.383,4.65-4.893C364.7,189.246,364.454,188.333,363.778,188.171z"/>
</svg>
