<?xml version="1.0" encoding="utf-8"?>
<!-- Generator: Adobe Illustrator 15.1.0, SVG Export Plug-In . SVG Version: 6.00 Build 0)  -->
<!DOCTYPE svg PUBLIC "-//W3C//DTD SVG 1.1//EN" "http://www.w3.org/Graphics/SVG/1.1/DTD/svg11.dtd">
<svg version="1.1" id="Layer_1" xmlns="http://www.w3.org/2000/svg" xmlns:xlink="http://www.w3.org/1999/xlink" x="0px" y="0px"
	 width="490.759px" height="230.002px" viewBox="0 0 490.759 230.002" enable-background="new 0 0 490.759 230.002"
	 xml:space="preserve">
<g>
	<polyline fill="#BFDCE8" points="490,230 0,230 0,0 490,0 490,230 	"/>
	<polyline fill="#FFFFFF" points="490,171.529 490,230 27.13,230 27.127,230.002 490.759,230.002 490.759,172.287 490,171.529 	"/>
	<path fill="#EAF3F7" d="M318.314,0.013h-61.203L27.127,230.002L490,230v-58.471L319.203,0.73
		C318.96,0.487,318.658,0.248,318.314,0.013"/>
	<path fill="#45DF00" d="M242.758,72.435l-48.923-46.293c-0.789-0.738-2.008-0.738-2.798,0l-48.922,46.293
		c-0.852,0.794-1.335,1.908-1.335,3.071v3.095c0,1.157,0.925,2.09,2.064,2.09h8.266v43.048h82.651V80.69h8.267
		c1.14,0,2.064-0.933,2.064-2.09v-3.095C244.093,74.343,243.606,73.229,242.758,72.435z"/>
	<path fill="#42B704" d="M188.894,88.292c-1.956-0.443-4.301-0.818-6.479-1.069c-0.975-1.994-1.852-3.789-2.755-5.642
		c-0.148-0.308-0.411-0.464-0.715-0.464c-0.303,0-0.563,0.156-0.714,0.464c-0.902,1.853-1.781,3.647-2.754,5.642
		c-2.18,0.251-4.525,0.626-6.479,1.069c-0.664,0.159-0.905,1.056-0.459,1.55c1.34,1.482,2.94,3.174,4.561,4.8
		c-0.487,2.287-0.951,4.466-1.376,6.443c-0.107,0.671,0.662,1.146,1.308,0.846c1.95-0.877,4.067-1.863,5.914-3.086
		c1.849,1.223,3.965,2.209,5.916,3.086c0.644,0.301,1.414-0.175,1.306-0.846c-0.424-1.978-0.889-4.156-1.376-6.443
		c1.62-1.626,3.222-3.317,4.562-4.8C189.798,89.348,189.558,88.451,188.894,88.292z"/>
	<path fill="#42B704" d="M217.272,88.292c-1.953-0.443-4.3-0.818-6.479-1.069c-0.973-1.994-1.852-3.789-2.754-5.642
		c-0.149-0.308-0.411-0.464-0.714-0.464c-0.304,0-0.565,0.156-0.715,0.464c-0.902,1.853-1.781,3.647-2.753,5.642
		c-2.181,0.251-4.525,0.626-6.48,1.069c-0.664,0.159-0.905,1.056-0.46,1.55c1.341,1.482,2.942,3.174,4.562,4.8
		c-0.487,2.287-0.951,4.466-1.376,6.443c-0.106,0.671,0.664,1.146,1.307,0.846c1.951-0.877,4.068-1.863,5.916-3.086
		c1.847,1.223,3.965,2.209,5.915,3.086c0.644,0.301,1.414-0.175,1.306-0.846c-0.422-1.978-0.889-4.156-1.374-6.443
		c1.619-1.626,3.22-3.317,4.56-4.8C218.179,89.348,217.938,88.451,217.272,88.292z"/>
	<path fill="#009F18" d="M204.366,150.168l-63.482-60.073c-1.026-0.957-2.606-0.957-3.632,0l-63.483,60.073
		c-1.105,1.029-1.733,2.476-1.733,3.985v4.017c0,1.501,1.201,2.711,2.681,2.711h10.726v55.862h107.252v-55.862h10.727
		c1.479,0,2.68-1.21,2.68-2.711v-4.017C206.1,152.644,205.469,151.197,204.366,150.168z"/>
	<path fill="#1F4F03" d="M121.836,174.672c-1.993-0.451-4.384-0.834-6.606-1.09c-0.992-2.033-1.888-3.863-2.809-5.752
		c-0.151-0.312-0.418-0.473-0.728-0.473s-0.576,0.16-0.729,0.473c-0.92,1.889-1.816,3.719-2.808,5.752
		c-2.223,0.256-4.612,0.639-6.605,1.09c-0.677,0.162-0.923,1.076-0.468,1.582c1.366,1.51,2.998,3.234,4.648,4.893
		c-0.496,2.33-0.97,4.553-1.401,6.568c-0.11,0.684,0.675,1.168,1.332,0.861c1.988-0.893,4.146-1.898,6.03-3.146
		c1.884,1.248,4.042,2.254,6.03,3.146c0.656,0.307,1.442-0.178,1.331-0.861c-0.431-2.016-0.906-4.238-1.401-6.568
		c1.651-1.658,3.283-3.383,4.65-4.893C122.759,175.748,122.513,174.834,121.836,174.672z"/>
	<path fill="#1F4F03" d="M150.768,174.672c-1.993-0.451-4.384-0.834-6.606-1.09c-0.991-2.033-1.887-3.863-2.808-5.752
		c-0.151-0.312-0.418-0.473-0.728-0.473s-0.576,0.16-0.729,0.473c-0.92,1.889-1.816,3.719-2.808,5.752
		c-2.223,0.256-4.613,0.639-6.606,1.09c-0.677,0.162-0.923,1.076-0.468,1.582c1.366,1.51,2.999,3.234,4.649,4.893
		c-0.496,2.33-0.97,4.553-1.401,6.568c-0.11,0.684,0.675,1.168,1.332,0.861c1.988-0.893,4.146-1.898,6.03-3.146
		c1.884,1.248,4.041,2.254,6.029,3.146c0.656,0.307,1.442-0.178,1.331-0.861c-0.431-2.016-0.906-4.238-1.401-6.568
		c1.651-1.658,3.283-3.383,4.65-4.893C151.69,175.748,151.444,174.834,150.768,174.672z"/>
	<path fill="#1F4F03" d="M179.78,174.672c-1.993-0.451-4.384-0.834-6.606-1.09c-0.992-2.034-1.888-3.864-2.809-5.752
		c-0.151-0.313-0.418-0.473-0.728-0.473s-0.576,0.159-0.729,0.473c-0.92,1.888-1.816,3.718-2.808,5.752
		c-2.222,0.256-4.612,0.639-6.605,1.09c-0.677,0.162-0.923,1.075-0.468,1.582c1.366,1.51,2.999,3.234,4.649,4.893
		c-0.496,2.329-0.97,4.553-1.401,6.568c-0.11,0.683,0.675,1.168,1.332,0.861c1.987-0.893,4.146-1.898,6.029-3.146
		c1.884,1.248,4.042,2.254,6.03,3.146c0.656,0.307,1.442-0.179,1.331-0.861c-0.431-2.016-0.906-4.239-1.401-6.568
		c1.651-1.658,3.283-3.383,4.65-4.893C180.703,175.747,180.457,174.834,179.78,174.672z"/>
	<path fill="#04BA1A" d="M327.102,50.473l-36.496-34.533c-0.59-0.551-1.496-0.551-2.088,0l-36.494,34.533
		c-0.635,0.592-0.996,1.424-0.996,2.291v2.309c0,0.863,0.691,1.559,1.541,1.559h6.166v32.112h61.656V56.631h6.166
		c0.85,0,1.541-0.695,1.541-1.559v-2.309C328.098,51.896,327.734,51.064,327.102,50.473z"/>
	<path fill="#1F4F03" d="M279.656,64.559c-1.146-0.26-2.521-0.479-3.799-0.626c-0.57-1.169-1.084-2.222-1.613-3.307
		c-0.088-0.181-0.24-0.271-0.418-0.271s-0.332,0.091-0.42,0.271c-0.529,1.085-1.045,2.138-1.613,3.307
		c-1.277,0.146-2.652,0.366-3.797,0.626c-0.391,0.094-0.531,0.619-0.27,0.909c0.785,0.868,1.723,1.859,2.672,2.813
		c-0.285,1.34-0.557,2.616-0.807,3.775c-0.062,0.393,0.389,0.672,0.768,0.495c1.143-0.514,2.383-1.091,3.467-1.809
		c1.082,0.718,2.322,1.295,3.467,1.809c0.375,0.177,0.828-0.103,0.764-0.495c-0.246-1.159-0.52-2.436-0.805-3.775
		c0.949-0.954,1.887-1.945,2.674-2.813C280.186,65.178,280.045,64.652,279.656,64.559z"/>
	<path fill="#1F4F03" d="M296.289,64.559c-1.146-0.26-2.521-0.479-3.799-0.626c-0.57-1.169-1.086-2.222-1.613-3.307
		c-0.088-0.181-0.24-0.271-0.42-0.271c-0.178,0-0.33,0.091-0.418,0.271c-0.529,1.085-1.043,2.138-1.613,3.307
		c-1.277,0.146-2.652,0.366-3.799,0.626c-0.389,0.094-0.531,0.619-0.268,0.909c0.785,0.868,1.723,1.859,2.672,2.813
		c-0.285,1.34-0.557,2.616-0.805,3.775c-0.064,0.393,0.387,0.672,0.766,0.495c1.143-0.514,2.383-1.091,3.465-1.809
		c1.084,0.718,2.324,1.295,3.469,1.809c0.375,0.177,0.828-0.103,0.764-0.495c-0.248-1.159-0.521-2.436-0.805-3.775
		c0.949-0.954,1.887-1.945,2.672-2.813C296.818,65.178,296.678,64.652,296.289,64.559z"/>
	<path fill="#1F4F03" d="M312.967,64.559c-1.145-0.26-2.52-0.479-3.797-0.626c-0.57-1.169-1.086-2.222-1.615-3.307
		c-0.088-0.181-0.24-0.271-0.418-0.271s-0.332,0.091-0.42,0.271c-0.527,1.085-1.043,2.138-1.613,3.307
		c-1.277,0.146-2.65,0.366-3.797,0.626c-0.389,0.094-0.531,0.618-0.27,0.909c0.785,0.868,1.725,1.859,2.672,2.813
		c-0.285,1.339-0.557,2.616-0.805,3.775c-0.064,0.393,0.387,0.672,0.766,0.495c1.143-0.514,2.383-1.091,3.467-1.809
		c1.082,0.718,2.322,1.295,3.467,1.809c0.377,0.177,0.828-0.103,0.764-0.495c-0.246-1.159-0.52-2.437-0.805-3.775
		c0.949-0.954,1.887-1.945,2.674-2.813C313.498,65.177,313.355,64.652,312.967,64.559z"/>
	<path fill="#FFFFFF" d="M93.172,10.307c-32.254,0-58.904,22.439-63.235,51.586l-10.378,2.961l9.799,7.307
		c1.082,32.211,29.226,58.019,63.814,58.019c35.271,0,63.861-26.835,63.861-59.937S128.443,10.307,93.172,10.307z"/>
	<path fill="#41135E" d="M117.034,47.387l-24.68-22.762c-0.401-0.36-1.018-0.363-1.423-0.008L65.952,47.053
		c-0.433,0.383-0.683,0.924-0.687,1.493l-0.01,1.512c-0.004,0.562,0.463,1.022,1.043,1.026l4.193,0.027l-0.137,21.014l41.949,0.274
		l0.138-21.014l4.196,0.028c0.577,0.003,1.051-0.45,1.055-1.013l0.01-1.512C117.707,48.32,117.463,47.775,117.034,47.387z"/>
	<path fill="#41135E" d="M85.979,90.686c-2.031-0.461-4.466-0.851-6.728-1.11c-1.013-2.072-1.924-3.936-2.863-5.86
		c-0.153-0.318-0.425-0.48-0.74-0.48s-0.587,0.162-0.743,0.48c-0.937,1.925-1.85,3.788-2.858,5.86c-2.264,0.26-4.7,0.649-6.729,1.11
		c-0.689,0.166-0.939,1.096-0.477,1.609c1.391,1.539,3.055,3.296,4.734,4.984c-0.505,2.375-0.986,4.638-1.426,6.691
		c-0.112,0.696,0.688,1.191,1.357,0.877c2.025-0.909,4.223-1.934,6.142-3.205c1.919,1.271,4.117,2.296,6.143,3.205
		c0.668,0.314,1.469-0.181,1.356-0.877c-0.439-2.054-0.924-4.316-1.429-6.691c1.682-1.688,3.345-3.445,4.736-4.984
		C86.918,91.781,86.667,90.852,85.979,90.686z"/>
	<path fill="#41135E" d="M115.449,90.686c-2.029-0.461-4.466-0.851-6.729-1.11c-1.01-2.072-1.923-3.936-2.859-5.86
		c-0.156-0.318-0.428-0.48-0.743-0.48s-0.586,0.162-0.74,0.48c-0.938,1.925-1.85,3.788-2.86,5.86
		c-2.264,0.26-4.699,0.649-6.729,1.11c-0.69,0.166-0.941,1.096-0.477,1.609c1.391,1.539,3.055,3.296,4.734,4.984
		c-0.504,2.375-0.987,4.638-1.428,6.691c-0.111,0.696,0.688,1.191,1.358,0.877c2.024-0.909,4.224-1.934,6.141-3.205
		c1.919,1.271,4.119,2.296,6.145,3.205c0.668,0.314,1.469-0.181,1.355-0.877c-0.438-2.054-0.925-4.316-1.428-6.691
		c1.683-1.688,3.344-3.445,4.736-4.984C116.389,91.781,116.138,90.852,115.449,90.686z"/>
	<path fill="#45DF00" d="M289.72,185.269h10.459v44.733h104.604v-44.733h10.463c1.441,0,2.612-1.18,2.612-2.645v-3.917
		c0-1.472-0.613-2.883-1.69-3.887l-61.915-58.587c-1-0.935-2.543-0.935-3.542,0l-61.915,58.587c-1.077,1.004-1.69,2.415-1.69,3.887
		v3.917C287.104,184.089,288.275,185.269,289.72,185.269z"/>
	<path fill="#42B704" d="M347.998,194.89c-2.477-0.562-5.443-1.037-8.2-1.354c-1.234-2.523-2.344-4.795-3.488-7.139
		c-0.188-0.391-0.52-0.587-0.902-0.587c-0.386,0-0.716,0.196-0.905,0.587c-1.143,2.344-2.256,4.615-3.484,7.139
		c-2.758,0.317-5.728,0.793-8.201,1.354c-0.842,0.201-1.146,1.336-0.582,1.961c1.695,1.876,3.723,4.017,5.772,6.075
		c-0.617,2.894-1.202,5.65-1.739,8.154c-0.137,0.849,0.836,1.451,1.655,1.069c2.468-1.108,5.145-2.356,7.484-3.905
		c2.337,1.549,5.017,2.797,7.486,3.905c0.814,0.382,1.789-0.221,1.65-1.069c-0.535-2.504-1.125-5.261-1.739-8.154
		c2.05-2.059,4.077-4.199,5.774-6.075C349.143,196.226,348.837,195.091,347.998,194.89z"/>
	<path fill="#42B704" d="M383.915,194.89c-2.474-0.562-5.441-1.037-8.202-1.354c-1.23-2.523-2.342-4.795-3.484-7.139
		c-0.189-0.391-0.521-0.587-0.904-0.587c-0.386,0-0.716,0.196-0.902,0.587c-1.145,2.344-2.257,4.615-3.487,7.139
		c-2.76,0.317-5.728,0.793-8.199,1.354c-0.843,0.201-1.146,1.336-0.581,1.961c1.695,1.876,3.723,4.017,5.77,6.075
		c-0.614,2.894-1.204,5.65-1.739,8.154c-0.137,0.849,0.839,1.451,1.653,1.069c2.468-1.108,5.148-2.356,7.486-3.905
		c2.338,1.549,5.019,2.797,7.486,3.905c0.814,0.382,1.789-0.221,1.653-1.069c-0.535-2.504-1.127-5.261-1.739-8.154
		c2.049-2.059,4.074-4.199,5.771-6.075C385.06,196.226,384.756,195.091,383.915,194.89z"/>
	<path fill="#FFFFFF" d="M399.56,26.306c37.852,0,69.125,26.332,74.207,60.533l12.178,3.476l-11.498,8.573
		c-1.27,37.799-34.297,68.083-74.887,68.083c-41.391,0-74.941-31.49-74.941-70.333C324.618,57.794,358.169,26.306,399.56,26.306z"/>
	<path fill="#41135E" d="M367.147,77.103l0.01,1.773c0.006,0.66,0.561,1.191,1.238,1.188l4.924-0.033l0.162,24.659l49.229-0.323
		l-0.162-24.658l4.922-0.032c0.682-0.004,1.229-0.545,1.223-1.204l-0.012-1.773c-0.004-0.669-0.297-1.304-0.805-1.753
		l-29.312-26.327c-0.477-0.417-1.199-0.413-1.67,0.009l-28.961,26.711C367.429,75.794,367.142,76.435,367.147,77.103z"/>
	<path fill="#41135E" d="M416.765,121.601c1.996-0.451,4.389-0.835,6.613-1.09c0.992-2.035,1.889-3.867,2.811-5.758
		c0.152-0.312,0.418-0.473,0.727-0.473c0.311,0,0.578,0.16,0.73,0.473c0.92,1.891,1.818,3.723,2.809,5.758
		c2.225,0.255,4.619,0.639,6.611,1.09c0.678,0.162,0.924,1.077,0.469,1.583c-1.367,1.511-3,3.237-4.652,4.896
		c0.496,2.331,0.971,4.557,1.402,6.573c0.111,0.685-0.676,1.169-1.334,0.862c-1.988-0.894-4.148-1.899-6.035-3.148
		c-1.885,1.249-4.043,2.255-6.033,3.148c-0.658,0.307-1.443-0.178-1.332-0.862c0.432-2.017,0.906-4.242,1.4-6.573
		c-1.65-1.659-3.285-3.386-4.652-4.896C415.841,122.678,416.089,121.763,416.765,121.601z"/>
	<path fill="#41135E" d="M387.81,121.601c1.996-0.451,4.389-0.835,6.611-1.09c0.994-2.035,1.889-3.867,2.811-5.758
		c0.152-0.312,0.42-0.473,0.729-0.473c0.311,0,0.576,0.16,0.73,0.473c0.92,1.891,1.816,3.723,2.809,5.758
		c2.225,0.255,4.617,0.639,6.611,1.09c0.678,0.162,0.924,1.077,0.469,1.583c-1.367,1.511-3,3.237-4.654,4.896
		c0.498,2.331,0.971,4.557,1.404,6.573c0.109,0.685-0.676,1.169-1.334,0.862c-1.99-0.894-4.15-1.899-6.035-3.148
		c-1.885,1.249-4.045,2.255-6.035,3.148c-0.656,0.307-1.443-0.178-1.332-0.862c0.432-2.017,0.908-4.242,1.404-6.573
		c-1.654-1.659-3.287-3.386-4.654-4.896C386.888,122.678,387.134,121.763,387.81,121.601z"/>
	<path fill="#41135E" d="M358.774,121.601c1.994-0.451,4.387-0.835,6.611-1.09c0.992-2.037,1.889-3.868,2.811-5.758
		c0.15-0.313,0.418-0.473,0.729-0.473c0.309,0,0.576,0.159,0.729,0.473c0.922,1.89,1.816,3.721,2.811,5.758
		c2.225,0.255,4.615,0.639,6.611,1.09c0.678,0.162,0.924,1.076,0.467,1.583c-1.365,1.511-3,3.237-4.65,4.896
		c0.494,2.331,0.969,4.557,1.4,6.573c0.111,0.684-0.676,1.169-1.334,0.862c-1.988-0.894-4.148-1.899-6.033-3.148
		c-1.887,1.249-4.047,2.255-6.035,3.148c-0.658,0.307-1.445-0.179-1.332-0.862c0.43-2.017,0.906-4.242,1.402-6.573
		c-1.652-1.659-3.285-3.386-4.654-4.896C357.851,122.677,358.097,121.763,358.774,121.601z"/>
</g>
</svg>
