<?xml version="1.0" encoding="utf-8"?>
<!-- Generator: Adobe Illustrator 15.1.0, SVG Export Plug-In . SVG Version: 6.00 Build 0)  -->
<!DOCTYPE svg PUBLIC "-//W3C//DTD SVG 1.1//EN" "http://www.w3.org/Graphics/SVG/1.1/DTD/svg11.dtd">
<svg version="1.1" id="Layer_1" xmlns="http://www.w3.org/2000/svg" xmlns:xlink="http://www.w3.org/1999/xlink" x="0px" y="0px"
	 width="490px" height="230.988px" viewBox="0 0 490 230.988" enable-background="new 0 0 490 230.988" xml:space="preserve">
<g>
	<polyline fill="#BFDCE8" points="490,230 0,230 0,0 490,0 490,230 	"/>
	<path fill="#E1AA09" d="M78.051,93.371c0,3.469-2.809,6.283-6.281,6.283H52.143c-3.465,0-6.275-2.814-6.275-6.283
		s2.811-6.281,6.275-6.281l19.389-2.164C75.004,84.926,78.051,89.902,78.051,93.371z"/>
	<path fill="#E1AA09" d="M87.531,135.627c0.688,4.279-2.223,8.305-6.5,8.986c-4.281,0.689-10.287-1.936-10.977-6.215l-5.105-44.383
		c-0.686-4.279,2.223-8.303,6.5-8.99c4.283-0.688,8.309,2.223,8.998,6.5L87.531,135.627z"/>
	<path fill="#E1AA09" d="M91.127,132.207c-22.93,0-41.527,18.588-41.527,41.521c0,22.939,18.598,41.527,41.527,41.527
		c22.936,0,41.525-18.588,41.525-41.527C132.652,150.795,114.062,132.207,91.127,132.207z M91.127,202.701
		c-15.996,0-28.973-12.969-28.973-28.973c0-16,12.977-28.969,28.973-28.969c16.002,0,28.973,12.969,28.973,28.969
		C120.1,189.732,107.129,202.701,91.127,202.701z"/>
	<path fill="#E1AA09" d="M159.402,186.09c1.369,3.742-0.359,7.816-3.863,9.105c-3.508,1.283-7.461-0.709-8.832-4.451l-7.721-21.059
		c-1.369-3.742,0.357-7.818,3.863-9.105c3.508-1.287,7.461,0.709,8.83,4.451L159.402,186.09z"/>
	<path fill="#E1AA09" d="M124.369,174.381c-3.723,0.168-6.893-2.711-7.066-6.441c-0.174-3.729,2.707-6.895,6.438-7.066l20.982-0.984
		c3.727-0.172,6.891,2.707,7.062,6.438c0.178,3.73-2.709,6.895-6.436,7.068L124.369,174.381z"/>
	<path fill="#E1AA09" d="M156.434,186.648c-7.863,0-14.246,6.375-14.246,14.242s6.383,14.246,14.246,14.246
		c7.869,0,14.244-6.379,14.244-14.246S164.303,186.648,156.434,186.648z M156.434,206.6c-3.152,0-5.713-2.555-5.713-5.709
		s2.561-5.705,5.713-5.705s5.711,2.551,5.711,5.705S159.586,206.6,156.434,206.6z"/>
	<path fill="#FFFFFF" d="M197.982,14.297c-20.023,0-36.566,13.928-39.254,32.021l-6.443,1.838l6.084,4.535
		c0.67,19.996,18.141,36.016,39.613,36.016c21.895,0,39.643-16.658,39.643-37.205C237.625,30.953,219.877,14.297,197.982,14.297"/>
	<path fill="#41135E" d="M219.492,48.301l-20.178-18.365c-0.328-0.291-0.828-0.291-1.156,0l-20.18,18.365
		c-0.35,0.312-0.549,0.754-0.549,1.217v1.229c0,0.457,0.381,0.828,0.852,0.828h3.408V68.65h34.092V51.574h3.41
		c0.469,0,0.852-0.371,0.852-0.828v-1.229C220.043,49.055,219.842,48.613,219.492,48.301"/>
	<path fill="#538696" d="M151.574,123.314c-2.395-5.682-4.355-7.201-8.66-9.088c-6.428-2.545-18.662-5.215-25.463-6.623
		c1.66-10.342,2.756-20.254,3.564-26.314c1.045-7.799,2.264-12.594-1.664-17.463c-5.168-6.4-16.109-7.27-22.711-3.963
		c-3.184,1.078-18.814,9.746-26.689,17.803c-2.65,2.904-3.574,4.244-4.686,6.627c-3.988,8.607-7.801,24.197-10.049,33.412
		c8.586,2.125,13.045-5.385,14.268-7.877c2.389-5.404,5.176-13.357,8.277-18.383c1.783-3.371,6.141-5.846,9.557-7.836
		c-2.232,12.297-3.172,26.354-3.117,34.473c0.072,11.143,9.627,15.922,18.779,15.922c9.156,0,32.189-0.023,32.439,0
		c3.184,10.146,8.98,25.469,12.08,33.867c5.994,16.27,15.943,14.703,19.17,13.898C163.535,168.941,156.43,135.496,151.574,123.314"
		/>
	<path fill="#538696" d="M112.701,54.131c9.463,1.521,16-4.264,17.525-13.859c1.74-10.934-3.053-17.717-12.273-19.199
		c-9.709-1.561-16.041,4.529-17.611,14.396C98.689,45.863,103.236,52.605,112.701,54.131"/>
	<path fill="#FFFFFF" d="M489.727,230h-293.7c-0.338,0.332-0.677,0.662-1.013,0.988h294.713V230"/>
	<path fill="#E9F3F7" d="M489.455,0H178.033c4.162,4.601,8.797,9.507,13.625,14.768c2.059-0.31,4.172-0.471,6.324-0.471
		c21.895,0,39.643,16.656,39.643,37.205c0,7.121-2.132,13.775-5.829,19.43c6.858,14.875,11.396,31.572,11.603,50.432
		c0.613,55.81-25.965,87.655-47.372,108.637h293.7V0.316C489.635,0.213,489.547,0.104,489.455,0"/>
	<path fill="#FFFFFF" d="M197.982,14.297c-2.152,0-4.266,0.161-6.324,0.471c8.695,9.477,18.016,20.103,26.314,32.15l1.52,1.383
		c0.35,0.312,0.551,0.754,0.551,1.217v0.469c4.33,6.556,8.331,13.523,11.753,20.945c3.697-5.654,5.829-12.309,5.829-19.43
		C237.625,30.953,219.877,14.297,197.982,14.297"/>
	<path fill="#BDADC7" d="M217.973,46.918c0.698,1.014,1.388,2.034,2.07,3.068v-0.469c0-0.463-0.201-0.904-0.551-1.217
		L217.973,46.918"/>
	<path fill="#8FC6E1" d="M368.807,43.172L335.34,12.713c-0.543-0.482-1.375-0.482-1.914,0l-33.471,30.459
		c-0.582,0.518-0.912,1.254-0.912,2.021v2.035c0,0.76,0.635,1.375,1.414,1.375h5.654v28.32h56.543v-28.32h5.654
		c0.779,0,1.412-0.615,1.412-1.375v-2.035C369.721,44.426,369.389,43.689,368.807,43.172z"/>
	<path fill="#8FC6E1" d="M446.961,61.621L410.207,28.17c-0.598-0.529-1.51-0.529-2.104,0l-36.758,33.451
		c-0.637,0.57-1.002,1.375-1.002,2.221v2.234c0,0.834,0.695,1.51,1.553,1.51h6.209v31.102h62.098V67.586h6.209
		c0.857,0,1.553-0.676,1.553-1.51v-2.234C447.965,62.996,447.6,62.191,446.961,61.621z"/>
	<path fill="#73BBD8" d="M352.518,129.971l-48.451-45.848c-0.783-0.729-1.99-0.729-2.771,0l-48.453,45.848
		c-0.844,0.783-1.324,1.889-1.324,3.043v3.064c0,1.145,0.918,2.068,2.047,2.068h8.188v42.635h81.859v-42.635h8.184
		c1.129,0,2.047-0.924,2.047-2.068v-3.064C353.842,131.859,353.361,130.754,352.518,129.971z"/>
	<path fill="#4F9FB2" d="M419.193,64.082c-1.994-0.449-4.385-0.834-6.607-1.09c-0.992-2.033-1.887-3.863-2.809-5.75
		c-0.15-0.314-0.418-0.475-0.727-0.475c-0.311,0-0.576,0.16-0.729,0.475c-0.92,1.887-1.816,3.717-2.809,5.75
		c-2.223,0.256-4.613,0.641-6.605,1.09c-0.678,0.162-0.924,1.076-0.469,1.582c1.367,1.51,3,3.236,4.65,4.893
		c-0.496,2.33-0.971,4.555-1.402,6.568c-0.109,0.684,0.676,1.168,1.332,0.861c1.988-0.893,4.146-1.896,6.031-3.145
		c1.883,1.248,4.041,2.252,6.029,3.145c0.656,0.307,1.443-0.178,1.332-0.861c-0.432-2.014-0.906-4.238-1.402-6.568
		c1.652-1.656,3.283-3.383,4.65-4.893C420.115,65.158,419.869,64.244,419.193,64.082z"/>
	<path fill="#4F9FB2" d="M299.586,138.473c-1.992-0.451-4.383-0.834-6.605-1.09c-0.992-2.035-1.889-3.865-2.809-5.752
		c-0.152-0.314-0.418-0.473-0.729-0.473c-0.309,0-0.576,0.158-0.727,0.473c-0.922,1.887-1.816,3.717-2.809,5.752
		c-2.223,0.256-4.613,0.639-6.607,1.09c-0.676,0.162-0.922,1.074-0.467,1.582c1.367,1.51,2.998,3.234,4.65,4.893
		c-0.498,2.328-0.971,4.553-1.402,6.568c-0.111,0.682,0.676,1.168,1.332,0.861c1.988-0.893,4.146-1.898,6.029-3.146
		c1.885,1.248,4.043,2.254,6.031,3.146c0.656,0.307,1.441-0.18,1.33-0.861c-0.43-2.016-0.904-4.24-1.4-6.568
		c1.65-1.658,3.283-3.383,4.65-4.893C300.51,139.547,300.264,138.635,299.586,138.473z"/>
	<path fill="#4F9FB2" d="M328.52,138.473c-1.992-0.451-4.383-0.834-6.605-1.09c-0.992-2.035-1.889-3.865-2.809-5.752
		c-0.152-0.314-0.418-0.473-0.729-0.473c-0.309,0-0.576,0.158-0.727,0.473c-0.922,1.887-1.816,3.717-2.809,5.752
		c-2.223,0.256-4.613,0.639-6.607,1.09c-0.676,0.162-0.922,1.074-0.467,1.582c1.367,1.51,2.998,3.234,4.65,4.893
		c-0.498,2.328-0.971,4.553-1.402,6.568c-0.111,0.682,0.676,1.168,1.332,0.861c1.988-0.893,4.146-1.898,6.029-3.146
		c1.885,1.248,4.043,2.254,6.031,3.146c0.656,0.307,1.441-0.18,1.33-0.861c-0.43-2.016-0.904-4.24-1.4-6.568
		c1.65-1.658,3.283-3.383,4.65-4.893C329.443,139.547,329.197,138.635,328.52,138.473z"/>
	<path fill="#009F18" d="M476.098,150.154l-63.484-60.072c-1.027-0.957-2.607-0.957-3.633,0l-63.486,60.072
		c-1.105,1.029-1.732,2.477-1.732,3.986v4.016c0,1.502,1.201,2.711,2.68,2.711h10.727v55.863h107.258v-55.863h10.727
		c1.479,0,2.68-1.209,2.68-2.711v-4.016C477.832,152.631,477.201,151.184,476.098,150.154z"/>
	<path fill="#1F4F03" d="M393.564,174.658c-1.994-0.451-4.385-0.834-6.607-1.09c-0.992-2.033-1.887-3.863-2.809-5.752
		c-0.15-0.312-0.418-0.473-0.727-0.473c-0.311,0-0.576,0.16-0.729,0.473c-0.92,1.889-1.816,3.719-2.809,5.752
		c-2.223,0.256-4.613,0.639-6.605,1.09c-0.678,0.162-0.924,1.076-0.469,1.582c1.367,1.51,3,3.234,4.65,4.893
		c-0.496,2.33-0.971,4.553-1.402,6.568c-0.109,0.684,0.676,1.168,1.332,0.861c1.988-0.893,4.146-1.898,6.031-3.146
		c1.883,1.248,4.041,2.254,6.029,3.146c0.656,0.307,1.443-0.178,1.332-0.861c-0.432-2.016-0.906-4.238-1.402-6.568
		c1.652-1.658,3.283-3.383,4.65-4.893C394.486,175.734,394.24,174.82,393.564,174.658z"/>
	<path fill="#1F4F03" d="M422.498,174.658c-1.994-0.451-4.385-0.834-6.607-1.09c-0.992-2.033-1.887-3.863-2.809-5.752
		c-0.15-0.312-0.418-0.473-0.727-0.473c-0.311,0-0.576,0.16-0.729,0.473c-0.92,1.889-1.816,3.719-2.809,5.752
		c-2.223,0.256-4.613,0.639-6.605,1.09c-0.678,0.162-0.924,1.076-0.469,1.582c1.367,1.51,3,3.234,4.65,4.893
		c-0.496,2.33-0.971,4.553-1.402,6.568c-0.109,0.684,0.676,1.168,1.332,0.861c1.988-0.893,4.146-1.898,6.031-3.146
		c1.883,1.248,4.041,2.254,6.029,3.146c0.656,0.307,1.443-0.178,1.332-0.861c-0.432-2.016-0.906-4.238-1.402-6.568
		c1.652-1.658,3.283-3.383,4.65-4.893C423.42,175.734,423.174,174.82,422.498,174.658z"/>
	<path fill="#1F4F03" d="M451.512,174.658c-1.994-0.451-4.385-0.834-6.607-1.09c-0.992-2.033-1.887-3.863-2.809-5.752
		c-0.15-0.312-0.418-0.473-0.727-0.473c-0.311,0-0.576,0.16-0.729,0.473c-0.92,1.889-1.816,3.719-2.809,5.752
		c-2.223,0.256-4.613,0.639-6.605,1.09c-0.678,0.162-0.924,1.076-0.469,1.582c1.367,1.51,3,3.234,4.65,4.893
		c-0.496,2.33-0.971,4.553-1.402,6.568c-0.109,0.684,0.676,1.168,1.332,0.861c1.988-0.893,4.146-1.898,6.031-3.146
		c1.883,1.248,4.041,2.254,6.029,3.146c0.656,0.307,1.443-0.178,1.332-0.861c-0.432-2.016-0.906-4.238-1.402-6.568
		c1.652-1.658,3.283-3.383,4.65-4.893C452.434,175.734,452.188,174.82,451.512,174.658z"/>
	<path fill="#4F9FB2" d="M344.193,46.082c-1.994-0.449-4.385-0.834-6.607-1.09c-0.992-2.033-1.887-3.863-2.809-5.75
		c-0.15-0.314-0.418-0.475-0.727-0.475c-0.311,0-0.576,0.16-0.729,0.475c-0.92,1.887-1.816,3.717-2.809,5.75
		c-2.223,0.256-4.613,0.641-6.605,1.09c-0.678,0.162-0.924,1.076-0.469,1.582c1.367,1.51,3,3.236,4.65,4.893
		c-0.496,2.33-0.971,4.555-1.402,6.568c-0.109,0.684,0.676,1.168,1.332,0.861c1.988-0.893,4.146-1.896,6.031-3.145
		c1.883,1.248,4.041,2.252,6.029,3.145c0.656,0.307,1.443-0.178,1.332-0.861c-0.432-2.014-0.906-4.238-1.402-6.568
		c1.652-1.656,3.283-3.383,4.65-4.893C345.115,47.158,344.869,46.244,344.193,46.082z"/>
</g>
</svg>
