<?xml version="1.0" encoding="utf-8"?>
<!-- Generator: Adobe Illustrator 15.1.0, SVG Export Plug-In . SVG Version: 6.00 Build 0)  -->
<!DOCTYPE svg PUBLIC "-//W3C//DTD SVG 1.1//EN" "http://www.w3.org/Graphics/SVG/1.1/DTD/svg11.dtd">
<svg version="1.1" id="Layer_1" xmlns="http://www.w3.org/2000/svg" xmlns:xlink="http://www.w3.org/1999/xlink" x="0px" y="0px"
	 width="490px" height="230px" viewBox="0 0 490 230" enable-background="new 0 0 490 230" xml:space="preserve">
<g>
	<polyline fill="#BFDCE8" points="490,229 0,229 0,-1 490,-1 490,229 	"/>
	<path fill="#FFFFFF" d="M489.943,229H32.223c-0.27,0.449-0.512,0.912-0.729,1.385h458.45V229 M415.368-1.6H262.226l-0.6,0.6
		h154.342L415.368-1.6"/>
	<path fill="#EAF3F7" d="M415.968-1H261.626L34.305,226.326c-0.818,0.818-1.51,1.717-2.082,2.674h457.721V72.977L415.968-1"/>
	<path fill="#538696" d="M146.469,48.485l20.085-16.525c4.503-3.701,10.193-5.743,16.02-5.743h34.545V15.011h-34.545
		c-8.419,0-16.635,2.947-23.138,8.295l-23.868,19.641h1.027C141.038,42.946,144.562,45.075,146.469,48.485z"/>
	<path fill="#538696" d="M135.162,92.631c0,0,3.39-1.291,3.39-3.287c0-0.997-0.002-9.818-6.753-9.848l0.004-0.003h-0.036
		c-3.026,0-44.402,0-47.429,0h-0.032l0.003,0.003c-6.754,0.029-6.756,8.851-6.756,9.848c0,1.996,3.393,3.287,3.393,3.287
		s6.752,3.283,27.106,3.283C128.41,95.914,135.162,92.631,135.162,92.631z"/>
	<path fill="#538696" d="M86.121,73.724h43.471c0,0,0.027-5.487-0.169-12.434c11.013-1.381,12.244-2.165,12.244-6.629
		c0-3.067-1.629-5.552-5.269-5.552h-7.546c-0.294-4.166-0.702-8.377-1.274-11.313c-0.924-4.766-4.301-8.63-8.153-9.669
		c-2.943-0.794-6.801-1.458-11.566-1.458c-4.771,0-8.628,0.664-11.568,1.458c-3.854,1.039-7.232,4.903-8.158,9.669
		c-0.567,2.937-0.978,7.147-1.269,11.313h-7.553c-3.639,0-5.268,2.484-5.268,5.552c0,4.464,1.479,5.289,12.248,6.64
		C86.097,68.243,86.121,73.724,86.121,73.724z"/>
	<path fill="#538696" d="M204.406,113.531c1.455-0.569-8.375-11.625,4.875-18.625c0,0-5.39-5.007-6.875-13.375
		c-2.375-13.375,15.583-18.417,15.583-18.417l-0.871-6.078H178.07v25.215h-28.015v25.214H122.04v25.216H94.026v25.215l81.631,1.386
		C175.761,156.682,181.406,122.531,204.406,113.531z"/>
	<path fill="#41135E" d="M284.402,191.716c0,0,7.707-12.042,6.707-30.165c-0.986-17.934-18.371-37.024-29.127-47.197
		c2.84-0.897,4.441-3.853,4.441-7.396c0-4.258-2.277-7.706-6.281-7.706h-1.787c2.363-2.847,7.008-7.491,8.484-10.947
		c3.137-7.335-4.971-9.16-15.828-12.168v-8.748c0-10.115-37.162,3.756-34.029,14.902c1.842,6.554,6.225,13.372,8.758,16.961h-1.836
		c-4.003,0-6.28,3.448-6.28,7.706c0,4.255,2.277,7.705,6.28,7.705h15.346c0.056,0.146,0.173,0.674-0.642,0.935
		c-0.521,0.166-13.054,2.531-22.05,4.217c-10.336,10.729-22.788,26.638-23.621,41.737c-0.997,18.123,6.708,30.165,6.708,30.165
		l-6.702,10.723c-2.674,4.276,0.401,9.825,5.445,9.825h87.271c5.043,0,8.117-5.549,5.445-9.825L284.402,191.716z M256.529,188.284
		c-4.273,1.012-6.289,1.244-10.404,1.244c-10.791,0-18.401-5.279-20.652-16.771h-5.281v-5.901h4.66v-1.629
		c0-1.398,0-2.874,0.156-4.192h-4.816v-5.979h5.747c2.794-11.646,10.716-17.548,21.505-17.548c3.027,0,5.436,0.234,8.697,0.934
		v8.151c-3.809-0.698-5.824-1.01-8.932-1.01c-5.9,0-9.779,3.183-11.488,9.473h14.131v5.979h-15.14
		c-0.079,1.085-0.079,2.172-0.079,3.26c0,0.933,0,1.785,0.079,2.562h15.14v5.901h-14.209c1.787,6.366,5.979,9.005,11.102,9.005
		c3.648,0,5.746-0.311,9.785-1.164V188.284z"/>
	<path fill="#41135E" d="M433.768,162.537l-91.533-26.061c-2.223-0.727-4.664-0.336-6.557,1.047l-20.941,15.242
		c-0.85,0.619-1.451,1.477-1.766,2.435c-0.299,0.954-0.309,2.008,0.021,3.002l8.176,24.582c0.74,2.216,2.5,3.954,4.73,4.661
		l91.533,26.065c2.568,0.813,5.367-0.775,6.18-3.346l13.244-41.315C437.689,166.281,436.334,163.367,433.768,162.537z
		 M342.273,164.077c-1.273,3.864-5.393,6.005-9.254,4.779c-3.863-1.231-5.996-5.38-4.787-9.28c1.281-3.878,5.428-6.014,9.287-4.764
		C341.373,156.061,343.48,160.192,342.273,164.077z"/>
	<polygon fill="#FFFFFF" points="349.347,177.533 349.979,155.645 354.483,156.945 353.528,174.703 353.716,174.758 
		361.247,163.474 361.161,158.873 365.509,160.129 365.517,178.166 365.702,178.22 374.267,162.658 378.429,163.861 
		367.267,182.709 361.677,181.095 361.724,168.692 361.567,168.647 354.812,179.112 	"/>
	<polygon fill="#FFFFFF" points="384.407,169.727 384.22,169.672 378.913,186.073 375.187,184.997 381.907,164.865 388.243,166.695 
		388.565,179.911 388.72,179.956 396.069,168.956 402.001,170.669 397.081,191.32 393.106,190.173 397.202,173.422 397.015,173.368 
		389.278,184.895 384.993,183.657 	"/>
	<path fill="#FFFFFF" d="M403.694,182.396c1-3.457,2.758-5.81,5.281-7.056c2.518-1.245,5.113-1.483,7.781-0.714
		c2.625,0.759,4.625,2.245,6.002,4.46c1.375,2.214,1.557,5.071,0.547,8.57c-1,3.458-2.748,5.812-5.25,7.063
		c-2.498,1.253-5.084,1.493-7.75,0.723c-2.646-0.764-4.662-2.255-6.049-4.473C402.87,188.754,402.685,185.896,403.694,182.396z
		 M408.017,183.274c-0.73,2.526-0.705,4.485,0.074,5.876c0.779,1.393,1.926,2.307,3.441,2.744c1.371,0.396,2.785,0.232,4.242-0.49
		c1.457-0.724,2.527-2.266,3.209-4.626c0.73-2.525,0.711-4.488-0.055-5.888c-0.768-1.398-1.906-2.316-3.422-2.754
		c-1.41-0.408-2.844-0.244-4.293,0.493C409.763,179.366,408.698,180.914,408.017,183.274z"/>
	<path fill="#E1AA09" d="M360.088,49.871c0-16.812-8.9-23.239-19.902-23.239c-11,0-20.768,7.786-20.768,24.229
		c0,17.306,9.148,22.498,19.779,22.498C349.949,73.358,360.088,65.692,360.088,49.871z M339.689,63.344
		c-4.82,0-8.156-3.089-8.156-13.596c0-9.89,3.83-13.227,8.281-13.227c4.822,0,8.281,3.461,8.281,14.339
		C348.096,59.76,344.514,63.344,339.689,63.344z"/>
	<polygon fill="#E1AA09" points="379,24.777 346.119,108.218 355.389,111.923 388.271,28.488 	"/>
	<path fill="#E1AA09" d="M394.822,72.617c4.234,0,7.418,2.674,8.131,10.697c3.502-0.156,7.021-0.206,9.992-0.206
		c0.656,0,1.35,0.004,2.053,0.01c-0.961-14.689-9.449-20.393-19.805-20.393c-11.002,0-20.768,7.79-20.768,24.231
		c0,9.785,2.928,15.695,7.393,18.984c0.156-4.332,0.457-8.762,1.031-12.215c0.441-2.651,1.799-4.965,3.715-6.672
		c-0.01-0.396-0.023-0.789-0.023-1.21C386.541,75.956,390.373,72.617,394.822,72.617z"/>
	<path fill="#E1AA09" d="M438.525,114.358c0-2.18,0-13.091-1.09-19.638c-0.377-2.265-2.1-3.987-4.365-4.363
		c-6.545-1.092-17.457-1.092-19.637-1.092c-2.182,0-13.094,0-19.639,1.092c-2.268,0.376-3.988,2.099-4.363,4.363
		c-1.092,6.547-1.092,17.458-1.092,19.638c0,2.183,0,13.094,1.092,19.638c0.375,2.264,2.096,3.986,4.363,4.364
		c6.545,1.091,17.457,1.091,19.639,1.091c2.18,0,13.092,0,19.637-1.091c2.266-0.378,3.988-2.101,4.365-4.364
		C438.525,127.452,438.525,120.907,438.525,114.358z"/>
	<path fill="#FFFFFF" d="M415.721,97.653c-0.551-0.702-1.395-1.109-2.287-1.109s-1.738,0.407-2.291,1.109L398.23,114.01
		c-0.42,0.532-0.629,1.171-0.629,1.809c0,0.676,0.236,1.355,0.707,1.901c0.91,1.061,2.443,1.324,3.656,0.63l5.1-2.908
		c0,0,1.594-5.984,1.732-6.498c0.109-0.41,0.33-0.276,0.33-0.276v20.472c0,2.338,2.021,3.035,4.305,3.035s4.303-0.697,4.303-3.035
		v-14.872l7.166,4.083c1.211,0.694,2.746,0.431,3.656-0.63c0.912-1.059,0.943-2.615,0.078-3.71L415.721,97.653z"/>
</g>
</svg>
