<?xml version="1.0" encoding="utf-8"?>
<!-- Generator: Adobe Illustrator 15.1.0, SVG Export Plug-In . SVG Version: 6.00 Build 0)  -->
<!DOCTYPE svg PUBLIC "-//W3C//DTD SVG 1.1//EN" "http://www.w3.org/Graphics/SVG/1.1/DTD/svg11.dtd">
<svg version="1.1" id="Layer_1" xmlns="http://www.w3.org/2000/svg" xmlns:xlink="http://www.w3.org/1999/xlink" x="0px" y="0px"
	 width="490.759px" height="230.002px" viewBox="0 0 490.759 230.002" enable-background="new 0 0 490.759 230.002"
	 xml:space="preserve">
<g>
	<polyline fill="#BFDCE8" points="490.266,230.013 0.266,230.013 0.266,0.013 490.266,0.013 490.266,230.013 	"/>
	<polyline fill="#FFFFFF" points="490.266,152.804 490.266,230.013 0.266,230.013 0.266,201.864 -0.396,202.526 -0.396,230.297 
		490.938,230.297 490.938,153.475 490.266,152.804 	"/>
	<polyline fill="#EAF3F7" points="337.853,0.388 201.744,0.388 0.266,201.864 0.266,230.013 490.266,230.013 490.266,152.804 
		337.853,0.388 	"/>
	<path fill="#538696" d="M217.932,63.762l20.086-16.525c4.502-3.701,10.193-5.743,16.02-5.743h34.547V30.287h-34.547
		c-8.42,0-16.635,2.947-23.139,8.295l-23.869,19.641h1.027C212.5,58.223,216.025,60.352,217.932,63.762z"/>
	<path fill="#538696" d="M206.623,107.907c0,0,3.391-1.291,3.391-3.287c0-0.997-0.002-9.818-6.754-9.848l0.004-0.003h-0.035
		c-3.027,0-44.404,0-47.432,0h-0.031l0.002,0.003c-6.754,0.029-6.756,8.851-6.756,9.848c0,1.996,3.393,3.287,3.393,3.287
		s6.752,3.283,27.107,3.283C199.871,111.19,206.623,107.907,206.623,107.907z"/>
	<path fill="#538696" d="M157.58,89h43.473c0,0,0.027-5.487-0.168-12.434c11.014-1.381,12.244-2.165,12.244-6.629
		c0-3.067-1.629-5.552-5.268-5.552h-7.547c-0.295-4.166-0.703-8.377-1.275-11.313c-0.924-4.766-4.301-8.63-8.152-9.669
		c-2.943-0.794-6.803-1.458-11.568-1.458c-4.771,0-8.627,0.664-11.568,1.458c-3.855,1.039-7.232,4.903-8.158,9.669
		c-0.568,2.937-0.979,7.147-1.27,11.313h-7.553c-3.639,0-5.268,2.484-5.268,5.552c0,4.464,1.479,5.289,12.248,6.64
		C157.557,83.52,157.58,89,157.58,89z"/>
	<path fill="#538696" d="M244.719,166.805c-1.623-2.452-2.551-5.107-2.551-7.906c0-1.863,0-8.906,0-10.773
		c0-12.679,18.131-22.606,41.281-22.606c1.562,0,3.102,0.048,4.615,0.138l0.52-53.344h-39.049v25.215h-28.018v25.214h-28.016v25.216
		h-28.016v25.215l76.703,0.988C242.293,171.561,243.188,169.095,244.719,166.805z"/>
	<path fill="#41135E" d="M283.113,180.638c18.225,0,32.498-7.835,32.498-17.826c0-1.467,0-7.012,0-8.482
		c0-9.982-14.273-17.799-32.498-17.799c-18.227,0-32.502,7.816-32.502,17.799c0,1.471,0,7.016,0,8.482
		c0,2.204,0.73,4.295,2.01,6.226c-1.283,1.918-2.01,3.992-2.01,6.185v8.483c0,9.991,14.275,17.825,32.502,17.825
		c18.225,0,32.498-7.834,32.498-17.825v-8.483c0-0.477-0.061-0.943-0.127-1.408c-1.656,2.079-10.611,11.928-31.6,11.928
		c-18.609,0-25.025-8.955-25.689-10.17c-0.271-0.497-0.469-1.014-0.18-1.315C263.934,178.176,272.9,180.638,283.113,180.638z
		 M256.883,155.103c0-6.604,11.748-11.957,26.238-11.957c14.488,0,26.234,5.353,26.234,11.957c0,6.604-11.746,11.955-26.234,11.955
		C268.631,167.058,256.883,161.706,256.883,155.103z"/>
	<path fill="#41135E" d="M278.129,159.11v1.568h3.611v-1.292c0.709,0.046,1.557,0.046,2.359,0.046h0.889v1.246h3.523v-1.43
		c6.461-0.697,9.539-2.937,9.539-6.199c0-1.27-0.131-1.822-0.713-3.119h-4.773c0.492,1.204,0.67,1.805,0.67,2.913
		c0,1.431-1.379,2.589-4.723,3.097v-4.094h-3.523v4.393c-0.439,0.023-0.889,0.046-1.42,0.046c-0.627,0-1.209-0.022-1.828-0.046
		v-4.393h-3.611v4.071c-3.256-0.485-4.947-1.525-4.947-3.192c0-0.945,0.178-1.498,0.576-2.677h-5.035
		c-0.402,0.991-0.537,1.687-0.537,2.604C268.186,155.94,271.531,158.273,278.129,159.11z"/>
	<path fill="#E1AA09" d="M352.006,84.886c0-16.812-8.9-23.239-19.902-23.239c-11,0-20.768,7.786-20.768,24.229
		c0,17.306,9.148,22.498,19.779,22.498C341.867,108.373,352.006,100.707,352.006,84.886z M331.607,98.358
		c-4.82,0-8.156-3.089-8.156-13.596c0-9.89,3.83-13.227,8.281-13.227c4.822,0,8.281,3.461,8.281,14.339
		C340.014,94.774,336.432,98.358,331.607,98.358z"/>
	<polygon fill="#E1AA09" points="370.918,59.792 338.037,143.232 347.307,146.938 380.189,63.503 	"/>
	<path fill="#E1AA09" d="M386.74,107.632c4.234,0,7.418,2.674,8.131,10.697c3.502-0.156,7.021-0.206,9.992-0.206
		c0.656,0,1.35,0.004,2.053,0.01c-0.961-14.689-9.449-20.393-19.805-20.393c-11.002,0-20.768,7.79-20.768,24.231
		c0,9.785,2.928,15.695,7.393,18.984c0.156-4.332,0.457-8.762,1.031-12.215c0.441-2.651,1.799-4.965,3.715-6.672
		c-0.01-0.396-0.023-0.789-0.023-1.21C378.459,110.971,382.291,107.632,386.74,107.632z"/>
	<path fill="#E1AA09" d="M430.443,149.373c0-2.18,0-13.091-1.09-19.638c-0.377-2.265-2.1-3.987-4.365-4.363
		c-6.545-1.092-17.457-1.092-19.637-1.092c-2.182,0-13.094,0-19.639,1.092c-2.268,0.376-3.988,2.099-4.363,4.363
		c-1.092,6.547-1.092,17.458-1.092,19.638c0,2.183,0,13.094,1.092,19.638c0.375,2.264,2.096,3.986,4.363,4.364
		c6.545,1.091,17.457,1.091,19.639,1.091c2.18,0,13.092,0,19.637-1.091c2.266-0.378,3.988-2.101,4.365-4.364
		C430.443,162.467,430.443,155.922,430.443,149.373z"/>
	<path fill="#FFFFFF" d="M407.639,132.668c-0.551-0.702-1.395-1.109-2.287-1.109s-1.738,0.407-2.291,1.109l-12.912,16.356
		c-0.42,0.532-0.629,1.171-0.629,1.809c0,0.676,0.236,1.355,0.707,1.901c0.91,1.061,2.443,1.324,3.656,0.63l5.1-2.908
		c0,0,1.594-5.984,1.732-6.498c0.109-0.41,0.33-0.276,0.33-0.276v20.472c0,2.338,2.021,3.035,4.305,3.035s4.303-0.697,4.303-3.035
		v-14.872l7.166,4.083c1.211,0.694,2.746,0.431,3.656-0.63c0.912-1.059,0.943-2.615,0.078-3.71L407.639,132.668z"/>
	<path fill="#41135E" d="M116.447,69.637c8.885,0,14.025-6.283,14.025-15.332c0-10.307-5.371-15.833-14.025-15.833
		c-9.111,0-14.023,6.535-14.023,15.833C102.424,64.111,107.568,69.637,116.447,69.637z"/>
	<path fill="#41135E" d="M153.791,139.914c1.215-19.766,3.492-55.293-15.898-60.515c-11.088-2.987-25.762-3.248-38.281,0
		c-19.447,5.042-17.117,40.749-15.902,60.515c0.553,8.99,6.83,11.54,10.969,11.54c0,0,0-18.437,0-24.328
		c0-10.833,0.162-21.058,2.525-27.341c0.408-1.088,1.047-1.215,1.289-0.924v118.426c8.674,0,15.588-4.768,16.328-14.341
		c0,0,2.27-52.514,2.295-53.146c0.021-0.63,0.615-1.448,1.637-1.448c1.025,0,1.621,0.818,1.646,1.448
		c0.023,0.632,2.287,53.146,2.287,53.146c0.744,9.61,7.725,14.341,16.326,14.341V98.861c0.389-0.34,0.953-0.225,1.289,0.924
		c1.875,6.38,2.525,16.605,2.525,27.341c0,5.892,0,24.328,0,24.328C146.959,151.454,153.238,148.904,153.791,139.914z"/>
</g>
</svg>
