<?xml version="1.0" encoding="utf-8"?>
<!-- Generator: Adobe Illustrator 15.1.0, SVG Export Plug-In . SVG Version: 6.00 Build 0)  -->
<!DOCTYPE svg PUBLIC "-//W3C//DTD SVG 1.1//EN" "http://www.w3.org/Graphics/SVG/1.1/DTD/svg11.dtd">
<svg version="1.1" id="Layer_1" xmlns="http://www.w3.org/2000/svg" xmlns:xlink="http://www.w3.org/1999/xlink" x="0px" y="0px"
	 width="490px" height="231.993px" viewBox="0 0 490 231.993" enable-background="new 0 0 490 231.993" xml:space="preserve">
<g>
	<polyline fill="#BFDCE8" points="490,230.937 0,230.937 0,0.937 490,0.937 490,230.937 	"/>
	<path fill="#FFFFFF" d="M187.738,230.937H1.385c0.438,0.355,0.877,0.709,1.32,1.057h183.703
		C186.853,231.644,187.298,231.291,187.738,230.937 M189.224,0H0.304v0.937h190.044C189.975,0.623,189.599,0.31,189.224,0"/>
	<path fill="#E9F3F7" d="M190.348,0.937H0.304v229.116c0.36,0.295,0.72,0.59,1.082,0.884h186.353
		c33.937-27.28,55.655-69.137,55.655-116.07C243.394,69.145,222.784,28.241,190.348,0.937"/>
	<path fill="#DF7800" d="M204.724,92.391v2.573c0,0.959,0.769,1.734,1.717,1.734h6.867v35.773h68.686V96.698h6.869
		c0.949,0,1.717-0.775,1.717-1.734v-2.573c0-0.968-0.404-1.894-1.111-2.552l-40.656-38.473c-0.656-0.612-1.668-0.612-2.326,0
		l-40.651,38.473C205.126,90.497,204.724,91.423,204.724,92.391z"/>
	<path fill="#45DF00" d="M247.009,145.938v3.5c0,1.305,1.049,2.361,2.338,2.361h9.34v48.672h93.449V151.8h9.346
		c1.289,0,2.34-1.057,2.34-2.361v-3.5c0-1.317-0.551-2.576-1.51-3.473l-55.316-52.34c-0.893-0.834-2.27-0.834-3.164,0l-55.309,52.34
		C247.558,143.362,247.009,144.621,247.009,145.938z"/>
	<path fill="#45DF00" d="M325.38,72.112v3.067c0,1.145,0.918,2.068,2.047,2.068h8.186v42.644h81.875V77.247h8.188
		c1.129,0,2.047-0.924,2.047-2.068v-3.067c0-1.153-0.48-2.258-1.322-3.043l-48.463-45.86c-0.783-0.73-1.988-0.73-2.773,0
		l-48.459,45.86C325.86,69.854,325.38,70.958,325.38,72.112z"/>
	<path fill="#42B704" d="M300.323,155.308c-1.994-0.45-4.385-0.834-6.607-1.09c-0.992-2.033-1.887-3.863-2.809-5.752
		c-0.15-0.312-0.418-0.472-0.727-0.472c-0.311,0-0.576,0.159-0.729,0.472c-0.92,1.889-1.816,3.719-2.809,5.752
		c-2.223,0.256-4.613,0.64-6.605,1.09c-0.678,0.162-0.924,1.076-0.469,1.583c1.367,1.51,3,3.234,4.65,4.892
		c-0.496,2.33-0.971,4.554-1.402,6.569c-0.109,0.683,0.676,1.168,1.332,0.86c1.988-0.893,4.146-1.898,6.031-3.146
		c1.883,1.248,4.041,2.254,6.029,3.146c0.656,0.308,1.443-0.178,1.332-0.86c-0.432-2.016-0.906-4.239-1.402-6.569
		c1.652-1.657,3.283-3.382,4.65-4.892C301.245,156.384,300.999,155.47,300.323,155.308z"/>
	<path fill="#42B704" d="M329.257,155.308c-1.994-0.45-4.385-0.834-6.607-1.09c-0.992-2.033-1.887-3.863-2.809-5.752
		c-0.15-0.312-0.418-0.472-0.727-0.472c-0.311,0-0.576,0.159-0.729,0.472c-0.92,1.889-1.816,3.719-2.809,5.752
		c-2.223,0.256-4.613,0.64-6.605,1.09c-0.678,0.162-0.924,1.076-0.469,1.583c1.367,1.51,3,3.234,4.65,4.892
		c-0.496,2.33-0.971,4.554-1.402,6.569c-0.109,0.683,0.676,1.168,1.332,0.86c1.988-0.893,4.146-1.898,6.031-3.146
		c1.883,1.248,4.041,2.254,6.029,3.146c0.656,0.308,1.443-0.178,1.332-0.86c-0.432-2.016-0.906-4.239-1.402-6.569
		c1.652-1.657,3.283-3.382,4.65-4.892C330.179,156.384,329.933,155.47,329.257,155.308z"/>
	<path fill="#B25B06" d="M256.917,93.997c-1.992-0.451-4.385-0.834-6.607-1.09c-0.99-2.034-1.887-3.864-2.807-5.752
		c-0.152-0.313-0.42-0.473-0.729-0.473c-0.311,0-0.576,0.159-0.728,0.473c-0.92,1.888-1.816,3.718-2.809,5.752
		c-2.223,0.256-4.613,0.639-6.605,1.09c-0.677,0.162-0.924,1.075-0.469,1.582c1.367,1.51,2.999,3.234,4.65,4.893
		c-0.497,2.329-0.971,4.553-1.402,6.568c-0.11,0.683,0.676,1.168,1.332,0.861c1.988-0.893,4.146-1.898,6.03-3.146
		c1.883,1.248,4.041,2.254,6.031,3.146c0.656,0.307,1.441-0.179,1.33-0.861c-0.432-2.016-0.906-4.239-1.4-6.568
		c1.65-1.658,3.283-3.383,4.65-4.893C257.839,95.072,257.593,94.159,256.917,93.997z"/>
	<path fill="#009F18" d="M481.737,164.358l-63.484-60.072c-1.027-0.957-2.607-0.957-3.633,0l-63.486,60.072
		c-1.105,1.029-1.732,2.477-1.732,3.986v4.016c0,1.502,1.201,2.711,2.68,2.711h10.727v55.863h107.258v-55.863h10.727
		c1.479,0,2.68-1.209,2.68-2.711v-4.016C483.472,166.835,482.841,165.388,481.737,164.358z"/>
	<path fill="#1F4F03" d="M399.204,188.862c-1.994-0.451-4.385-0.834-6.607-1.09c-0.992-2.033-1.887-3.863-2.809-5.752
		c-0.15-0.312-0.418-0.473-0.727-0.473c-0.311,0-0.576,0.16-0.729,0.473c-0.92,1.889-1.816,3.719-2.809,5.752
		c-2.223,0.256-4.613,0.639-6.605,1.09c-0.678,0.162-0.924,1.076-0.469,1.582c1.367,1.51,3,3.234,4.65,4.893
		c-0.496,2.33-0.971,4.553-1.402,6.568c-0.109,0.684,0.676,1.168,1.332,0.861c1.988-0.893,4.146-1.898,6.031-3.146
		c1.883,1.248,4.041,2.254,6.029,3.146c0.656,0.307,1.443-0.178,1.332-0.861c-0.432-2.016-0.906-4.238-1.402-6.568
		c1.652-1.658,3.283-3.383,4.65-4.893C400.126,189.938,399.88,189.024,399.204,188.862z"/>
	<path fill="#1F4F03" d="M428.138,188.862c-1.994-0.451-4.385-0.834-6.607-1.09c-0.992-2.033-1.887-3.863-2.809-5.752
		c-0.15-0.312-0.418-0.473-0.727-0.473c-0.311,0-0.576,0.16-0.729,0.473c-0.92,1.889-1.816,3.719-2.809,5.752
		c-2.223,0.256-4.613,0.639-6.605,1.09c-0.678,0.162-0.924,1.076-0.469,1.582c1.367,1.51,3,3.234,4.65,4.893
		c-0.496,2.33-0.971,4.553-1.402,6.568c-0.109,0.684,0.676,1.168,1.332,0.861c1.988-0.893,4.146-1.898,6.031-3.146
		c1.883,1.248,4.041,2.254,6.029,3.146c0.656,0.307,1.443-0.178,1.332-0.861c-0.432-2.016-0.906-4.238-1.402-6.568
		c1.652-1.658,3.283-3.383,4.65-4.893C429.06,189.938,428.813,189.024,428.138,188.862z"/>
	<path fill="#1F4F03" d="M457.151,188.862c-1.994-0.451-4.385-0.834-6.607-1.09c-0.992-2.033-1.887-3.863-2.809-5.752
		c-0.15-0.312-0.418-0.473-0.727-0.473c-0.311,0-0.576,0.16-0.729,0.473c-0.92,1.889-1.816,3.719-2.809,5.752
		c-2.223,0.256-4.613,0.639-6.605,1.09c-0.678,0.162-0.924,1.076-0.469,1.582c1.367,1.51,3,3.234,4.65,4.893
		c-0.496,2.33-0.971,4.553-1.402,6.568c-0.109,0.684,0.676,1.168,1.332,0.861c1.988-0.893,4.146-1.898,6.031-3.146
		c1.883,1.248,4.041,2.254,6.029,3.146c0.656,0.307,1.443-0.178,1.332-0.861c-0.432-2.016-0.906-4.238-1.402-6.568
		c1.652-1.658,3.283-3.383,4.65-4.893C458.073,189.938,457.827,189.024,457.151,188.862z"/>
	<path fill="#538696" d="M97.795,77.876l15.813-13.011c3.546-2.916,8.026-4.523,12.614-4.523h27.197v-8.823h-27.197
		c-6.63,0-13.099,2.32-18.218,6.532L89.212,73.514h0.81C93.52,73.514,96.294,75.19,97.795,77.876z"/>
	<path fill="#538696" d="M88.893,112.634c0,0,2.67-1.016,2.67-2.587c0-0.786-0.002-7.731-5.317-7.755l0.003-0.002H86.22
		c-2.383,0-34.962,0-37.345,0H48.85l0.002,0.002c-5.317,0.023-5.319,6.969-5.319,7.755c0,1.571,2.672,2.587,2.672,2.587
		s5.315,2.586,21.343,2.586C83.577,115.22,88.893,112.634,88.893,112.634z"/>
	<path fill="#538696" d="M50.279,97.747h34.228c0,0,0.021-4.319-0.133-9.789c8.671-1.088,9.641-1.704,9.641-5.219
		c0-2.416-1.283-4.371-4.147-4.371h-5.942c-0.231-3.281-0.553-6.596-1.003-8.909c-0.728-3.752-3.387-6.794-6.42-7.614
		c-2.317-0.625-5.355-1.148-9.107-1.148c-3.757,0-6.793,0.523-9.108,1.148c-3.035,0.819-5.695,3.862-6.424,7.614
		c-0.447,2.312-0.77,5.627-0.999,8.909h-5.946c-2.865,0-4.148,1.955-4.148,4.371c0,3.515,1.165,4.164,9.645,5.228
		C50.26,93.433,50.279,97.747,50.279,97.747z"/>
	<path fill="#538696" d="M142.391,119.461c3.283,0,7.157,0.056,11.029,0.22V84.608h-30.743v19.854h-22.058v19.853H78.562v19.853
		H56.503v19.854h50.286c-0.099-3.119-0.131-6.166-0.131-8.824c0-7.091,0.234-16.945,1.342-23.602
		c0.922-5.533,5.257-9.869,10.791-10.791C125.447,119.695,135.3,119.461,142.391,119.461z"/>
	<path fill="#41135E" d="M169.822,132.755c-0.432-2.588-2.4-4.557-4.989-4.988c-7.479-1.246-19.949-1.246-22.442-1.246
		c-2.491,0-14.962,0-22.44,1.246c-2.589,0.432-4.558,2.4-4.989,4.988c-1.244,7.479-1.244,19.949-1.244,22.441
		c0,2.495,0,14.961,1.244,22.443c0.432,2.586,2.4,4.556,4.989,4.986c7.479,1.247,19.949,1.247,22.44,1.247
		c2.493,0,14.964,0,22.442-1.247c2.589-0.431,4.558-2.4,4.989-4.986c1.244-7.482,1.244-19.948,1.244-22.443
		C171.066,147.713,171.066,140.233,169.822,132.755z"/>
	<path fill="#FFFFFF" d="M154.581,144.646c0,2.26-0.459,4.069-1.377,5.424c-0.919,1.357-2.499,2.637-4.751,3.844l-2.752,1.412
		c-0.789,0.414-1.369,0.875-1.746,1.384c-0.375,0.509-0.562,1.066-0.562,1.669c0,0.528,0.066,1.035,0.198,1.523
		c0.131,0.491,0.347,1.039,0.649,1.639l-5.649,0.285c-0.581-0.566-1.039-1.197-1.371-1.896c-0.329-0.695-0.495-1.494-0.495-2.399
		c0-1.279,0.33-2.419,0.992-3.419c0.656-0.997,1.76-1.949,3.304-2.854l2.994-1.637c1.168-0.68,1.979-1.321,2.43-1.924
		c0.45-0.602,0.677-1.318,0.677-2.146c0-0.865-0.431-1.602-1.297-2.203c-0.871-0.602-2.167-0.904-3.901-0.904
		c-1.318,0-2.626,0.133-3.927,0.396c-1.297,0.263-2.646,0.659-4.039,1.188v-6.159c1.581-0.604,3.165-1.056,4.745-1.357
		c1.582-0.301,3.26-0.452,5.031-0.452c3.236,0,5.856,0.793,7.854,2.374C153.584,140.013,154.581,142.084,154.581,144.646z
		 M136.952,169.001c0-1.395,0.386-2.572,1.159-3.533c0.771-0.961,1.911-1.441,3.419-1.441c1.469,0,2.606,0.425,3.419,1.273
		c0.809,0.847,1.215,2.081,1.215,3.701c0,1.354-0.389,2.494-1.16,3.418c-0.772,0.922-1.912,1.383-3.418,1.383
		c-1.469,0-2.608-0.402-3.419-1.215C137.357,171.779,136.952,170.582,136.952,169.001z"/>
	<path fill="#42B704" d="M372.658,79.308c-1.994-0.45-4.385-0.834-6.607-1.09c-0.992-2.033-1.887-3.863-2.809-5.752
		c-0.15-0.312-0.418-0.472-0.727-0.472c-0.311,0-0.576,0.159-0.729,0.472c-0.92,1.889-1.816,3.719-2.809,5.752
		c-2.223,0.256-4.613,0.64-6.605,1.09c-0.678,0.162-0.924,1.076-0.469,1.583c1.367,1.51,3,3.234,4.65,4.892
		c-0.496,2.33-0.971,4.554-1.402,6.569c-0.109,0.683,0.676,1.168,1.332,0.86c1.988-0.893,4.146-1.898,6.031-3.146
		c1.883,1.248,4.041,2.254,6.029,3.146c0.656,0.308,1.443-0.178,1.332-0.86c-0.432-2.016-0.906-4.239-1.402-6.569
		c1.652-1.657,3.283-3.382,4.65-4.892C373.58,80.384,373.334,79.47,372.658,79.308z"/>
	<path fill="#42B704" d="M401.592,79.308c-1.994-0.45-4.385-0.834-6.607-1.09c-0.992-2.033-1.887-3.863-2.809-5.752
		c-0.15-0.312-0.418-0.472-0.727-0.472c-0.311,0-0.576,0.159-0.729,0.472c-0.92,1.889-1.816,3.719-2.809,5.752
		c-2.223,0.256-4.613,0.64-6.605,1.09c-0.678,0.162-0.924,1.076-0.469,1.583c1.367,1.51,3,3.234,4.65,4.892
		c-0.496,2.33-0.971,4.554-1.402,6.569c-0.109,0.683,0.676,1.168,1.332,0.86c1.988-0.893,4.146-1.898,6.031-3.146
		c1.883,1.248,4.041,2.254,6.029,3.146c0.656,0.308,1.443-0.178,1.332-0.86c-0.432-2.016-0.906-4.239-1.402-6.569
		c1.652-1.657,3.283-3.382,4.65-4.892C402.514,80.384,402.268,79.47,401.592,79.308z"/>
</g>
</svg>
