<?xml version="1.0" encoding="utf-8"?>
<!-- Generator: Adobe Illustrator 15.1.0, SVG Export Plug-In . SVG Version: 6.00 Build 0)  -->
<!DOCTYPE svg PUBLIC "-//W3C//DTD SVG 1.1//EN" "http://www.w3.org/Graphics/SVG/1.1/DTD/svg11.dtd">
<svg version="1.1" id="Layer_1" xmlns="http://www.w3.org/2000/svg" xmlns:xlink="http://www.w3.org/1999/xlink" x="0px" y="0px"
	 width="490.22px" height="230.332px" viewBox="0 0 490.22 230.332" enable-background="new 0 0 490.22 230.332"
	 xml:space="preserve">
<g>
	<polyline fill="#BFDCE8" points="490,230.233 0,230.233 0,0.233 490,0.233 490,230.233 	"/>
	<path fill="#41135E" d="M212.678,31.795c-0.51-3.057-2.836-5.383-5.895-5.893c-8.834-1.473-23.566-1.473-26.512-1.473
		c-2.943,0-17.676,0-26.51,1.473c-3.057,0.51-5.383,2.836-5.893,5.893c-1.471,8.834-1.471,23.566-1.471,26.511
		c0,2.947,0,17.674,1.471,26.513c0.51,3.055,2.836,5.382,5.893,5.89c8.834,1.474,23.566,1.474,26.51,1.474
		c2.945,0,17.678,0,26.512-1.474c3.059-0.508,5.385-2.835,5.895-5.89c1.469-8.839,1.469-23.565,1.469-26.513
		C214.146,49.465,214.146,40.629,212.678,31.795z"/>
	<path fill="#FFFFFF" d="M175.414,77.468c0-1.775,0.482-3.276,1.449-4.501c0.965-1.225,2.414-1.836,4.348-1.836
		c1.93,0,3.402,0.541,4.416,1.621c1.016,1.078,1.523,2.652,1.523,4.716c0,1.728-0.484,3.18-1.449,4.355
		c-0.967,1.177-2.416,1.765-4.348,1.765s-3.404-0.516-4.418-1.549C175.92,81.008,175.414,79.483,175.414,77.468z M176.639,36.354
		l9.936-0.792l-0.863,22.033v10.513l-9.072,0.215V36.354z"/>
	<path fill="#B25B06" d="M152.932,102.43h-20.742V74.773V47.115v-4.488c0-0.616-0.41-1.159-1.004-1.329L75.873,25.492
		c-0.881-0.252-1.762,0.414-1.762,1.332v47.949h16.594c1.527,0,2.766,1.239,2.766,2.766v66.375h22.125h3.965
		c0.973,0,1.875,0.508,2.371,1.345l15.789,26.312v24.891h16.594v-92.648C154.314,103.051,153.697,102.43,152.932,102.43"/>
	<rect x="112.83" y="174.336" fill="#DF7800" width="16.594" height="13.828"/>
	<path fill="#DF7800" d="M92.209,149.521L75.02,171.57c-0.432-0.216-0.686-0.6-0.217-1.534c7.943-15.78,13.137-25.893,13.137-25.893
		V81.688c0-0.762-0.621-1.383-1.383-1.383H31.244c-0.762,0-1.383,0.621-1.383,1.383v114.773h44.25h13.828h16.594V171.57
		l13.232-22.049H92.209z M68.58,94.133h8.297v8.297H68.58V94.133z M68.58,107.961h8.297v8.297H68.58V107.961z M68.58,121.789h8.297
		v8.297H68.58V121.789z M49.221,157.742h-8.297v-8.297h8.297V157.742z M49.221,143.914h-8.297v-8.297h8.297V143.914z
		 M49.221,130.086h-8.297v-8.297h8.297V130.086z M49.221,116.258h-8.297v-8.297h8.297V116.258z M49.221,102.43h-8.297v-8.297h8.297
		V102.43z M63.049,157.742h-8.297v-8.297h8.297V157.742z M63.049,143.914h-8.297v-8.297h8.297V143.914z M63.049,130.086h-8.297
		v-8.297h8.297V130.086z M63.049,116.258h-8.297v-8.297h8.297V116.258z M63.049,102.43h-8.297v-8.297h8.297V102.43z M68.58,135.617
		h8.297v8.297H68.58V135.617z"/>
	<path fill="#FFFFFF" d="M490.22,0H236.922c-0.036,0.077-0.072,0.156-0.107,0.233H490v230H224.918
		c0.013,0.033,0.024,0.065,0.036,0.099H490.22V0"/>
	<path fill="#E9F3F7" d="M490,0.233H236.814c-13.377,29.308,11.851,75.863,12.021,113.104c0.173,37.747-34.82,86.784-23.918,116.896
		H490V0.233"/>
	<rect x="328.311" y="170.966" fill="#009F18" width="16.127" height="13.437"/>
	<path fill="#1F4F03" d="M368.046,152.605c0.265-6.464,0.753-13.549,1.655-18.976c0.684-4.095,3.799-7.21,7.895-7.893
		c11.834-1.972,31.566-1.972,35.51-1.972c0.513,0,1.298,0,2.293,0.005l-9.146-22.868h-24.189V78.568
		c0-0.738-0.602-1.344-1.344-1.344h-4.84l-15.42-37.311c-0.457-1.104-2.025-1.104-2.482,0l-15.418,37.311h-4.842
		c-0.742,0-1.342,0.605-1.342,1.344v10.711c4.795,3.438,7.967,8.796,8.26,14.75c2.91,2.002,11.918,12.696,8.17,17.195
		C352.805,121.225,365.744,141.012,368.046,152.605z"/>
	<path fill="#41135E" d="M442.512,139.13c-0.51-3.057-2.836-5.383-5.895-5.893c-8.834-1.472-23.566-1.472-26.512-1.472
		c-2.943,0-17.676,0-26.51,1.472c-3.057,0.51-5.383,2.836-5.893,5.893c-1.471,8.834-1.471,23.565-1.471,26.51
		c0,2.947,0,17.673,1.471,26.512c0.51,3.055,2.836,5.382,5.893,5.89c8.834,1.474,23.566,1.474,26.51,1.474
		c2.945,0,17.678,0,26.512-1.474c3.059-0.508,5.385-2.835,5.895-5.89c1.469-8.839,1.469-23.564,1.469-26.512
		C443.98,156.8,443.98,147.964,442.512,139.13z"/>
	<path fill="#FFFFFF" d="M431.644,155.945l-21.605,28.528c-0.756,0.993-2.203,1.108-3.109,0.248l-18.385-17.524
		c-0.836-0.797-0.867-2.117-0.07-2.953l4.275-4.488c0.795-0.836,2.115-0.865,2.951-0.07l11.67,11.121l16.002-21.126
		c0.697-0.921,2.008-1.103,2.926-0.405l4.941,3.742C432.159,153.716,432.343,155.025,431.644,155.945z"/>
	<path fill="#1F4F03" d="M344.635,104.216c2.91,2.002,11.918,12.696,8.17,17.195c0,0,12.917,19.753,15.234,31.352
		c0.264-6.506,0.752-13.663,1.662-19.133c0.684-4.095,3.799-7.21,7.895-7.893c11.834-1.972,31.566-1.972,35.51-1.972
		c0.501,0,1.258,0,2.219,0.004l-9.072-22.681h-24.189V78.755c0-0.738-0.602-1.344-1.344-1.344h-4.84l-15.42-37.311
		c-0.457-1.104-2.025-1.104-2.482,0l-15.418,37.311h-4.842c-0.742,0-1.342,0.605-1.342,1.344v10.711
		C341.17,92.904,344.342,98.262,344.635,104.216z"/>
	<path fill="#009F18" d="M368.603,195.153c-0.869-10.854-0.87-23.008-0.87-26.014c0-1.716,0-6.422,0.162-12.165
		c-2.939-3.39-21.109-34.344-21.609-34.416l-0.023,0.032h-0.309c1.197-6.374-1.91-12.612-7.406-15.244
		c1.227-6.845-3.348-13.639-10.578-15.419c-3.674-0.904-7.344-0.338-10.34,1.304c-1.453-1.103-3.127-1.936-4.992-2.395
		c-7.51-1.848-15.176,2.929-17.555,10.743c-6.156,0.307-12.203,5.198-14.027,12.61c-1.422,5.772,0.189,11.708,3.355,15.42
		c-1.471,1.682-3.059,3.992-3.637,6.331c-1.27,5.166,0.893,10.051,4.373,13.388l13.545-18.564c0,0,20.105,4.037,20.83,4.199
		c0.811,0.18,0.811,0.811,0.727,1.062h-18.812l-21.502,29.563v29.563h37.629V165.59l19.328-29.563l18.297,29.563v29.563H368.603z"/>
</g>
</svg>
