<?xml version="1.0" encoding="utf-8"?>
<!-- Generator: Adobe Illustrator 15.1.0, SVG Export Plug-In . SVG Version: 6.00 Build 0)  -->
<!DOCTYPE svg PUBLIC "-//W3C//DTD SVG 1.1//EN" "http://www.w3.org/Graphics/SVG/1.1/DTD/svg11.dtd">
<svg version="1.1" id="Layer_1" xmlns="http://www.w3.org/2000/svg" xmlns:xlink="http://www.w3.org/1999/xlink" x="0px" y="0px"
	 width="490px" height="230.364px" viewBox="0 0 490 230.364" enable-background="new 0 0 490 230.364" xml:space="preserve">
<rect fill="#BFDCE8" width="490" height="230"/>
<path opacity="0.65" fill="#FFFFFF" d="M100.988,230.364h208.074c78.495-24.924,153.885-75.683,141.432-170.981
	c-2.906-22.243-9.744-41.718-19.649-58.4H123.357c21.987,24.685,45.657,56.752,46.137,100.4
	C170.353,179.525,117.899,208.802,100.988,230.364z"/>
<path fill="#8FC6E1" d="M330.314,37.16L296.848,6.701c-0.541-0.482-1.375-0.482-1.914,0L261.465,37.16
	c-0.582,0.518-0.912,1.252-0.912,2.021v2.035c0,0.76,0.633,1.374,1.412,1.374h5.656v28.321h56.543V42.59h5.652
	c0.779,0,1.414-0.614,1.414-1.374v-2.035C331.23,38.412,330.898,37.678,330.314,37.16z M303.061,34.656"/>
<path fill="#90CEE0" d="M263.158,72.308l-29.707-28.108c-0.48-0.447-1.219-0.447-1.699,0l-29.707,28.108
	c-0.518,0.48-0.811,1.157-0.811,1.865v1.879c0,0.702,0.561,1.269,1.254,1.269h5.018v26.138h50.189V77.32h5.02
	c0.691,0,1.254-0.566,1.254-1.269v-1.879C263.969,73.465,263.674,72.788,263.158,72.308z M238.965,69.998"/>
<circle fill="#4498B2" cx="183.088" cy="147.783" r="2.09"/>
<path fill="#73BBD8" d="M104.795,173.326L64.598,135.29c-0.648-0.603-1.65-0.603-2.299,0l-40.195,38.036
	c-0.699,0.649-1.098,1.563-1.098,2.522v2.542c0,0.947,0.76,1.716,1.697,1.716h6.791v35.368h67.908v-35.368h6.791
	c0.938,0,1.699-0.769,1.699-1.716v-2.542C105.893,174.89,105.494,173.976,104.795,173.326z"/>
<path fill="#41135E" d="M93.494,118.383"/>
<g>
	<path fill="#41135E" d="M359.527,186.774h-30.635V156.14h-20.42v30.635h-30.631v-40.843h-8.166c-1.139,0-2.049-0.911-2.049-2.04
		v-6.095c0-1.14,0.48-2.226,1.32-3.001l48.354-46.129c0.779-0.72,1.98-0.72,2.766,0l48.352,46.129
		c0.842,0.775,1.32,1.861,1.32,3.001v6.095c0,1.129-0.914,2.04-2.047,2.04h-8.164V186.774z"/>
</g>
<g>
	<path fill="#41135E" d="M464.248,180.774h-23.875V156.9h-15.912v23.874H400.59v-31.829h-6.363c-0.887,0-1.598-0.71-1.598-1.59
		v-4.749c0-0.889,0.375-1.734,1.029-2.339l37.682-35.948c0.607-0.561,1.545-0.561,2.156,0l37.68,35.948
		c0.656,0.604,1.029,1.45,1.029,2.339v4.749c0,0.88-0.713,1.59-1.596,1.59h-6.361V180.774z"/>
</g>
<g>
	<path fill="#41135E" d="M423.246,91.775h-23.873V67.901h-15.914v23.874h-23.871V59.946h-6.361c-0.889,0-1.598-0.71-1.598-1.59
		v-4.749c0-0.889,0.375-1.734,1.029-2.339L390.34,15.32c0.607-0.561,1.543-0.561,2.156,0l37.68,35.948
		c0.654,0.604,1.029,1.45,1.029,2.339v4.749c0,0.88-0.713,1.59-1.596,1.59h-6.363V91.775z"/>
</g>
<g>
	<path fill="#41135E" d="M120.248,92.275H96.375V68.401H80.461v23.874H56.59V60.446h-6.361c-0.889,0-1.598-0.71-1.598-1.59v-4.749
		c0-0.889,0.375-1.734,1.029-2.339L87.342,15.82c0.607-0.561,1.543-0.561,2.156,0l37.68,35.948c0.654,0.604,1.029,1.45,1.029,2.339
		v4.749c0,0.88-0.713,1.59-1.596,1.59h-6.363V92.275z"/>
</g>
<path fill="#E1AA09" d="M243.701,96.255H119.758c-2.535,0-4.588,2.296-4.588,5.131v87.199c0,2.834,2.053,5.131,4.588,5.131h52.465
	v33.279h19.018v-29.622l-13.729-2.734c-0.822-0.264-0.701-0.796-0.65-0.941l66.84,0.019c2.535,0,4.592-2.297,4.592-5.131v-87.199
	C248.293,98.551,246.236,96.255,243.701,96.255z"/>
<g>
	<path fill="#FFFFFF" d="M143.885,156.464h4.118v8.489h1.71l5.987-8.489h4.72l-7.096,9.725l7.317,11.055h-5.132l-5.732-8.933h-1.774
		v8.933h-4.118V156.464z"/>
	<path fill="#FFFFFF" d="M160.356,167.043c0-3.526,1.017-6.219,3.052-8.077c2.034-1.857,4.412-2.787,7.132-2.787
		c2.678,0,4.966,0.854,6.862,2.565c1.898,1.711,2.847,4.351,2.847,7.919c0,3.527-1.007,6.22-3.021,8.078s-4.381,2.787-7.1,2.787
		c-2.699,0-5.002-0.855-6.91-2.565C161.311,173.252,160.356,170.612,160.356,167.043z M164.664,166.695
		c0,2.576,0.557,4.413,1.668,5.512c1.111,1.098,2.44,1.646,3.986,1.646c1.398,0,2.685-0.538,3.859-1.615
		c1.176-1.077,1.764-2.819,1.764-5.227c0-2.576-0.551-4.419-1.652-5.527s-2.425-1.663-3.971-1.663c-1.439,0-2.742,0.544-3.906,1.631
		C165.246,162.54,164.664,164.287,164.664,166.695z"/>
	<path fill="#FFFFFF" d="M183.258,167.043c0-3.526,1.018-6.219,3.053-8.077c2.033-1.857,4.411-2.787,7.131-2.787
		c2.678,0,4.966,0.854,6.863,2.565s2.846,4.351,2.846,7.919c0,3.527-1.006,6.22-3.02,8.078s-4.381,2.787-7.1,2.787
		c-2.699,0-5.002-0.855-6.91-2.565C184.212,173.252,183.258,170.612,183.258,167.043z M187.566,166.695
		c0,2.576,0.556,4.413,1.668,5.512c1.111,1.098,2.439,1.646,3.986,1.646c1.397,0,2.684-0.538,3.859-1.615
		c1.175-1.077,1.764-2.819,1.764-5.227c0-2.576-0.552-4.419-1.652-5.527c-1.102-1.108-2.426-1.663-3.971-1.663
		c-1.44,0-2.742,0.544-3.907,1.631C188.148,162.54,187.566,164.287,187.566,166.695z"/>
	<path fill="#FFFFFF" d="M211.418,170.18v7.063h-4.117v-20.779h6.746c2.323,0,4.119,0.612,5.386,1.837s1.9,2.799,1.9,4.72
		c0,2.196-0.708,3.96-2.122,5.29c-1.415,1.33-3.263,1.995-5.543,1.995c-0.424,0-0.813-0.01-1.172-0.031
		C212.137,170.254,211.777,170.222,211.418,170.18z M211.355,159.727v7.189c0.273,0.043,0.57,0.074,0.887,0.096
		s0.612,0.031,0.887,0.031c1.183,0,2.127-0.328,2.835-0.985s1.062-1.569,1.062-2.736c0-1.146-0.301-2.031-0.902-2.656
		c-0.603-0.626-1.506-0.938-2.709-0.938H211.355z"/>
</g>
<g>
	<path fill="#FFFFFF" d="M222.328,144.775h-10.562v-10.562h-7.039v10.562h-10.561v-14.081h-2.816c-0.391,0-0.705-0.314-0.705-0.703
		v-2.102c0-0.393,0.166-0.767,0.455-1.034l16.67-15.903c0.268-0.248,0.682-0.248,0.953,0l16.67,15.903
		c0.289,0.268,0.455,0.642,0.455,1.034v2.102c0,0.389-0.314,0.703-0.705,0.703h-2.814V144.775z"/>
</g>
<g>
	<path fill="#FFFFFF" d="M145.648,104.2c2.652,0,4.953,0.864,6.902,2.592c1.949,1.729,2.924,4.641,2.924,8.739
		c0,3.858-1.066,6.731-3.195,8.62c-2.131,1.889-4.5,2.832-7.111,2.832c-2.572,0-4.844-0.763-6.812-2.29
		c-1.969-1.526-2.953-4.42-2.953-8.68c0-3.978,1.035-6.94,3.105-8.891C140.576,105.175,142.957,104.2,145.648,104.2z
		 M145.469,109.384c-0.965,0-1.83,0.434-2.592,1.303c-0.764,0.868-1.145,2.473-1.145,4.815c0,2.463,0.34,4.128,1.023,4.997
		c0.684,0.868,1.568,1.301,2.652,1.301c1.045,0,1.93-0.424,2.652-1.271c0.723-0.848,1.084-2.302,1.084-4.362
		c0-2.623-0.352-4.41-1.055-5.359S146.514,109.384,145.469,109.384z M164.395,103.235l4.883,1.929l-16.033,40.686l-4.883-1.929
		L164.395,103.235z M172.502,121.8c2.701,0,5.018,0.865,6.953,2.592c1.934,1.729,2.902,4.642,2.902,8.74
		c0,3.857-1.059,6.731-3.174,8.619c-2.117,1.89-4.506,2.833-7.166,2.833c-2.578,0-4.855-0.763-6.83-2.29
		c-1.977-1.527-2.963-4.42-2.963-8.68c0-3.979,1.039-6.941,3.113-8.891C167.414,122.775,169.801,121.8,172.502,121.8z
		 M172.26,126.983c-0.973,0-1.832,0.435-2.582,1.303s-1.125,2.474-1.125,4.815c0,2.464,0.334,4.129,1.004,4.997
		c0.668,0.868,1.549,1.302,2.643,1.302s2.006-0.424,2.734-1.271s1.094-2.302,1.094-4.361c0-2.624-0.365-4.41-1.094-5.359
		S173.314,126.983,172.26,126.983z"/>
</g>
<path fill="#8FC6E1" d="M56.552,0.986H11.735l-4.21,3.831C7.076,5.218,6.82,5.785,6.82,6.38v1.573c0,0.588,0.49,1.062,1.094,1.062
	h4.373v21.897h43.719V9.016h4.371c0.602,0,1.092-0.475,1.092-1.062V6.38c0-0.595-0.256-1.162-0.707-1.562L56.552,0.986z"/>
</svg>
