<?xml version="1.0" encoding="UTF-8" standalone="no"?>
<!-- Generator: Adobe Illustrator 15.1.0, SVG Export Plug-In . SVG Version: 6.00 Build 0)  -->

<svg
   xmlns:dc="http://purl.org/dc/elements/1.1/"
   xmlns:cc="http://creativecommons.org/ns#"
   xmlns:rdf="http://www.w3.org/1999/02/22-rdf-syntax-ns#"
   xmlns:svg="http://www.w3.org/2000/svg"
   xmlns="http://www.w3.org/2000/svg"
   xmlns:sodipodi="http://sodipodi.sourceforge.net/DTD/sodipodi-0.dtd"
   xmlns:inkscape="http://www.inkscape.org/namespaces/inkscape"
   version="1.1"
   id="Layer_1"
   x="0px"
   y="0px"
   width="26.632999"
   height="23.177999"
   viewBox="0 0 26.632999 23.177999"
   enable-background="new 0 0 64 64"
   xml:space="preserve"
   inkscape:version="0.91 r13725"
   sodipodi:docname="refresh.svg"><metadata
     id="metadata21"><rdf:RDF><cc:Work
         rdf:about=""><dc:format>image/svg+xml</dc:format><dc:type
           rdf:resource="http://purl.org/dc/dcmitype/StillImage" /><dc:title></dc:title></cc:Work></rdf:RDF></metadata><defs
     id="defs19" /><sodipodi:namedview
     pagecolor="#ffffff"
     bordercolor="#666666"
     borderopacity="1"
     objecttolerance="10"
     gridtolerance="10"
     guidetolerance="10"
     inkscape:pageopacity="0"
     inkscape:pageshadow="2"
     inkscape:window-width="804"
     inkscape:window-height="480"
     id="namedview17"
     showgrid="false"
     fit-margin-top="0"
     fit-margin-left="0"
     fit-margin-right="0"
     fit-margin-bottom="0"
     inkscape:zoom="3.6875"
     inkscape:cx="13.556"
     inkscape:cy="11.125"
     inkscape:window-x="0"
     inkscape:window-y="0"
     inkscape:window-maximized="0"
     inkscape:current-layer="Layer_1" /><g
     id="g3"
     transform="translate(-18.444,-19.947)"><path
       d="m 33.582,41.393 c -0.672,0.242 -1.375,0.414 -2.102,0.514 l 0.059,1.145 c 0.86,-0.111 1.692,-0.314 2.483,-0.604 l -0.44,-1.055 z"
       id="path5"
       inkscape:connector-curvature="0"
       style="fill:#1a1a18" /><path
       d="m 23.428,39.645 -0.639,0.949 c 0.603,0.484 1.254,0.91 1.945,1.268 l 0.318,-1.123 c -0.576,-0.313 -1.12,-0.68 -1.624,-1.094 z"
       id="path7"
       inkscape:connector-curvature="0"
       style="fill:#1a1a18" /><path
       d="m 27.102,41.585 -0.311,1.099 c 0.815,0.236 1.67,0.389 2.549,0.441 L 29.281,41.979 C 28.528,41.924 27.799,41.79 27.102,41.585 Z"
       id="path9"
       inkscape:connector-curvature="0"
       style="fill:#1a1a18" /><path
       d="m 20.752,36.346 -0.981,0.584 c 0.396,0.754 0.872,1.459 1.417,2.104 l 0.663,-0.988 c -0.418,-0.528 -0.787,-1.099 -1.099,-1.7 z"
       id="path11"
       inkscape:connector-curvature="0"
       style="fill:#1a1a18" /><path
       d="m 37.183,39.193 c -0.497,0.463 -1.038,0.879 -1.616,1.238 l 0.445,1.066 c 0.716,-0.432 1.383,-0.939 1.986,-1.51 l -0.815,-0.794 z"
       id="path13"
       inkscape:connector-curvature="0"
       style="fill:#1a1a18" /><path
       d="m 18.444,31.548 c 0,1.155 0.169,2.271 0.483,3.322 l 1.016,-0.604 c -0.232,-0.867 -0.359,-1.778 -0.359,-2.719 0,-5.776 4.684,-10.459 10.461,-10.459 5.591,0 10.141,4.387 10.432,9.904 l -3.443,-3.234 -0.785,0.838 4.94,4.653 3.888,-5.66 -0.955,-0.639 -2.506,3.742 c -0.438,-6.008 -5.451,-10.745 -11.57,-10.745 -6.406,0 -11.599,5.193 -11.602,11.601 z"
       id="path15"
       inkscape:connector-curvature="0"
       style="fill:#1a1a18" /></g></svg>