<?xml version="1.0" encoding="UTF-8" standalone="no"?>
<!-- Created with Inkscape (http://www.inkscape.org/) -->

<svg
   xmlns:dc="http://purl.org/dc/elements/1.1/"
   xmlns:cc="http://creativecommons.org/ns#"
   xmlns:rdf="http://www.w3.org/1999/02/22-rdf-syntax-ns#"
   xmlns:svg="http://www.w3.org/2000/svg"
   xmlns="http://www.w3.org/2000/svg"
   xmlns:sodipodi="http://sodipodi.sourceforge.net/DTD/sodipodi-0.dtd"
   xmlns:inkscape="http://www.inkscape.org/namespaces/inkscape"
   id="svg2"
   version="1.1"
   inkscape:version="0.91 r13725"
   xml:space="preserve"
   width="439.39075"
   height="92.09375"
   viewBox="0 0 439.39075 92.093751"
   sodipodi:docname="RO-logo-vws.svg"><metadata
     id="metadata8"><rdf:RDF><cc:Work
         rdf:about=""><dc:format>image/svg+xml</dc:format><dc:type
           rdf:resource="http://purl.org/dc/dcmitype/StillImage" /><dc:title></dc:title></cc:Work></rdf:RDF></metadata><defs
     id="defs6"><clipPath
       clipPathUnits="userSpaceOnUse"
       id="clipPath18"><path
         d="m 0,0 2299.63,0 0,921 L 0,921 0,0 Z"
         id="path20"
         inkscape:connector-curvature="0" /></clipPath></defs><sodipodi:namedview
     pagecolor="#ffffff"
     bordercolor="#666666"
     borderopacity="1"
     objecttolerance="10"
     gridtolerance="10"
     guidetolerance="10"
     inkscape:pageopacity="0"
     inkscape:pageshadow="2"
     inkscape:window-width="1698"
     inkscape:window-height="912"
     id="namedview4"
     showgrid="false"
     inkscape:zoom="3.1309792"
     inkscape:cx="171.55357"
     inkscape:cy="-28.837742"
     inkscape:window-x="0"
     inkscape:window-y="0"
     inkscape:window-maximized="0"
     inkscape:current-layer="g10"
     fit-margin-top="0"
     fit-margin-left="198"
     fit-margin-right="0"
     fit-margin-bottom="0" /><g
     id="g10"
     inkscape:groupmode="layer"
     inkscape:label="ink_ext_XXXXXX"
     transform="matrix(1.25,0,0,-1.25,174.96825,115.125)"><g
       id="g12"
       transform="scale(0.1,0.1)"><g
         id="g14"><g
           id="g16"
           clip-path="url(#clipPath18)"><path
             d="m 184.254,184.25 368.504,0 0,737.004 -368.504,0 0,-737.004 z"
             style="fill:#0f578e;fill-opacity:1;fill-rule:nonzero;stroke:none"
             id="path22"
             inkscape:connector-curvature="0" /><path
             d="m 386.809,433.66 c 0,-1.597 0.984,-3.941 3.125,-3.269 0.105,0.05 0.203,0.019 0.179,-0.086 -0.328,-1.789 -3.511,-3.418 -4.968,-1.313 -1.29,-2.722 -0.989,-5.269 1.796,-6.773 0.153,-0.09 0.184,-0.285 0.008,-0.41 -1.66,-1.211 -4.25,-0.942 -5.457,1.382 -2.281,-1.714 -1.949,-5.386 -0.562,-6.636 0,-0.024 -6.328,-3.762 -12.075,-1.086 -3.804,1.828 -6.906,4.16 -11.82,3.777 0.684,6.887 4.125,8.703 10.453,9.692 5.063,0.82 5.703,3.14 4.985,4.902 -1.719,0.457 -4.868,-1.125 -4.868,-1.125 -0.562,0.945 0.254,1.933 0.254,1.933 -0.308,0.379 -0.464,1.653 -0.464,1.653 3.535,0 4.16,0.777 4.16,0.777 0.629,3.684 -3.121,4.074 -5.981,2.094 -1.328,1.172 -1.109,2.73 -1.109,2.73 -0.399,0.2 -0.649,0.813 -0.649,1.078 0,0.868 4.196,3.231 5.278,3.504 0.269,1.219 1.797,2.911 6.25,2.508 0.531,1.184 -0.332,5.492 -0.879,6.653 -0.18,0.351 0.078,0.546 0.469,0.3 1.554,-0.984 3.101,-4.617 4.16,-4.683 0,0 5.008,2.625 5.254,2.476 0.238,-0.133 0.945,-5.73 0.945,-5.73 0.664,-0.82 4.531,-0.02 6.223,-0.742 0.425,-0.188 0.41,-0.496 0.027,-0.555 -1.266,-0.219 -5.297,-1.953 -5.961,-3.066 2.313,-3.469 1.227,-8.579 1.227,-9.985 z m -44.696,-2.847 c -0.375,-0.52 -1.609,0.015 -2.078,0.234 -0.109,0.047 -0.129,0 -0.09,-0.078 0.297,-0.664 1.493,-2.656 3.258,-2.656 0.801,0 1.969,0.464 2.301,1.003 0,0 6.918,-2.246 10.34,-3.195 -1.328,-1.766 -2.156,-3.894 -2.324,-6.211 -2.758,1.699 -13.797,7.617 -13.797,7.617 l -3.422,-4.675 c -0.571,-0.774 -3.305,1.218 -2.738,2.003 l 2.613,3.575 c -0.863,0.918 -2.949,0.34 -3.516,0.175 -0.078,-0.019 -0.148,0.016 -0.078,0.157 0.332,0.703 1.633,2.871 4.883,1.89 0.012,1.985 -2.949,1.352 -3.719,1.133 -0.094,-0.015 -0.125,0.024 -0.039,0.11 0.801,0.859 3.203,2.8 5.895,1.21 l 1.168,1.614 -2.368,2.488 1.485,2.039 1.66,-2.234 12.746,17.453 c 0.312,0.43 2.836,1.16 3.789,1.363 0.102,-0.973 0.211,-3.594 -0.094,-4.019 l -12.535,-17.61 2.645,-0.871 -1.461,-2.051 -3.121,1.457 -1.403,-1.921 z m 95.078,-91.836 c 0.164,0.027 0.188,0.156 0.079,0.234 -1.657,1.07 -2.946,2.566 -2.946,4.207 0,2.93 5.621,6.777 8.309,6.777 1.597,0 2.75,-1.914 5.828,-1.914 1.598,0 3.457,0.645 4.996,2.578 0.113,0.149 0.051,0.266 -0.133,0.235 -1.277,-0.203 -4.754,-1.067 -6.375,5.215 -1.679,6.535 -2.246,11.281 0.653,13.781 2.453,2.105 13.242,6.199 19.179,8.465 0.321,0.129 0.293,0.343 0,0.41 -1.64,0.461 -3.242,1.457 -3.457,3.476 -0.144,1.258 0.117,2.981 1.543,3.821 -2.933,3.172 -8.75,5.39 -11.816,5.39 -11.746,0 -21.711,-15.918 -26.485,-15.918 -0.593,0 -1.371,0.223 -2.07,1.239 -0.156,0.215 -0.32,0.234 -0.32,-0.125 0,-4.805 2.547,-5.239 3.898,-5.239 0.77,-0.007 1.594,0.239 2.184,0.571 0.156,0.097 0.234,0.027 0.234,-0.149 0,-0.195 -0.039,-0.672 -0.039,-1.004 0,-5.668 5.918,-11.855 5.918,-11.855 -2.676,-2.785 -9.363,-7.461 -11.234,-4.973 -0.797,1.004 -4.301,7.317 -8.981,2.293 -0.164,-0.183 -0.051,-0.398 0.266,-0.398 2.637,0 4.691,-1.797 3.984,-4.524 -3.797,3.032 -9.035,2.539 -9.035,-4.453 0,-0.269 0.274,-0.332 0.41,-0.133 2.5,3.59 6.457,1.161 7.028,0.645 -2.653,-0.402 -7.25,-3.52 -3.207,-9.043 0.168,-0.246 0.328,-0.188 0.351,0 0.414,3.633 2.625,4.246 4.43,4.246 3.711,0 6.418,-3.406 9.25,0.215 1.019,-4.734 6.281,-4.285 7.558,-4.07 z m -129.82,4.07 c 2.832,-3.621 5.543,-0.215 9.254,-0.215 1.809,0 4.02,-0.613 4.434,-4.246 0.019,-0.188 0.175,-0.246 0.351,0 4.043,5.523 -0.558,8.641 -3.211,9.043 0.571,0.516 4.528,2.945 7.031,-0.645 0.137,-0.199 0.411,-0.136 0.411,0.133 0,6.992 -5.243,7.485 -9.036,4.453 -0.71,2.727 1.344,4.524 3.985,4.524 0.316,0 0.43,0.215 0.265,0.398 -4.683,5.024 -8.191,-1.289 -8.984,-2.293 -1.871,-2.488 -8.558,2.188 -11.23,4.973 0,0 5.914,6.187 5.914,11.855 0,0.332 -0.039,0.809 -0.039,1.004 0,0.176 0.078,0.246 0.238,0.149 0.586,-0.332 1.414,-0.578 2.176,-0.571 1.351,0 3.906,0.434 3.906,5.239 0,0.359 -0.164,0.34 -0.32,0.125 -0.703,-1.016 -1.481,-1.239 -2.078,-1.239 -4.77,0 -14.735,15.918 -26.485,15.918 -3.062,0 -8.875,-2.218 -11.808,-5.39 1.418,-0.84 1.687,-2.563 1.543,-3.821 -0.215,-2.019 -1.817,-3.015 -3.458,-3.476 -0.292,-0.067 -0.32,-0.281 0,-0.41 5.93,-2.266 16.727,-6.36 19.18,-8.465 2.899,-2.5 2.332,-7.246 0.653,-13.781 -1.625,-6.282 -5.098,-5.418 -6.375,-5.215 -0.188,0.031 -0.25,-0.086 -0.133,-0.235 1.535,-1.933 3.394,-2.578 4.992,-2.578 3.078,0 4.23,1.914 5.828,1.914 2.688,0 8.305,-3.847 8.305,-6.777 0,-1.641 -1.285,-3.137 -2.938,-4.207 -0.109,-0.078 -0.09,-0.207 0.071,-0.234 1.285,-0.215 6.542,-0.664 7.558,4.07 z m 55.438,94.656 c 2.046,0.52 4.3,0.277 4.539,0.199 0.324,-0.109 0.312,-0.597 -0.051,-0.644 -4.274,-0.547 -4.469,-2.512 -7.195,-2.512 -1.797,0 -3.739,1.809 -3.008,4.473 0.094,0.344 0.363,0.351 0.441,0.027 0.274,-1.148 1.934,-2.398 5.274,-1.543 z m 10.699,7.168 c -2.903,0.18 -4.758,-0.469 -4.668,-1.394 1.41,-1.485 3.285,-1.321 4.668,1.394 z m -24.422,-75.484 c -1.613,-1.977 -3.031,-0.09 -5.148,-0.09 -2,0 -2.333,-1.668 -2.379,-2.332 -0.012,-0.117 -0.079,-0.168 -0.164,-0.039 -2.258,3.086 0.265,4.765 1.742,4.988 -0.215,0.215 -2.438,1.711 -3.856,-0.344 -0.105,-0.144 -0.242,-0.078 -0.242,0.102 -0.07,3.828 2.969,4.101 4.969,2.422 0.363,1.441 -0.574,2.422 -2.195,2.5 -0.196,0 -0.227,0.125 -0.149,0.215 0.68,0.73 1.34,1.062 2.004,1.062 2.133,0 2.402,-2.695 3.793,-2.695 2.09,0 5.043,2.812 5.328,3.117 -0.059,0.152 -2.059,5.566 -1.66,8.809 0.019,0.132 -0.055,0.156 -0.149,0.093 -1.003,-0.562 -3.57,-0.543 -3.57,2.61 0,0.254 0.074,0.273 0.219,0.07 1.121,-1.555 2.941,0.191 3.851,1.219 0.985,1.094 6.239,8.75 13.254,8.75 1.543,-0.008 3.536,-0.852 5.137,-1.961 -2.422,-2.949 -0.016,-5.774 1.777,-5.41 0.211,0.039 0.25,-0.157 0.051,-0.227 -9.273,-3.484 -13.418,-4.883 -13.418,-12.644 0,-4.055 1.387,-6.301 3.766,-5.774 0.18,0.051 0.226,-0.027 0.101,-0.168 -0.859,-1.023 -1.855,-1.363 -2.679,-1.363 -1.926,0 -2.274,1.055 -3.309,1.055 -1.062,0 -4.515,-2.036 -4.515,-3.735 0,-0.64 0.406,-1.512 1.625,-2.312 0.082,-0.047 0.035,-0.117 -0.032,-0.125 -0.777,-0.149 -3.515,-0.383 -4.152,2.207 z m -12.527,32.968 -3.625,0.938 -0.301,-0.449 -4.203,1.844 c 0,0 3.097,0.019 3.758,0.031 0.351,0 0.375,0.222 0.191,0.398 -1.715,1.68 -3.215,3.145 -3.215,3.145 0,0 1.711,-0.633 4.152,-1.543 0.278,-0.098 0.379,0.105 0.247,0.293 -1.168,1.726 -2.766,4.054 -2.766,4.054 0,0 3.383,-2.265 4.07,-2.726 0.223,-0.156 0.399,-0.012 0.305,0.215 -0.902,2.238 -1.93,4.765 -1.93,4.765 l 3.715,-3.504 c 0.172,-0.16 0.363,-0.07 0.313,0.164 -0.36,1.672 -1.024,4.766 -1.024,4.766 l 2.723,-3.984 c 0.164,-0.235 0.367,-0.164 0.371,0.105 0.015,0.785 0.09,4.36 0.09,4.36 0,0 1.144,-2.637 1.726,-3.989 0.117,-0.269 0.324,-0.293 0.469,0.063 0.184,0.429 1.402,3.367 1.402,3.367 l 0.161,-4.531 -0.606,-0.117 -0.762,-5.457 c 5.41,1.265 12.149,10.515 17.317,10.515 6.152,0 8.386,-7.207 19.758,-3.555 2.867,-4.246 3.875,-7.937 4.984,-13.046 4.383,-4.129 10.551,-2.754 10.551,1.621 0,5.886 -6.422,7.011 -6.422,13.156 0,2.742 1.926,6.687 7.168,6.687 2.773,0 6.84,-1.191 9.179,-1.191 2.778,0 3.372,2.012 3.68,2.844 0.258,0.625 1.012,0.418 0.942,-0.071 -0.094,-0.578 0.32,-1.375 0.32,-2.695 0,-3.887 -5.652,-4.394 -6.359,-3.918 -0.293,0.207 -0.5,-0.105 -0.293,-0.269 0.851,-0.688 0.66,-3 -0.348,-4.473 -0.125,-0.168 -0.281,-0.141 -0.317,0.02 -0.601,2.781 -3.871,6.218 -6.746,6.218 -1.058,0 -3.164,-0.613 -3.164,-3.054 0,-3.497 7,-6.68 7,-13.926 0,-7.531 -7.461,-9.336 -14.961,-7.461 0.254,-7.129 10.903,-11.367 11.157,-6.274 0.011,0.356 0.203,0.137 0.308,-0.007 1.582,-2.176 0.864,-3.836 -1.148,-4.676 1.851,-0.84 2.183,-4.582 2.73,-6.817 0.817,-3.351 4.371,-1.496 4.547,-1.398 0.192,0.117 0.262,0.012 0.184,-0.203 -1.352,-3.488 -4.922,-2.168 -4.922,-2.168 -1.875,-1.32 0.39,-2.5 2.09,-3.012 0.254,-0.066 0.238,-0.254 0.039,-0.332 -1.258,-0.457 -3.938,-1.297 -5.239,0.949 -0.96,-2.324 -2.941,-2.254 -3.71,-2.254 -1.372,0 -2.286,-1.41 -1.961,-3.285 0.031,-0.164 -0.086,-0.211 -0.211,-0.113 -3.27,2.168 -1.391,4.715 -0.075,5.352 -0.226,0.132 -2.476,1.074 -3.433,-1.567 -0.074,-0.203 -0.203,-0.215 -0.277,-0.015 -1.422,3.796 1.691,4.902 3.937,3.945 -0.156,0.535 -1.332,2.39 -4.285,1.797 -0.133,-0.039 -0.223,0.015 -0.141,0.203 0.485,1.164 1.949,2.883 4.629,1.144 1.367,-0.851 3.735,0.391 3.945,0.496 -4.761,9.485 -14.019,1.543 -16.089,8.973 -0.039,0.156 -0.227,0.297 -0.356,-0.113 -0.492,-1.582 -4.527,-1.692 -5.269,1.426 -0.063,0.242 0.031,0.269 0.187,0.117 0.594,-0.598 1.859,-1.133 3.531,1.277 1.106,1.594 1.258,3.723 1.258,5.164 0,5.774 -5.762,15.453 -14.742,15.453 -5.68,0 -11.785,-2.218 -16.316,-5.519 l 4.218,-0.965 c -0.398,-4.27 -4.5,-6.75 -8.269,-5.703 l 0.652,4.883 c -0.652,-0.207 -2.308,-0.793 -3.191,-2.051 -0.067,-0.102 -0.196,-0.07 -0.227,0.039 -0.769,2.762 1.516,4.156 2.227,4.519 0.078,0.047 0.074,0.11 -0.074,0.11 -2.043,0.078 -3.196,-1.43 -3.52,-1.945 -0.055,-0.079 -0.141,-0.059 -0.164,0.007 -0.168,0.508 -0.527,1.938 0.43,2.953 z m 31.949,-89.511 c 35.816,0 72.191,-1.875 76.945,-7.278 0.383,-0.429 0.539,0.008 0.539,0.332 L 446,324.883 c 0,5.539 -37.527,8.762 -77.492,8.762 -39.973,0 -77.496,-3.223 -77.496,-8.762 l 0.008,-18.985 c 0,-0.324 0.156,-0.761 0.539,-0.332 4.754,5.403 41.129,7.278 76.949,7.278 z m 58.441,-8.481 0,-8.23 c 0,-13.992 23.047,-0.867 45.293,0.547 18.465,1.211 23.621,-3.504 23.621,-3.504 l -3.386,18.672 c -0.18,1.011 -4.172,3.886 -16.911,3.886 -15.316,0 -23.003,-2.929 -25.804,-3.918 l 0,-9.804 c 0,-2.235 -1.125,-3.328 -2.824,-4.012 0,0.816 -2.559,6.363 -19.989,6.363 z M 290.074,298 c -1.699,0.684 -2.824,1.777 -2.824,4.012 l 0,9.804 c -2.809,0.989 -10.488,3.918 -25.809,3.918 -12.734,0 -16.722,-2.875 -16.91,-3.886 l -3.383,-18.672 c 0,0 5.157,4.715 23.622,3.504 22.246,-1.414 45.293,-14.539 45.293,-0.547 l 0,8.23 c -17.434,0 -19.989,-5.547 -19.989,-6.363 z m 42.41,161.766 c -5.343,-1.172 -9.183,-2.278 -10.902,-2.801 0.09,2.359 0.984,4.551 3.09,5.039 0.269,0.066 0.34,0.43 0.09,0.594 -4.766,3.164 -7.321,-2.903 -7.395,-3.094 -1.687,0.125 -4.262,-0.402 -4.262,-2.688 0,-6.828 -15.617,-10.617 -19.234,-11.171 6.379,-2.461 9.035,-10.497 9.035,-10.497 4.629,4.629 10.043,8.711 11.235,8.711 1.23,0 1.699,-1.543 1.797,-2.461 0.031,-0.304 0.312,-0.402 0.503,-0.136 2.422,3.609 1.258,4.429 1.063,5.496 -0.156,0.84 0.09,4.004 3.625,3.633 l 0,-45.555 -1.816,-0.363 c -0.836,-0.149 -7.497,5.515 -15.125,10.793 -7.625,5.269 -11.723,2.117 -20.422,-2.59 -11.379,-6.16 -22.891,-0.574 -22.891,-0.574 -9.816,-7.012 -13.156,-27.286 -13.156,-27.286 -1.953,-0.839 -5.196,-1.718 -8.266,-1.718 -7.488,0 -8.867,4.531 -8.867,7.246 0,11.558 14.477,16.519 14.477,27.918 0,2.765 -1.27,14.015 -15.184,14.015 -1.781,0 -12.402,0.02 -12.453,0.02 -5.207,0 -6.512,3.75 -7.235,5.183 -0.281,0.555 -0.812,0.235 -0.613,-0.203 0.402,-0.961 -0.598,-2.414 -0.598,-5.304 0,-4.629 2.719,-7.41 7.782,-7.41 2.304,0 4.472,0.652 5.176,1.074 0.468,0.269 0.718,-0.176 0.5,-0.434 -2.208,-2.574 -2.383,-7.398 -1.477,-8.57 0.215,-0.285 0.484,-0.207 0.539,0.019 1.219,4.891 5.801,9.508 11.969,9.508 7.547,0 7.508,-6.414 7.508,-7.969 0,-9.273 -16.293,-16.082 -16.293,-28.836 0,-12.937 13.668,-15.71 21.586,-13.664 -0.465,-12.949 -15.29,-17.363 -15.739,-8.093 -0.035,0.437 -0.351,0.547 -0.593,-0.039 -1.875,-4.579 -1.133,-8.606 4.636,-9.883 0.391,-0.098 0.199,-0.313 -0.156,-0.559 -5.711,-3.633 -2.617,-17.906 -2.332,-22.105 0.43,-6.059 -5.594,-5.332 -6.086,-5.157 -0.246,0.094 -0.488,-0.031 -0.105,-0.507 4.265,-5.239 9.539,-0.45 9.539,-0.45 3.984,-1.25 1.515,-4.648 -1.141,-6.425 -0.414,-0.285 -0.383,-0.559 0.066,-0.586 0.598,-0.039 6.762,-0.559 7.864,4.351 2.726,-3.258 6.742,-2.066 7.586,-1.636 1.187,0.601 6.964,2.703 7.539,-3.789 0.035,-0.469 0.308,-0.168 0.5,0.078 4.363,5.488 -0.313,8.875 -2.91,9.277 0.207,0.301 3.71,3.199 6.855,-0.82 0.211,-0.278 0.41,-0.332 0.449,0.215 0.36,6.96 -5.304,7.593 -8.972,4.57 -0.168,0.711 -1.391,4.629 4.148,4.492 0.133,0 0.395,0.191 0.117,0.469 -4.297,4.539 -7.832,0.41 -8.652,-0.578 -1.914,-2.254 -6.68,-1.36 -7.121,-1.297 1.496,24.199 22.812,15.625 25.742,27.383 0.137,0.625 0.418,0.386 0.476,0.164 0.805,-2.871 8.04,-3.274 9.368,2.382 0.074,0.352 0.031,0.625 -0.223,0.364 -6.172,-6.164 -20.07,13.101 -1.105,28.758 16.191,13.347 30.703,5.91 36.222,1.511 0.293,-1.929 -0.859,-2.554 -1.597,-2.793 -0.262,-0.078 -0.348,-0.32 0.074,-0.484 1.543,-0.586 3.715,-0.402 4.734,1.043 3.477,-2.434 0.5,-5.488 -0.906,-6.336 -0.359,-0.227 -0.199,-0.461 0.098,-0.52 3.191,-0.578 5.82,2.688 5.945,4.563 l 0.539,-0.305 0,-13.75 c 0,-19.582 22.586,-22.297 47.379,-38.894 24.785,16.597 47.371,19.312 47.371,38.894 l 0,13.75 0.543,0.305 c 0.125,-1.875 2.754,-5.141 5.945,-4.563 0.301,0.059 0.449,0.293 0.098,0.52 -1.406,0.848 -4.383,3.902 -0.906,6.336 1.015,-1.445 3.191,-1.629 4.734,-1.043 0.418,0.164 0.34,0.406 0.07,0.484 -0.734,0.239 -1.886,0.864 -1.593,2.793 5.519,4.399 20.031,11.836 36.222,-1.511 18.965,-15.657 5.063,-34.922 -1.105,-28.758 -0.258,0.261 -0.297,-0.012 -0.223,-0.364 1.328,-5.656 8.563,-5.253 9.363,-2.382 0.059,0.222 0.344,0.461 0.481,-0.164 2.93,-11.758 24.246,-3.184 25.742,-27.383 -0.441,-0.063 -5.207,-0.957 -7.121,1.297 -0.82,0.988 -4.356,5.117 -8.652,0.578 -0.282,-0.278 -0.02,-0.469 0.117,-0.469 5.539,0.137 4.316,-3.781 4.14,-4.492 -3.66,3.023 -9.332,2.39 -8.964,-4.57 0.035,-0.547 0.242,-0.493 0.449,-0.215 3.144,4.019 6.64,1.121 6.855,0.82 -2.597,-0.402 -7.273,-3.789 -2.91,-9.277 0.188,-0.246 0.461,-0.547 0.5,-0.078 0.57,6.492 6.348,4.39 7.539,3.789 0.844,-0.43 4.852,-1.622 7.586,1.636 1.094,-4.91 7.266,-4.39 7.863,-4.351 0.446,0.027 0.477,0.301 0.067,0.586 -2.656,1.777 -5.125,5.175 -1.141,6.425 0,0 5.274,-4.789 9.539,0.45 0.375,0.476 0.137,0.601 -0.105,0.507 -0.492,-0.175 -6.52,-0.902 -6.086,5.157 0.285,4.199 3.379,18.472 -2.332,22.105 -0.364,0.246 -0.551,0.461 -0.156,0.559 5.769,1.277 6.511,5.304 4.636,9.883 -0.242,0.586 -0.566,0.476 -0.594,0.039 -0.449,-9.27 -15.273,-4.856 -15.742,8.093 7.918,-2.046 21.586,0.727 21.586,13.664 0,12.754 -16.293,19.563 -16.293,28.836 0,1.555 -0.039,7.969 7.508,7.969 6.168,0 10.746,-4.617 11.973,-9.508 0.051,-0.226 0.324,-0.304 0.539,-0.019 0.906,1.172 0.73,5.996 -1.477,8.57 -0.222,0.258 0.028,0.703 0.5,0.434 0.696,-0.422 2.871,-1.074 5.168,-1.074 5.067,0 7.785,2.781 7.785,7.41 0,2.89 -0.996,4.343 -0.593,5.304 0.199,0.438 -0.34,0.758 -0.614,0.203 -0.726,-1.433 -2.031,-5.183 -7.234,-5.183 -0.051,0 -10.668,-0.02 -12.457,-0.02 -13.91,0 -15.188,-11.25 -15.188,-14.015 0,-11.399 14.481,-16.36 14.481,-27.918 0,-2.715 -1.371,-7.246 -8.867,-7.246 -3.075,0 -6.317,0.879 -8.262,1.718 0,0 -3.34,20.274 -13.156,27.286 0,0 -11.512,-5.586 -22.891,0.574 -8.699,4.707 -12.801,7.859 -20.43,2.59 -7.625,-5.278 -14.285,-10.942 -15.117,-10.793 l -1.82,0.363 0,45.555 c 3.535,0.371 3.785,-2.793 3.629,-3.633 -0.195,-1.067 -1.36,-1.887 1.062,-5.496 0.188,-0.266 0.469,-0.168 0.5,0.136 0.098,0.918 0.567,2.461 1.797,2.461 1.192,0 6.61,-4.082 11.238,-8.711 0,0 2.657,8.036 9.036,10.497 -3.625,0.554 -19.239,4.343 -19.239,11.171 0,2.286 -2.574,2.813 -4.257,2.688 -0.079,0.191 -2.633,6.258 -7.395,3.094 -0.254,-0.164 -0.184,-0.528 0.09,-0.594 2.101,-0.488 3.004,-2.68 3.09,-5.039 -4.551,1.394 -23.938,6.836 -46.922,6.836 -11.16,0 -21.442,-1.289 -29.617,-2.766 l 0,-15.793 -6.407,0 0,14.524 m 36.024,14.66 c 19.64,0 30.726,-3.75 30.726,-3.75 0.106,9.922 0.039,15.457 5.731,14.629 -3.11,8.34 10.293,11.609 10.293,22.476 0,7.16 -5.063,7.973 -6.559,7.973 -4.445,0 -3.75,-2.895 -7.531,-2.895 -0.469,0 -0.957,0.121 -0.957,-0.222 0,-1.25 1.062,-3.391 2.801,-3.391 2.324,0 2.375,2.324 4.097,2.324 0.746,0 1.821,-0.601 1.821,-2.984 0,-4.621 -3.028,-9.746 -6.602,-13.715 -0.82,1.137 -1.937,1.84 -3.273,1.84 -2.117,0 -3.973,-2.207 -3.973,-4.934 0,-1.004 0.16,-1.738 0.527,-2.586 -1.191,-0.664 -2.25,-1.046 -3.046,-1.046 -1.61,0 -4.043,0.656 -4.043,4.191 0,7.867 10.558,14.805 10.558,24.781 0,4.77 -3.183,9.516 -9.836,9.516 -7.133,0 -5.804,-6.516 -11.976,-6.516 -0.286,0 -0.508,-0.09 -0.508,-0.34 0,-0.414 1.07,-4.015 4.262,-4.015 3.418,0 4.378,5.91 7.402,5.91 1.133,0 2.824,-0.664 2.824,-4.668 0,-3.117 -1.543,-8.145 -3.762,-12.973 -0.8,0.805 -1.882,1.391 -3.109,1.391 -2.645,0 -4.547,-2.563 -4.547,-5.617 0,-1.934 0.762,-3.797 2.074,-5.028 -1.554,-1.996 -3.148,-3.617 -5.304,-3.617 -4.262,0 -6.149,2.426 -6.149,5.063 0,2.847 5.203,3.886 5.203,8.34 0,3.027 -1.964,4.734 -3.859,4.734 -2.035,0 -3.082,-1.348 -3.285,-1.348 -0.211,0 -1.258,1.348 -3.293,1.348 -1.895,0 -3.863,-1.707 -3.863,-4.734 0,-4.454 5.207,-5.493 5.207,-8.34 0,-2.637 -1.879,-5.063 -6.145,-5.063 -2.16,0 -3.754,1.621 -5.312,3.617 1.316,1.231 2.078,3.094 2.078,5.028 0,3.054 -1.903,5.617 -4.547,5.617 -1.227,0 -2.313,-0.586 -3.113,-1.391 -2.211,4.828 -3.754,9.856 -3.754,12.973 0,4.004 1.691,4.668 2.824,4.668 3.015,0 3.976,-5.91 7.402,-5.91 3.192,0 4.262,3.601 4.262,4.015 0,0.25 -0.231,0.34 -0.512,0.34 -6.172,0 -4.844,6.516 -11.972,6.516 -6.653,0 -9.836,-4.746 -9.836,-9.516 0,-9.976 10.558,-16.914 10.558,-24.781 0,-3.535 -2.433,-4.191 -4.043,-4.191 -0.801,0 -1.855,0.382 -3.054,1.046 0.367,0.848 0.531,1.582 0.531,2.586 0,2.727 -1.86,4.934 -3.973,4.934 -1.336,0 -2.449,-0.703 -3.269,-1.84 -3.579,3.969 -6.602,9.094 -6.602,13.715 0,2.383 1.074,2.984 1.816,2.984 1.727,0 1.778,-2.324 4.102,-2.324 1.73,0 2.797,2.141 2.797,3.391 0,0.343 -0.484,0.222 -0.953,0.222 -3.789,0 -3.086,2.895 -7.531,2.895 -1.5,0 -6.559,-0.813 -6.559,-7.973 0,-10.867 13.402,-14.136 10.293,-22.476 5.691,0.828 5.621,-4.707 5.726,-14.629 0,0 11.082,3.75 30.735,3.75 z m 0,47.195 c -2.711,0 -4.91,-2.187 -4.91,-4.902 0,-2.703 2.199,-4.903 4.91,-4.903 2.703,0 4.898,2.2 4.898,4.903 0,2.715 -2.195,4.902 -4.898,4.902 z m -2.461,29.895 c 0,-1.184 0.508,-2.219 0.91,-2.793 0.824,-1.172 0.699,-1.821 0.309,-2.207 -0.387,-0.395 -1.036,-0.52 -2.211,0.3 -0.578,0.411 -1.61,0.918 -2.789,0.918 -2.024,0 -3.024,-1.328 -3.024,-2.461 0,-1.132 1,-2.46 3.024,-2.46 1.179,0 2.211,0.507 2.789,0.917 1.175,0.821 1.824,0.696 2.211,0.301 0.39,-0.379 -0.18,-4.441 -0.633,-7.633 -3.348,-0.707 -4.957,-3.378 -4.957,-4.945 0,-4.019 4.301,-6.344 6.832,-7.691 2.523,1.347 6.824,3.672 6.824,7.691 0,1.567 -1.609,4.238 -4.949,4.945 -0.461,3.192 -1.028,7.254 -0.641,7.633 0.387,0.395 1.035,0.52 2.211,-0.301 0.574,-0.41 1.606,-0.917 2.789,-0.917 2.02,0 3.024,1.328 3.024,2.46 0,1.133 -1.004,2.461 -3.024,2.461 -1.183,0 -2.215,-0.507 -2.789,-0.918 -1.176,-0.82 -1.824,-0.695 -2.211,-0.3 -0.387,0.386 -0.519,1.035 0.309,2.207 0.402,0.574 0.918,1.609 0.918,2.793 0,2.019 -1.328,3.027 -2.461,3.027 -1.141,0 -2.461,-1.008 -2.461,-3.027 z m 98.723,-78.657 c -1,-4.683 -5.153,-5.339 -7.696,-2.5 0.211,2.25 2.461,2.778 7.696,2.5 z m 30.32,-26.453 c 0,0.481 -0.207,0.403 -0.406,0.305 -4.016,-2.016 -6.192,2.305 -5.215,6.758 0.547,2.476 2.722,9.207 -2.735,14.668 -5.367,-3.071 -8.976,1.972 -8.058,4.414 0.25,0.64 0.672,0.75 0.672,-0.078 0,-1.711 1.722,-2.95 2.965,-2.95 2.164,0 6.109,2.418 6.441,6.09 -5.547,3.645 -14.91,2.168 -16.777,-4.683 -0.235,-0.864 -1.27,-0.782 -1.2,0.078 0.036,0.586 0.278,4.644 4.325,6.695 3.652,1.84 2.324,4.563 1.359,5.531 -0.398,0.399 -1.145,0.321 -0.902,-0.089 1.41,-2.43 -1.606,-3.528 -5.778,-3.008 -8.828,1.179 -11.738,-2.102 -12.207,-4.375 -1.933,-0.496 -9.437,-4.707 -9.437,-6.27 0,-0.476 0.437,-1.59 1.144,-1.926 0,0 -0.176,-3.179 2.168,-5.269 9.387,5.672 11.992,0.371 11.028,-3.379 0,0 -1.661,-1.359 -7.989,-1.367 0,0 0.301,-2.285 0.84,-2.934 0,0 -1.445,-1.812 -0.422,-3.496 0,0 3.242,2.445 8.86,2.192 0,0 3.582,-5.469 -9.739,-8.04 -13.347,-2.558 -17.578,-15.175 -17.578,-22.082 0,-0.332 0.145,-0.523 0.453,-0.464 10.793,2.007 15.739,-9.18 29.746,-7.911 -1.218,3.289 0.125,6.739 0.125,6.739 1.102,-2.969 3.75,-4.903 5.633,-5.91 4.973,1.113 8.246,3.488 8.996,4.914 0,0 -5.285,4.375 -1.836,12.261 0,0 3.321,-5.261 10.176,-2.398 0.613,0.262 0.473,0.664 0.067,0.801 -9.286,2.996 -3.243,10.84 -2.676,11.621 4.308,-2.403 7.957,0.761 7.957,3.562 z m -52.684,13.02 c -2.734,0 -5.32,1.211 -5.82,3.316 -0.109,0.539 -0.57,0.727 -0.781,-0.066 -1.297,-4.727 2.039,-6.942 5.304,-6.942 3.598,0 5.621,2.579 10.743,3.457 2.253,0.379 3.796,0.028 3.796,0.711 0,0.684 -3.312,0.696 -3.796,0.696 -5.332,0 -6.059,-1.172 -9.446,-1.172 z m -162.468,10.933 c -2.551,-2.839 -6.7,-2.183 -7.696,2.5 5.235,0.278 7.485,-0.25 7.696,-2.5 z m -30.059,-27.515 c 0.559,-0.781 6.605,-8.625 -2.676,-11.621 -0.41,-0.137 -0.555,-0.539 0.067,-0.801 6.855,-2.863 10.175,2.398 10.175,2.398 3.45,-7.886 -1.84,-12.261 -1.84,-12.261 0.747,-1.426 4.024,-3.801 9,-4.914 1.879,1.007 4.532,2.941 5.633,5.91 0,0 1.344,-3.45 0.121,-6.739 14.004,-1.269 18.957,9.918 29.743,7.911 0.312,-0.059 0.461,0.132 0.461,0.464 0,6.907 -4.231,19.524 -17.583,22.082 -13.316,2.571 -9.734,8.04 -9.734,8.04 5.617,0.253 8.859,-2.192 8.859,-2.192 1.024,1.684 -0.421,3.496 -0.421,3.496 0.539,0.649 0.836,2.934 0.836,2.934 -6.325,0.008 -7.985,1.367 -7.985,1.367 -0.972,3.75 1.637,9.051 11.028,3.379 2.343,2.09 2.167,5.269 2.167,5.269 0.708,0.336 1.149,1.45 1.149,1.926 0,1.563 -7.512,5.774 -9.441,6.27 -0.469,2.273 -3.379,5.554 -12.208,4.375 -4.171,-0.52 -7.187,0.578 -5.781,3.008 0.239,0.41 -0.508,0.488 -0.898,0.089 -0.965,-0.968 -2.297,-3.691 1.351,-5.531 4.051,-2.051 4.297,-6.109 4.328,-6.695 0.071,-0.86 -0.964,-0.942 -1.195,-0.078 -1.867,6.851 -11.23,8.328 -16.777,4.683 0.328,-3.672 4.269,-6.09 6.433,-6.09 1.247,0 2.969,1.239 2.969,2.95 0,0.828 0.426,0.718 0.668,0.078 0.918,-2.442 -2.687,-7.485 -8.055,-4.414 -5.453,-5.461 -3.277,-12.192 -2.73,-14.668 0.977,-4.453 -1.199,-8.774 -5.215,-6.758 -0.203,0.098 -0.41,0.176 -0.41,-0.305 0,-2.801 3.652,-5.965 7.961,-3.562 z m 35.277,17.754 c -0.484,0 -3.801,-0.012 -3.801,-0.696 0,-0.683 1.543,-0.332 3.801,-0.711 5.125,-0.878 7.149,-3.457 10.746,-3.457 3.27,0 6.602,2.215 5.305,6.942 -0.215,0.793 -0.676,0.605 -0.781,0.066 -0.5,-2.105 -3.09,-3.316 -5.824,-3.316 -3.387,0 -4.114,1.172 -9.446,1.172 z m 118.645,-30.649 -6.406,0 0,17.778 6.406,0 0,-17.778 z m -28.891,-78.316 -6.402,0 0,17.762 6.402,0 0,-17.762"
             style="fill:#ffffff;fill-opacity:1;fill-rule:nonzero;stroke:none"
             id="path24"
             inkscape:connector-curvature="0" /><path
             d="m 713.473,443.566 c -1.957,-0.238 -4.032,-0.461 -6.215,-0.461 -1.379,0 -2.531,0 -3.684,0.118 -1.035,0 -2.07,0.105 -3.105,0.105 -1.035,0.117 -1.953,0.238 -2.875,0.344 -1.035,0.117 -1.957,0.351 -2.992,0.586 l 0,2.187 c 4.714,1.145 7.019,4.024 6.789,8.731 l -2.875,52.246 -0.235,0 -20.476,-63.856 -4.489,-0.578 -20.711,64.317 -0.109,-0.117 -3.57,-57.637 7.48,-1.961 0,-2.531 c -1.269,-0.352 -2.418,-0.684 -3.34,-0.918 -1.035,-0.235 -2.07,-0.469 -2.988,-0.575 -1.035,-0.238 -2.07,-0.343 -3.223,-0.343 -1.035,-0.118 -2.3,-0.118 -3.679,-0.118 -1.266,0 -2.766,0.118 -4.371,0.34 -1.5,0.227 -3.114,0.461 -4.489,0.813 l 0,2.07 c 2.184,0.684 3.793,1.485 4.829,2.531 1.152,1.141 1.839,2.528 1.96,4.246 l 5.063,58.797 -6.676,1.957 0,3.336 c 1.266,0.11 2.649,0.344 4.028,0.461 1.378,0.117 2.757,0.117 4.14,0.235 1.383,0 2.762,0.117 4.028,0.117 1.265,0 2.414,0 3.449,0 l 4.144,0 18.063,-55.801 0.117,0 17.484,55.801 4.95,0 c 2.07,0 4.375,0 6.785,-0.117 2.418,-0.118 4.836,-0.352 7.133,-0.696 l 0,-3.336 -7.133,-1.73 5.062,-63.27 6.676,-1.269 0,-2.531 c -1.383,-0.684 -2.992,-1.153 -4.945,-1.493"
             style="fill:#231f20;fill-opacity:1;fill-rule:nonzero;stroke:none"
             id="path26"
             inkscape:connector-curvature="0" /><path
             d="m 743.34,513.859 c -0.344,-0.812 -0.805,-1.613 -1.375,-2.179 -0.578,-0.703 -1.274,-1.153 -2.078,-1.504 -0.805,-0.457 -1.606,-0.574 -2.528,-0.574 -0.804,0 -1.613,0.117 -2.418,0.457 -0.687,0.351 -1.378,0.808 -1.953,1.386 -0.465,0.567 -0.922,1.27 -1.269,2.071 -0.34,0.8 -0.457,1.718 -0.457,2.644 0,0.918 0.117,1.731 0.457,2.531 0.234,0.801 0.691,1.497 1.269,2.188 0.575,0.684 1.266,1.152 2.071,1.492 0.804,0.344 1.722,0.578 2.757,0.578 0.805,0 1.614,-0.117 2.305,-0.461 0.692,-0.23 1.379,-0.691 1.953,-1.265 0.578,-0.461 0.922,-1.145 1.266,-1.953 0.348,-0.696 0.465,-1.614 0.465,-2.532 0,-1.035 -0.117,-1.953 -0.465,-2.879 z m 2.187,-69.601 c -1.035,-0.235 -1.957,-0.469 -3.105,-0.586 -1.035,-0.106 -2.188,-0.227 -3.34,-0.344 -1.266,0 -2.527,-0.105 -4.023,-0.105 -1.266,0 -2.762,0.105 -4.258,0.222 -1.613,0.121 -3.106,0.344 -4.371,0.813 l 0,1.953 c 0.804,0.234 1.496,0.566 2.3,1.035 0.688,0.457 1.383,0.918 1.954,1.492 0.578,0.461 1.035,1.039 1.382,1.731 0.344,0.566 0.457,1.269 0.457,1.953 l 0,38.887 -7.363,3.105 0,2.422 c 2.649,0.801 5.184,1.262 7.598,1.602 2.414,0.468 4.488,0.585 6.094,0.585 l 3.683,0 -0.57,-6.218 0,-43.723 6.437,-1.719 0,-2.187 c -1.035,-0.352 -1.957,-0.692 -2.875,-0.918"
             style="fill:#231f20;fill-opacity:1;fill-rule:nonzero;stroke:none"
             id="path28"
             inkscape:connector-curvature="0" /><path
             d="m 799.059,443.223 c -1.153,0 -2.418,0.105 -3.793,0.222 -1.274,0.121 -2.536,0.344 -3.684,0.813 l 0,1.953 c 1.492,0.684 2.527,1.492 3.106,2.754 0.687,1.152 1.035,2.773 1.035,4.844 l 0,21.972 c 0,2.754 -0.348,5.176 -0.805,7.129 -0.578,2.07 -1.383,3.684 -2.418,4.832 -1.035,1.262 -2.187,2.18 -3.562,2.766 -1.5,0.566 -2.997,0.801 -4.719,0.801 -2.305,0 -4.606,-0.352 -6.676,-1.036 -2.188,-0.683 -3.91,-1.613 -5.176,-2.531 l 0,-38.66 6.442,-1.719 0,-2.187 c -1.036,-0.352 -1.954,-0.692 -2.875,-0.918 -1.036,-0.235 -2.071,-0.469 -3.106,-0.586 -1.035,-0.106 -2.187,-0.227 -3.453,-0.344 -1.152,0 -2.418,-0.105 -3.91,-0.105 -1.383,0 -2.875,0.105 -4.375,0.222 -1.496,0.121 -2.988,0.344 -4.254,0.813 l 0,1.953 c 0.805,0.234 1.492,0.566 2.184,1.035 0.804,0.457 1.378,0.918 1.957,1.492 0.578,0.461 1.035,1.039 1.496,1.731 0.343,0.566 0.457,1.269 0.457,1.953 l 0,38.887 -7.477,3.105 0,2.539 c 2.649,0.801 5.176,1.262 7.594,1.602 2.418,0.351 4.488,0.468 6.211,0.468 l 2.762,0 0,-6.218 c 1.957,1.961 4.488,3.562 7.476,4.715 2.992,1.152 6.219,1.726 9.551,1.726 2.418,0 4.605,-0.34 6.558,-1.148 1.958,-0.813 3.68,-1.953 5.063,-3.45 1.383,-1.503 2.531,-3.339 3.336,-5.527 0.691,-2.305 1.152,-4.941 1.152,-7.82 l 0,-32.219 5.981,-1.719 0,-2.187 c -3.223,-1.27 -7.246,-1.953 -12.078,-1.953"
             style="fill:#231f20;fill-opacity:1;fill-rule:nonzero;stroke:none"
             id="path30"
             inkscape:connector-curvature="0" /><path
             d="m 836.703,513.859 c -0.34,-0.812 -0.805,-1.613 -1.375,-2.179 -0.578,-0.703 -1.269,-1.153 -2.074,-1.504 -0.805,-0.457 -1.609,-0.574 -2.531,-0.574 -0.805,0 -1.614,0.117 -2.418,0.457 -0.688,0.351 -1.379,0.808 -1.953,1.386 -0.461,0.567 -0.922,1.27 -1.262,2.071 -0.348,0.8 -0.465,1.718 -0.465,2.644 0,0.918 0.117,1.731 0.465,2.531 0.226,0.801 0.687,1.497 1.262,2.188 0.574,0.684 1.265,1.152 2.07,1.492 0.808,0.344 1.723,0.578 2.762,0.578 0.804,0 1.609,-0.117 2.3,-0.461 0.692,-0.23 1.379,-0.691 1.954,-1.265 0.578,-0.461 0.925,-1.145 1.265,-1.953 0.348,-0.696 0.465,-1.614 0.465,-2.532 0,-1.035 -0.117,-1.953 -0.465,-2.879 z m 2.188,-69.601 c -1.036,-0.235 -1.957,-0.469 -3.106,-0.586 -1.035,-0.106 -2.187,-0.227 -3.336,-0.344 -1.265,0 -2.531,-0.105 -4.027,-0.105 -1.266,0 -2.762,0.105 -4.258,0.222 -1.609,0.121 -3.105,0.344 -4.367,0.813 l 0,1.953 c 0.805,0.234 1.492,0.566 2.297,1.035 0.687,0.457 1.383,0.918 1.953,1.492 0.578,0.461 1.043,1.039 1.383,1.731 0.347,0.566 0.461,1.269 0.461,1.953 l 0,38.887 -7.368,3.105 0,2.422 c 2.649,0.801 5.184,1.262 7.598,1.602 2.414,0.468 4.484,0.585 6.098,0.585 l 3.679,0 -0.57,-6.218 0,-43.723 6.442,-1.719 0,-2.187 c -1.04,-0.352 -1.957,-0.692 -2.879,-0.918"
             style="fill:#231f20;fill-opacity:1;fill-rule:nonzero;stroke:none"
             id="path32"
             inkscape:connector-curvature="0" /><path
             d="m 883.285,452.996 c -1.035,-1.961 -2.531,-3.797 -4.375,-5.293 -1.84,-1.609 -4.14,-2.879 -6.785,-3.797 -2.531,-0.918 -5.523,-1.379 -8.746,-1.379 -5.059,0 -8.738,0.801 -11.043,2.414 -2.414,1.504 -3.566,3.918 -3.566,7.024 0,0.808 0.117,1.609 0.23,2.527 0.23,0.801 0.457,1.492 0.805,2.188 2.531,-2.422 5.175,-4.258 7.711,-5.41 2.644,-1.27 5.406,-1.836 8.507,-1.836 3.223,0 5.641,0.683 7.368,2.07 1.609,1.379 2.414,2.988 2.414,5.059 0,1.035 -0.114,1.953 -0.457,2.761 -0.348,0.813 -0.922,1.614 -1.614,2.414 -0.804,0.801 -1.839,1.504 -3.105,2.305 -1.152,0.684 -2.762,1.492 -4.715,2.305 l -5.754,2.414 c -3.34,1.375 -5.867,3.328 -7.711,5.75 -1.722,2.422 -2.644,5.176 -2.644,8.515 0,2.305 0.461,4.485 1.383,6.446 1.035,2.07 2.417,3.906 4.14,5.398 1.723,1.496 3.797,2.766 6.328,3.684 2.414,0.918 5.176,1.386 8.168,1.386 2.301,0 4.258,-0.234 5.867,-0.586 1.614,-0.222 2.993,-0.8 4.028,-1.367 1.035,-0.586 1.84,-1.386 2.301,-2.187 0.46,-0.93 0.691,-1.961 0.691,-2.996 0,-0.918 0,-1.731 -0.117,-2.414 -0.114,-0.801 -0.344,-1.614 -0.461,-2.422 -1.84,1.269 -3.91,2.304 -6.328,3.105 -2.297,0.813 -4.598,1.27 -6.785,1.27 -1.84,0 -3.454,-0.235 -4.836,-0.574 -1.375,-0.344 -2.411,-0.918 -3.332,-1.497 -0.918,-0.683 -1.614,-1.496 -2.075,-2.304 -0.343,-0.918 -0.574,-1.836 -0.574,-2.754 0,-1.035 0.117,-1.953 0.348,-2.766 0.344,-0.926 0.804,-1.609 1.492,-2.301 0.687,-0.8 1.613,-1.496 2.766,-2.074 1.144,-0.691 2.644,-1.258 4.371,-1.953 l 6.211,-2.41 c 2.07,-0.809 3.797,-1.727 5.293,-2.656 1.379,-0.918 2.644,-1.953 3.566,-3.106 0.809,-1.258 1.496,-2.527 1.953,-3.906 0.348,-1.387 0.578,-2.988 0.578,-4.609 0,-2.176 -0.461,-4.368 -1.496,-6.438"
             style="fill:#231f20;fill-opacity:1;fill-rule:nonzero;stroke:none"
             id="path34"
             inkscape:connector-curvature="0" /><path
             d="m 911.5,442.754 c -4.605,0 -8.059,1.269 -10.355,3.801 -2.192,2.527 -3.336,6.55 -3.336,12.195 0,2.754 0,5.637 0.113,8.516 0.113,2.988 0.113,5.754 0.23,8.398 l 0.344,15.293 -6.328,0 0,3.809 12.426,12.304 3.801,0.457 -0.465,-10.347 15.191,0 -0.808,-6.223 -14.723,0 -0.235,-14.492 c 0,-2.41 -0.113,-4.719 -0.113,-7.012 0,-2.187 0,-4.258 0,-6.445 0,-2.305 0.113,-4.258 0.457,-5.867 0.348,-1.614 0.809,-2.883 1.5,-3.918 0.571,-0.918 1.266,-1.602 2.184,-2.071 0.805,-0.461 1.84,-0.683 2.875,-0.683 1.726,0 3.222,0.222 4.719,0.801 1.378,0.578 2.644,1.269 3.796,2.187 l 1.153,-0.461 c -0.465,-6.785 -4.606,-10.242 -12.426,-10.242"
             style="fill:#231f20;fill-opacity:1;fill-rule:nonzero;stroke:none"
             id="path36"
             inkscape:connector-curvature="0" /><path
             d="m 963.023,484.297 c -0.578,2.07 -1.382,3.789 -2.418,5.176 -1.035,1.379 -2.187,2.414 -3.679,3.105 -1.383,0.684 -2.996,1.035 -4.606,1.035 -1.605,0 -3.105,-0.468 -4.718,-1.386 -1.606,-0.801 -2.989,-2.071 -4.141,-3.567 -1.266,-1.492 -2.188,-3.328 -2.992,-5.293 -0.801,-2.066 -1.149,-4.137 -1.149,-6.433 l 24.621,0 c 0,2.871 -0.343,5.293 -0.918,7.363 z m 10.008,-13.352 -33.937,0 c 0,-3.218 0.457,-6.101 1.261,-8.629 0.918,-2.531 2.188,-4.601 3.684,-6.332 1.492,-1.726 3.332,-3.101 5.402,-4.019 2.075,-0.93 4.258,-1.379 6.676,-1.379 1.383,0 2.762,0.105 4.258,0.344 1.496,0.222 2.879,0.574 4.258,1.035 1.496,0.34 2.762,0.918 4.14,1.492 1.266,0.684 2.532,1.387 3.567,2.07 0.117,-0.234 0.226,-0.683 0.348,-1.269 0.117,-0.567 0.117,-1.153 0.117,-1.719 0,-1.387 -0.465,-2.644 -1.383,-3.801 -0.926,-1.148 -2.188,-2.293 -3.91,-3.218 -1.731,-0.918 -3.801,-1.614 -6.219,-2.192 -2.527,-0.574 -5.293,-0.801 -8.281,-0.801 -3.332,0 -6.328,0.578 -9.203,1.848 -2.993,1.262 -5.411,2.988 -7.594,5.281 -2.188,2.309 -3.91,5.071 -5.18,8.293 -1.148,3.223 -1.84,6.895 -1.84,10.918 0,4.961 0.692,9.446 2.075,13.36 1.375,3.789 3.218,7.011 5.515,9.66 2.192,2.527 4.723,4.597 7.602,5.867 2.875,1.379 5.863,2.07 8.855,2.07 3.106,0 5.867,-0.469 8.399,-1.504 2.418,-1.035 4.488,-2.402 6.211,-4.25 1.726,-1.961 2.992,-4.148 3.918,-6.785 0.918,-2.762 1.375,-5.644 1.375,-8.972 0,-1.157 0,-2.192 0,-3.45 0,-1.152 0,-2.539 -0.114,-3.918"
             style="fill:#231f20;fill-opacity:1;fill-rule:nonzero;stroke:none"
             id="path38"
             inkscape:connector-curvature="0" /><path
             d="m 1016.39,491.191 c -0.35,-1.269 -0.81,-2.414 -1.39,-3.449 -1.03,0.813 -2.18,1.496 -3.45,1.953 -1.26,0.461 -2.41,0.696 -3.68,0.696 -3.56,0 -6.9,-1.614 -10.12,-4.715 l 0,-36.594 7.93,-1.719 0,-2.187 c -0.91,-0.352 -1.95,-0.692 -2.98,-0.918 -0.93,-0.235 -1.96,-0.469 -3.11,-0.586 -1.152,-0.106 -2.418,-0.227 -3.684,-0.344 -1.379,0 -2.879,-0.105 -4.484,-0.105 -1.731,0 -3.34,0.105 -4.836,0.222 -1.609,0.121 -3.106,0.344 -4.367,0.813 l 0,1.953 c 0.804,0.234 1.492,0.566 2.179,1.035 0.805,0.457 1.383,0.918 1.957,1.492 0.579,0.461 1.04,1.039 1.497,1.731 0.347,0.566 0.461,1.269 0.461,1.953 l 0,38.887 -7.477,3.105 0,2.539 c 2.644,0.801 5.176,1.262 7.594,1.602 2.414,0.351 4.484,0.468 6.211,0.468 l 2.761,0 0,-8.066 0.114,0 3.224,3.574 c 1.5,1.719 3.22,2.989 4.83,3.789 1.61,0.813 3.34,1.27 5.29,1.27 4.03,0 5.99,-1.602 5.99,-4.942 0,-1.035 -0.12,-2.187 -0.46,-3.457"
             style="fill:#231f20;fill-opacity:1;fill-rule:nonzero;stroke:none"
             id="path40"
             inkscape:connector-curvature="0" /><path
             d="m 1039.83,513.859 c -0.34,-0.812 -0.81,-1.613 -1.38,-2.179 -0.57,-0.703 -1.27,-1.153 -2.07,-1.504 -0.8,-0.457 -1.61,-0.574 -2.53,-0.574 -0.81,0 -1.61,0.117 -2.42,0.457 -0.69,0.351 -1.38,0.808 -1.95,1.386 -0.47,0.567 -0.93,1.27 -1.27,2.071 -0.34,0.8 -0.46,1.718 -0.46,2.644 0,0.918 0.12,1.731 0.46,2.531 0.23,0.801 0.69,1.497 1.27,2.188 0.57,0.684 1.26,1.152 2.07,1.492 0.8,0.344 1.72,0.578 2.76,0.578 0.8,0 1.61,-0.117 2.3,-0.461 0.69,-0.23 1.38,-0.691 1.95,-1.265 0.58,-0.461 0.93,-1.145 1.27,-1.953 0.35,-0.696 0.46,-1.614 0.46,-2.532 0,-1.035 -0.11,-1.953 -0.46,-2.879 z m 2.19,-69.601 c -1.04,-0.235 -1.96,-0.469 -3.11,-0.586 -1.03,-0.106 -2.19,-0.227 -3.33,-0.344 -1.27,0 -2.54,-0.105 -4.03,-0.105 -1.27,0 -2.77,0.105 -4.26,0.222 -1.61,0.121 -3.11,0.344 -4.37,0.813 l 0,1.953 c 0.81,0.234 1.49,0.566 2.3,1.035 0.69,0.457 1.38,0.918 1.95,1.492 0.58,0.461 1.04,1.039 1.38,1.731 0.35,0.566 0.46,1.269 0.46,1.953 l 0,38.887 -7.36,3.105 0,2.422 c 2.65,0.801 5.18,1.262 7.6,1.602 2.41,0.468 4.48,0.585 6.09,0.585 l 3.68,0 -0.57,-6.218 0,-43.723 6.44,-1.719 0,-2.187 c -1.03,-0.352 -1.95,-0.692 -2.87,-0.918"
             style="fill:#231f20;fill-opacity:1;fill-rule:nonzero;stroke:none"
             id="path42"
             inkscape:connector-curvature="0" /><path
             d="m 1086.41,484.297 c -0.58,2.07 -1.38,3.789 -2.42,5.176 -1.03,1.379 -2.18,2.414 -3.68,3.105 -1.38,0.684 -2.99,1.035 -4.6,1.035 -1.61,0 -3.11,-0.468 -4.72,-1.386 -1.61,-0.801 -2.99,-2.071 -4.14,-3.567 -1.26,-1.492 -2.19,-3.328 -2.99,-5.293 -0.8,-2.066 -1.15,-4.137 -1.15,-6.433 l 24.62,0 c 0,2.871 -0.34,5.293 -0.92,7.363 z m 10.01,-13.352 -33.94,0 c 0,-3.218 0.46,-6.101 1.27,-8.629 0.91,-2.531 2.18,-4.601 3.68,-6.332 1.49,-1.726 3.33,-3.101 5.4,-4.019 2.07,-0.93 4.26,-1.379 6.68,-1.379 1.38,0 2.76,0.105 4.25,0.344 1.5,0.222 2.88,0.574 4.26,1.035 1.5,0.34 2.76,0.918 4.14,1.492 1.27,0.684 2.53,1.387 3.57,2.07 0.11,-0.234 0.23,-0.683 0.34,-1.269 0.12,-0.567 0.12,-1.153 0.12,-1.719 0,-1.387 -0.46,-2.644 -1.38,-3.801 -0.92,-1.148 -2.19,-2.293 -3.91,-3.218 -1.73,-0.918 -3.8,-1.614 -6.22,-2.192 -2.53,-0.574 -5.29,-0.801 -8.28,-0.801 -3.33,0 -6.33,0.578 -9.2,1.848 -3,1.262 -5.41,2.988 -7.6,5.281 -2.18,2.309 -3.91,5.071 -5.18,8.293 -1.14,3.223 -1.84,6.895 -1.84,10.918 0,4.961 0.7,9.446 2.08,13.36 1.38,3.789 3.22,7.011 5.52,9.66 2.18,2.527 4.72,4.597 7.59,5.867 2.88,1.379 5.87,2.07 8.86,2.07 3.11,0 5.87,-0.469 8.4,-1.504 2.42,-1.035 4.49,-2.402 6.21,-4.25 1.73,-1.961 2.99,-4.148 3.92,-6.785 0.91,-2.762 1.37,-5.644 1.37,-8.972 0,-1.157 0,-2.192 0,-3.45 0,-1.152 0,-2.539 -0.11,-3.918"
             style="fill:#231f20;fill-opacity:1;fill-rule:nonzero;stroke:none"
             id="path44"
             inkscape:connector-curvature="0" /><path
             d="m 1171.63,493.613 -20.36,-50.742 -4.03,-0.234 -19.44,50.285 -4.72,3.328 0,2.773 21.86,0 0,-2.773 -6.56,-2.754 12.54,-36.473 0.12,0 12.77,36.122 -6.68,3.105 0,2.773 17.84,0 0,-2.773 -3.34,-2.637"
             style="fill:#231f20;fill-opacity:1;fill-rule:nonzero;stroke:none"
             id="path46"
             inkscape:connector-curvature="0" /><path
             d="m 1208.31,468.645 c -3.22,0 -6.1,-0.344 -8.63,-0.918 -2.53,-0.696 -4.6,-1.497 -6.21,-2.532 -1.73,-1.035 -2.99,-2.304 -3.91,-3.691 -0.81,-1.484 -1.27,-2.871 -1.27,-4.481 0,-2.296 0.81,-4.14 2.3,-5.519 1.5,-1.387 3.68,-2.07 6.68,-2.07 0.91,0 1.84,0.117 2.75,0.222 1.04,0.239 2.07,0.461 3,0.696 1.03,0.234 1.95,0.578 2.87,1.035 0.93,0.351 1.73,0.683 2.42,1.152 l 0,16.106 z m 9.89,-23.469 c -1.38,-1.153 -2.87,-2.071 -4.37,-2.766 -1.15,0.695 -2.07,1.496 -2.99,2.414 -0.81,1.035 -1.61,2.071 -2.3,3.223 -0.81,-0.801 -1.72,-1.492 -2.88,-2.188 -1.26,-0.683 -2.41,-1.257 -3.79,-1.718 -1.38,-0.575 -2.76,-0.918 -4.37,-1.153 -1.5,-0.351 -3,-0.461 -4.49,-0.461 -2.19,0 -4.14,0.344 -5.87,0.918 -1.84,0.696 -3.34,1.496 -4.6,2.649 -1.38,1.152 -2.3,2.527 -3.11,4.14 -0.69,1.504 -1.03,3.223 -1.03,5.059 0,2.539 0.69,4.949 2.07,7.141 1.26,2.293 3.22,4.257 5.86,5.984 2.54,1.719 5.64,3.105 9.32,4.141 3.69,0.918 7.94,1.496 12.66,1.496 l 0,3.101 c 0,3.11 -0.23,5.637 -0.58,7.59 -0.45,1.965 -1.03,3.457 -1.84,4.609 -0.8,1.036 -1.84,1.836 -3.22,2.305 -1.26,0.332 -2.76,0.567 -4.6,0.567 -3.22,0 -6.21,-0.684 -9.2,-1.954 -2.88,-1.269 -5.64,-3.105 -8.06,-5.527 -0.23,1.035 -0.34,2.188 -0.34,3.457 0,1.836 0.34,3.457 1.03,4.942 0.69,1.386 1.84,2.656 3.34,3.574 1.49,1.035 3.45,1.836 5.87,2.304 2.42,0.567 5.29,0.801 8.63,0.801 2.87,0 5.52,-0.351 7.82,-1.035 2.3,-0.801 4.14,-1.726 5.75,-3.105 1.61,-1.387 2.88,-2.989 3.68,-4.832 0.81,-1.848 1.27,-4.036 1.27,-6.45 0,-0.574 0,-1.375 -0.12,-2.41 0,-0.918 0,-1.953 -0.11,-3.105 0,-1.035 -0.12,-2.188 -0.12,-3.223 0,-1.035 -0.11,-2.07 -0.11,-2.883 l -0.34,-18.64 c 0.45,-1.036 1.03,-2.071 1.84,-3.106 0.8,-1.035 1.72,-1.953 2.76,-2.754 -0.81,-1.035 -1.96,-2.07 -3.46,-3.105"
             style="fill:#231f20;fill-opacity:1;fill-rule:nonzero;stroke:none"
             id="path48"
             inkscape:connector-curvature="0" /><path
             d="m 1273.16,443.223 c -1.15,0 -2.41,0.105 -3.78,0.222 -1.27,0.121 -2.54,0.344 -3.69,0.813 l 0,1.953 c 1.5,0.684 2.53,1.492 3.11,2.754 0.69,1.152 1.03,2.773 1.03,4.844 l 0,21.972 c 0,2.754 -0.34,5.176 -0.81,7.129 -0.56,2.07 -1.37,3.684 -2.41,4.832 -1.03,1.262 -2.19,2.18 -3.56,2.766 -1.51,0.566 -2.99,0.801 -4.72,0.801 -2.3,0 -4.6,-0.352 -6.67,-1.036 -2.19,-0.683 -3.92,-1.613 -5.18,-2.531 l 0,-38.66 6.44,-1.719 0,-2.187 c -1.04,-0.352 -1.95,-0.692 -2.88,-0.918 -1.03,-0.235 -2.07,-0.469 -3.1,-0.586 -1.04,-0.106 -2.19,-0.227 -3.45,-0.344 -1.16,0 -2.42,-0.105 -3.91,-0.105 -1.39,0 -2.88,0.105 -4.38,0.222 -1.49,0.121 -2.99,0.344 -4.25,0.813 l 0,1.953 c 0.8,0.234 1.49,0.566 2.18,1.035 0.81,0.457 1.38,0.918 1.96,1.492 0.57,0.461 1.03,1.039 1.49,1.731 0.35,0.566 0.46,1.269 0.46,1.953 l 0,38.887 -7.47,3.105 0,2.539 c 2.64,0.801 5.17,1.262 7.59,1.602 2.42,0.351 4.49,0.468 6.21,0.468 l 2.76,0 0,-6.218 c 1.96,1.961 4.49,3.562 7.48,4.715 2.99,1.152 6.21,1.726 9.55,1.726 2.42,0 4.6,-0.34 6.56,-1.148 1.96,-0.813 3.68,-1.953 5.07,-3.45 1.37,-1.503 2.51,-3.339 3.33,-5.527 0.69,-2.305 1.15,-4.941 1.15,-7.82 l 0,-32.219 5.98,-1.719 0,-2.187 c -3.22,-1.27 -7.24,-1.953 -12.09,-1.953"
             style="fill:#231f20;fill-opacity:1;fill-rule:nonzero;stroke:none"
             id="path50"
             inkscape:connector-curvature="0" /><path
             d="m 1367.01,512.246 c -1.03,-1.152 -1.83,-2.988 -2.64,-5.293 l -20.37,-63.387 -4.61,-0.343 -22.53,68.789 -6.22,1.965 0,2.41 c 1.96,0.578 3.91,1.152 5.63,1.386 1.85,0.34 3.81,0.461 5.76,0.461 1.04,0 1.95,0 2.76,0 0.81,0 1.62,-0.121 2.42,-0.121 0.8,-0.105 1.61,-0.222 2.41,-0.34 0.93,-0.234 1.84,-0.351 3,-0.578 l 0,-2.183 c -1.85,-0.461 -3.11,-1.379 -3.58,-2.649 -0.56,-1.269 -0.56,-2.761 0,-4.492 l 13.81,-47.168 0.12,0 14.95,51.199 -7.25,1.957 0,2.411 c 2.07,0.695 4.14,1.152 6.21,1.503 2.08,0.34 4.15,0.461 6.23,0.461 1.49,0 2.87,-0.121 4.02,-0.226 1.26,-0.235 2.53,-0.586 3.8,-0.93 l 0,-2.183 c -1.61,-0.579 -2.88,-1.497 -3.92,-2.649"
             style="fill:#231f20;fill-opacity:1;fill-rule:nonzero;stroke:none"
             id="path52"
             inkscape:connector-curvature="0" /><path
             d="m 1411.06,481.301 c -0.81,2.527 -1.95,4.715 -3.34,6.551 -1.49,1.738 -3.1,3.105 -4.94,4.035 -1.84,0.918 -3.8,1.375 -5.87,1.375 -1.95,0 -3.91,-0.567 -5.75,-1.492 -1.96,-1.036 -3.68,-2.415 -5.07,-4.368 -1.49,-1.961 -2.75,-4.375 -3.56,-7.254 -0.92,-2.882 -1.38,-6.21 -1.38,-10.011 0,-3.446 0.46,-6.551 1.26,-9.082 0.81,-2.657 1.97,-4.832 3.34,-6.68 1.5,-1.719 3.11,-3.105 4.95,-4.023 1.84,-0.801 3.79,-1.27 5.86,-1.27 1.97,0 3.8,0.469 5.76,1.387 1.84,0.918 3.57,2.414 5.06,4.375 1.5,1.836 2.65,4.258 3.57,7.246 0.92,2.871 1.38,6.328 1.38,10.234 0,3.34 -0.46,6.328 -1.27,8.977 z m 9.44,-20.832 c -1.5,-3.789 -3.45,-7.012 -5.99,-9.778 -2.53,-2.644 -5.4,-4.714 -8.62,-6.089 -3.34,-1.497 -6.68,-2.192 -10.01,-2.192 -3.46,0 -6.79,0.578 -9.79,1.848 -3.1,1.152 -5.75,2.871 -8.04,5.176 -2.19,2.187 -4.04,5.058 -5.41,8.281 -1.27,3.34 -1.96,7.012 -1.96,11.269 0,4.727 0.8,8.985 2.19,12.774 1.5,3.801 3.57,7.129 5.98,9.785 2.53,2.637 5.41,4.707 8.63,6.211 3.22,1.492 6.67,2.187 10.23,2.187 3.57,0 6.79,-0.695 9.9,-1.953 3.11,-1.269 5.76,-3 7.94,-5.41 2.3,-2.305 4.03,-5.066 5.29,-8.281 1.39,-3.34 1.96,-6.914 1.96,-10.938 0,-4.714 -0.69,-9.082 -2.3,-12.89"
             style="fill:#231f20;fill-opacity:1;fill-rule:nonzero;stroke:none"
             id="path54"
             inkscape:connector-curvature="0" /><path
             d="m 1450.79,444.258 c -1.03,-0.235 -2.07,-0.469 -3.1,-0.586 -1.04,-0.106 -2.18,-0.227 -3.45,-0.344 -1.15,0 -2.41,-0.105 -3.92,-0.105 -1.37,0 -2.87,0.105 -4.36,0.222 -1.5,0.121 -3,0.344 -4.26,0.813 l 0,1.953 c 0.8,0.234 1.49,0.566 2.19,1.035 0.8,0.457 1.37,0.918 1.95,1.492 0.58,0.461 1.04,1.039 1.49,1.731 0.35,0.566 0.46,1.269 0.46,1.953 l 0,66.73 -7.48,3.106 0,2.527 c 1.27,0.352 2.65,0.695 3.92,0.918 1.27,0.235 2.53,0.469 3.8,0.703 1.15,0.11 2.29,0.227 3.33,0.332 1.03,0 1.96,0.117 2.76,0.117 l 3.68,0 -0.57,-6.445 0,-71.328 6.44,-1.719 0,-2.187 c -1.03,-0.352 -1.95,-0.692 -2.88,-0.918"
             style="fill:#231f20;fill-opacity:1;fill-rule:nonzero;stroke:none"
             id="path56"
             inkscape:connector-curvature="0" /><path
             d="m 1508.98,443.789 c -1.37,-0.344 -2.87,-0.566 -4.6,-0.566 -1.61,0 -3.1,0.343 -4.48,1.035 -1.38,0.683 -2.54,1.836 -3.68,3.332 l -18.76,24.734 0,-23.242 5.99,-1.836 0,-2.187 c -1.04,-0.352 -2.07,-0.684 -3.11,-0.801 -0.92,-0.235 -1.95,-0.469 -2.99,-0.586 -1.04,-0.227 -2.08,-0.344 -3.22,-0.344 -1.03,-0.105 -2.3,-0.105 -3.68,-0.105 -1.27,0 -2.76,0.105 -4.26,0.222 -1.61,0.121 -3.1,0.344 -4.37,0.813 l 0,1.953 c 0.81,0.234 1.61,0.566 2.3,1.035 0.8,0.457 1.38,0.918 1.95,1.492 0.58,0.461 1.04,1.039 1.5,1.731 0.34,0.566 0.46,1.269 0.46,1.953 l 0,66.73 -7.59,3.106 0,2.527 c 2.65,0.813 5.29,1.27 7.7,1.621 2.42,0.227 4.49,0.449 6.1,0.449 l 3.91,0 -0.69,-6.445 0,-46.015 6.33,5.527 c 1.49,1.379 3.1,2.754 4.49,4.375 1.38,1.601 2.65,3.215 3.8,4.824 1.04,1.613 1.95,3.34 2.53,4.832 0.68,1.613 1.03,3.11 1.03,4.367 1.04,0.352 2.07,0.586 2.99,0.703 0.92,0.11 1.96,0.223 3.11,0.223 0.92,0 1.73,-0.113 2.42,-0.223 0.68,-0.234 1.49,-0.468 2.18,-0.808 0,-1.262 -0.46,-2.649 -1.04,-4.145 -0.68,-1.609 -1.61,-3.336 -2.87,-5.066 -1.27,-1.719 -2.99,-3.563 -4.83,-5.41 -1.96,-1.836 -4.26,-3.789 -6.91,-5.625 l -4.02,-2.879 17.71,-21.516 c 1.62,-1.953 3.11,-3.34 4.6,-4.258 1.39,-0.8 2.77,-1.269 3.92,-1.269 l 0,-2.41 c -1.27,-0.813 -2.65,-1.496 -3.92,-1.848"
             style="fill:#231f20;fill-opacity:1;fill-rule:nonzero;stroke:none"
             id="path58"
             inkscape:connector-curvature="0" /><path
             d="m 1551.44,452.996 c -1.04,-1.961 -2.53,-3.797 -4.37,-5.293 -1.85,-1.609 -4.14,-2.879 -6.79,-3.797 -2.54,-0.918 -5.52,-1.379 -8.75,-1.379 -5.06,0 -8.74,0.801 -11.04,2.414 -2.41,1.504 -3.57,3.918 -3.57,7.024 0,0.808 0.12,1.609 0.24,2.527 0.22,0.801 0.46,1.492 0.8,2.188 2.53,-2.422 5.17,-4.258 7.7,-5.41 2.65,-1.27 5.41,-1.836 8.52,-1.836 3.22,0 5.63,0.683 7.36,2.07 1.61,1.379 2.42,2.988 2.42,5.059 0,1.035 -0.11,1.953 -0.46,2.761 -0.35,0.813 -0.92,1.614 -1.61,2.414 -0.81,0.801 -1.84,1.504 -3.11,2.305 -1.14,0.684 -2.75,1.492 -4.72,2.305 l -5.75,2.414 c -3.33,1.375 -5.86,3.328 -7.7,5.75 -1.73,2.422 -2.65,5.176 -2.65,8.515 0,2.305 0.46,4.485 1.38,6.446 1.03,2.07 2.42,3.906 4.15,5.398 1.72,1.496 3.79,2.766 6.32,3.684 2.42,0.918 5.18,1.386 8.17,1.386 2.3,0 4.26,-0.234 5.87,-0.586 1.61,-0.222 2.99,-0.8 4.02,-1.367 1.04,-0.586 1.85,-1.386 2.31,-2.187 0.45,-0.93 0.68,-1.961 0.68,-2.996 0,-0.918 0,-1.731 -0.11,-2.414 -0.12,-0.801 -0.35,-1.614 -0.46,-2.422 -1.84,1.269 -3.91,2.304 -6.33,3.105 -2.3,0.813 -4.6,1.27 -6.78,1.27 -1.85,0 -3.46,-0.235 -4.84,-0.574 -1.38,-0.344 -2.42,-0.918 -3.34,-1.497 -0.91,-0.683 -1.61,-1.496 -2.07,-2.304 -0.34,-0.918 -0.57,-1.836 -0.57,-2.754 0,-1.035 0.11,-1.953 0.34,-2.766 0.35,-0.926 0.81,-1.609 1.5,-2.301 0.69,-0.8 1.61,-1.496 2.76,-2.074 1.15,-0.691 2.64,-1.258 4.37,-1.953 l 6.21,-2.41 c 2.07,-0.809 3.8,-1.727 5.3,-2.656 1.37,-0.918 2.64,-1.953 3.56,-3.106 0.81,-1.258 1.5,-2.527 1.96,-3.906 0.35,-1.387 0.58,-2.988 0.58,-4.609 0,-2.176 -0.47,-4.368 -1.5,-6.438"
             style="fill:#231f20;fill-opacity:1;fill-rule:nonzero;stroke:none"
             id="path60"
             inkscape:connector-curvature="0" /><path
             d="m 1593.53,486.133 c -0.57,1.719 -1.5,3.222 -2.53,4.492 -1.04,1.145 -2.3,1.953 -3.69,2.637 -1.37,0.578 -2.87,0.808 -4.36,0.808 -1.61,0 -3.22,-0.34 -4.72,-1.148 -1.38,-0.695 -2.64,-1.848 -3.8,-3.227 -1.03,-1.375 -1.96,-3.101 -2.64,-5.066 -0.58,-2.07 -0.92,-4.246 -0.92,-6.777 0,-2.422 0.34,-4.61 0.92,-6.329 0.57,-1.843 1.37,-3.339 2.41,-4.492 1.03,-1.152 2.3,-2.07 3.56,-2.644 1.39,-0.578 2.77,-0.918 4.15,-0.918 1.72,0 3.45,0.34 4.95,0.918 1.49,0.691 2.76,1.609 3.91,2.996 1.15,1.379 2.07,3.105 2.65,5.176 0.68,2.07 1.03,4.484 1.03,7.246 0,2.422 -0.35,4.492 -0.92,6.328 z m 4.83,-47.981 c -1.49,1.262 -3.57,1.848 -6.33,1.848 l -18.51,0 c -0.81,-0.352 -1.62,-0.918 -2.31,-1.504 -0.69,-0.683 -1.38,-1.379 -1.84,-2.187 -0.57,-0.801 -0.92,-1.719 -1.26,-2.637 -0.36,-0.918 -0.46,-1.953 -0.46,-2.879 0,-1.262 0.34,-2.297 0.91,-3.332 0.58,-1.152 1.62,-2.07 2.77,-2.773 1.26,-0.801 2.75,-1.485 4.6,-1.954 1.83,-0.449 4.02,-0.683 6.44,-0.683 2.76,0 5.18,0.344 7.47,0.918 2.19,0.683 4.15,1.496 5.77,2.422 1.6,1.035 2.75,2.175 3.68,3.554 0.8,1.27 1.26,2.657 1.26,4.035 0,2.188 -0.7,3.915 -2.19,5.172 z m 11.97,53.391 c -1.84,0.449 -3.8,0.684 -5.87,0.918 -2.07,0.234 -4.14,0.344 -6.44,0.344 l 0,-0.11 c 0.92,-0.703 1.83,-1.621 2.64,-2.539 0.8,-0.918 1.5,-1.953 2.07,-2.988 0.58,-1.152 1.04,-2.305 1.38,-3.457 0.24,-1.262 0.46,-2.41 0.46,-3.563 0,-3.332 -0.68,-6.32 -1.95,-9.093 -1.26,-2.754 -2.99,-5.176 -5.06,-7.129 -2.19,-1.953 -4.6,-3.457 -7.48,-4.602 -2.77,-1.031 -5.75,-1.609 -8.86,-1.609 -1.27,0 -2.53,0.117 -3.8,0.344 -1.26,0.234 -2.3,0.574 -3.34,1.043 -0.46,-0.235 -0.92,-0.586 -1.26,-1.043 -0.46,-0.344 -0.81,-0.801 -1.27,-1.379 -0.34,-0.457 -0.57,-0.918 -0.8,-1.504 -0.23,-0.567 -0.35,-1.035 -0.35,-1.602 0,-1.726 0.69,-3.105 1.96,-3.918 1.38,-0.918 3.11,-1.375 5.4,-1.375 l 16.12,0.117 c 4.83,0 8.62,-0.918 11.16,-3.105 2.65,-2.188 3.91,-5.527 3.91,-9.785 0,-2.754 -0.7,-5.293 -2.19,-7.82 -1.38,-2.415 -3.33,-4.485 -5.87,-6.329 -2.53,-1.847 -5.4,-3.332 -8.86,-4.367 -3.45,-1.035 -7.13,-1.621 -11.15,-1.621 -3.68,0 -6.8,0.352 -9.55,1.035 -2.77,0.696 -5.07,1.621 -6.91,2.879 -1.84,1.156 -3.22,2.649 -4.14,4.262 -0.92,1.609 -1.38,3.445 -1.38,5.293 0,1.492 0.23,2.984 0.81,4.363 0.57,1.27 1.37,2.539 2.29,3.692 1.04,1.035 2.19,2.07 3.46,2.871 1.38,0.8 2.76,1.386 4.37,1.836 l 0,0.117 c -2.08,0.808 -3.79,1.847 -4.95,3.457 -1.27,1.496 -1.84,3.34 -1.84,5.515 0,1.157 0.23,2.192 0.69,3.227 0.34,1.148 0.92,2.066 1.73,2.996 0.69,0.918 1.61,1.836 2.53,2.52 0.92,0.703 1.95,1.269 3.1,1.621 l 0,0.117 c -1.37,0.566 -2.64,1.262 -3.8,2.297 -1.25,0.918 -2.41,2.066 -3.33,3.445 -0.92,1.387 -1.72,2.988 -2.3,4.727 -0.58,1.718 -0.92,3.554 -0.92,5.515 0,3.227 0.58,6.211 1.84,8.977 1.15,2.754 2.76,5.176 4.83,7.246 2.07,2.07 4.6,3.684 7.37,4.836 2.76,1.14 5.75,1.726 8.85,1.726 1.16,0 2.42,-0.117 3.68,-0.351 1.27,-0.235 2.43,-0.567 3.58,-0.918 1.14,-0.352 2.18,-0.684 3.1,-1.152 0.92,-0.457 1.62,-0.918 2.07,-1.375 0.58,0.457 1.15,0.918 1.96,1.375 0.8,0.468 1.61,0.8 2.53,1.152 0.91,0.351 1.84,0.574 2.76,0.801 1.04,0.234 1.95,0.351 2.87,0.351 0.93,0 1.96,-0.117 2.77,-0.234 0.91,-0.117 1.61,-0.235 2.18,-0.457 l -0.8,-7.59"
             style="fill:#231f20;fill-opacity:1;fill-rule:nonzero;stroke:none"
             id="path62"
             inkscape:connector-curvature="0" /><path
             d="m 1648.84,484.297 c -0.58,2.07 -1.38,3.789 -2.41,5.176 -1.04,1.379 -2.19,2.414 -3.69,3.105 -1.37,0.684 -2.98,1.035 -4.6,1.035 -1.61,0 -3.1,-0.468 -4.71,-1.386 -1.61,-0.801 -3,-2.071 -4.14,-3.567 -1.27,-1.492 -2.19,-3.328 -3,-5.293 -0.8,-2.066 -1.15,-4.137 -1.15,-6.433 l 24.63,0 c 0,2.871 -0.36,5.293 -0.93,7.363 z m 10.01,-13.352 -33.94,0 c 0,-3.218 0.46,-6.101 1.26,-8.629 0.93,-2.531 2.19,-4.601 3.68,-6.332 1.51,-1.726 3.34,-3.101 5.41,-4.019 2.07,-0.93 4.26,-1.379 6.68,-1.379 1.38,0 2.76,0.105 4.25,0.344 1.51,0.222 2.88,0.574 4.26,1.035 1.49,0.34 2.76,0.918 4.14,1.492 1.27,0.684 2.54,1.387 3.57,2.07 0.11,-0.234 0.23,-0.683 0.35,-1.269 0.11,-0.567 0.11,-1.153 0.11,-1.719 0,-1.387 -0.46,-2.644 -1.38,-3.801 -0.92,-1.148 -2.18,-2.293 -3.91,-3.218 -1.73,-0.918 -3.8,-1.614 -6.21,-2.192 -2.54,-0.574 -5.29,-0.801 -8.29,-0.801 -3.33,0 -6.33,0.578 -9.2,1.848 -2.99,1.262 -5.41,2.988 -7.6,5.281 -2.18,2.309 -3.9,5.071 -5.17,8.293 -1.16,3.223 -1.84,6.895 -1.84,10.918 0,4.961 0.68,9.446 2.07,13.36 1.38,3.789 3.22,7.011 5.52,9.66 2.18,2.527 4.71,4.597 7.6,5.867 2.87,1.379 5.86,2.07 8.85,2.07 3.11,0 5.87,-0.469 8.4,-1.504 2.41,-1.035 4.48,-2.402 6.21,-4.25 1.73,-1.961 3,-4.148 3.92,-6.785 0.92,-2.762 1.37,-5.644 1.37,-8.972 0,-1.157 0,-2.192 0,-3.45 0,-1.152 0,-2.539 -0.11,-3.918"
             style="fill:#231f20;fill-opacity:1;fill-rule:nonzero;stroke:none"
             id="path64"
             inkscape:connector-curvature="0" /><path
             d="m 1705.76,444.258 -39.23,0 -0.92,1.719 28.31,46.015 -13.47,0 c -2.3,0 -4.02,-0.449 -5.41,-1.367 -1.38,-0.809 -2.3,-2.07 -2.87,-3.574 l -1.04,-2.871 -3.45,0 1.27,14.375 36.81,-0.117 0.92,-2.071 -27.96,-45.676 14.16,0 c 1.5,0 2.75,0.122 3.79,0.344 1.15,0.117 1.96,0.469 2.76,0.813 0.7,0.34 1.27,0.808 1.73,1.257 0.46,0.586 0.92,1.27 1.26,1.961 l 1.85,3.801 3.1,0 -1.61,-14.609"
             style="fill:#231f20;fill-opacity:1;fill-rule:nonzero;stroke:none"
             id="path66"
             inkscape:connector-curvature="0" /><path
             d="m 1753.72,481.301 c -0.81,2.527 -1.95,4.715 -3.34,6.551 -1.49,1.738 -3.1,3.105 -4.94,4.035 -1.85,0.918 -3.8,1.375 -5.87,1.375 -1.95,0 -3.92,-0.567 -5.75,-1.492 -1.96,-1.036 -3.68,-2.415 -5.07,-4.368 -1.49,-1.961 -2.75,-4.375 -3.56,-7.254 -0.92,-2.882 -1.38,-6.21 -1.38,-10.011 0,-3.446 0.46,-6.551 1.26,-9.082 0.81,-2.657 1.96,-4.832 3.34,-6.68 1.49,-1.719 3.1,-3.105 4.95,-4.023 1.84,-0.801 3.79,-1.27 5.86,-1.27 1.96,0 3.8,0.469 5.76,1.387 1.84,0.918 3.56,2.414 5.06,4.375 1.49,1.836 2.65,4.258 3.56,7.246 0.92,2.871 1.39,6.328 1.39,10.234 0,3.34 -0.47,6.328 -1.27,8.977 z m 9.43,-20.832 c -1.49,-3.789 -3.44,-7.012 -5.98,-9.778 -2.53,-2.644 -5.4,-4.714 -8.63,-6.089 -3.33,-1.497 -6.67,-2.192 -10,-2.192 -3.46,0 -6.79,0.578 -9.79,1.848 -3.11,1.152 -5.75,2.871 -8.05,5.176 -2.18,2.187 -4.03,5.058 -5.41,8.281 -1.27,3.34 -1.95,7.012 -1.95,11.269 0,4.727 0.8,8.985 2.19,12.774 1.49,3.801 3.56,7.129 5.97,9.785 2.53,2.637 5.41,4.707 8.64,6.211 3.22,1.492 6.67,2.187 10.23,2.187 3.57,0 6.79,-0.695 9.89,-1.953 3.12,-1.269 5.77,-3 7.94,-5.41 2.31,-2.305 4.04,-5.066 5.3,-8.281 1.38,-3.34 1.96,-6.914 1.96,-10.938 0,-4.714 -0.69,-9.082 -2.31,-12.89"
             style="fill:#231f20;fill-opacity:1;fill-rule:nonzero;stroke:none"
             id="path68"
             inkscape:connector-curvature="0" /><path
             d="m 1816.41,443.223 c -1.16,0 -2.43,0.105 -3.8,0.222 -1.27,0.121 -2.53,0.344 -3.68,0.813 l 0,1.953 c 1.49,0.684 2.53,1.492 3.1,2.754 0.69,1.152 1.04,2.773 1.04,4.844 l 0,21.972 c 0,2.754 -0.35,5.176 -0.81,7.129 -0.57,2.07 -1.38,3.684 -2.42,4.832 -1.03,1.262 -2.18,2.18 -3.56,2.766 -1.49,0.566 -3,0.801 -4.72,0.801 -2.3,0 -4.6,-0.352 -6.68,-1.036 -2.17,-0.683 -3.9,-1.613 -5.17,-2.531 l 0,-38.66 6.44,-1.719 0,-2.187 c -1.03,-0.352 -1.95,-0.692 -2.88,-0.918 -1.03,-0.235 -2.07,-0.469 -3.1,-0.586 -1.04,-0.106 -2.18,-0.227 -3.45,-0.344 -1.15,0 -2.41,-0.105 -3.92,-0.105 -1.37,0 -2.87,0.105 -4.36,0.222 -1.5,0.121 -3,0.344 -4.26,0.813 l 0,1.953 c 0.8,0.234 1.49,0.566 2.19,1.035 0.8,0.457 1.37,0.918 1.95,1.492 0.58,0.461 1.04,1.039 1.49,1.731 0.35,0.566 0.46,1.269 0.46,1.953 l 0,38.887 -7.48,3.105 0,2.539 c 2.65,0.801 5.19,1.262 7.6,1.602 2.41,0.351 4.48,0.468 6.21,0.468 l 2.77,0 0,-6.218 c 1.95,1.961 4.48,3.562 7.48,4.715 2.98,1.152 6.21,1.726 9.55,1.726 2.41,0 4.6,-0.34 6.55,-1.148 1.95,-0.813 3.68,-1.953 5.06,-3.45 1.38,-1.503 2.54,-3.339 3.34,-5.527 0.69,-2.305 1.15,-4.941 1.15,-7.82 l 0,-32.219 5.99,-1.719 0,-2.187 c -3.23,-1.27 -7.26,-1.953 -12.08,-1.953"
             style="fill:#231f20;fill-opacity:1;fill-rule:nonzero;stroke:none"
             id="path70"
             inkscape:connector-curvature="0" /><path
             d="m 1871.94,491.992 c -0.91,0.352 -2.18,0.586 -3.8,0.93 -1.49,0.223 -2.98,0.34 -4.6,0.34 -2.41,0 -4.71,-0.457 -6.78,-1.492 -2.07,-0.918 -3.92,-2.415 -5.53,-4.368 -1.49,-1.961 -2.65,-4.375 -3.56,-7.363 -0.8,-2.996 -1.26,-6.445 -1.26,-10.469 0,-3.105 0.34,-5.879 1.14,-8.293 0.81,-2.41 1.84,-4.48 3.11,-6.101 1.26,-1.602 2.65,-2.871 4.37,-3.672 1.61,-0.918 3.34,-1.27 5.18,-1.27 1.15,0 2.18,0.118 3.33,0.235 1.16,0.222 2.19,0.461 3.23,0.801 1.03,0.351 1.95,0.695 2.87,1.152 0.93,0.461 1.61,0.918 2.3,1.496 l 0,38.074 z m 10.01,-47.051 c -1.27,-0.8 -2.76,-1.718 -4.37,-2.531 -1.14,0.918 -2.18,1.965 -3.21,3.227 -0.93,1.258 -1.73,2.527 -2.31,3.679 -0.92,-0.918 -1.95,-1.836 -3.22,-2.644 -1.15,-0.813 -2.41,-1.496 -3.68,-2.07 -1.38,-0.579 -2.65,-1.036 -4.03,-1.379 -1.38,-0.352 -2.64,-0.469 -3.8,-0.469 -2.88,0 -5.63,0.574 -8.17,1.73 -2.53,1.153 -4.72,2.879 -6.67,4.95 -1.84,2.187 -3.34,4.824 -4.48,7.929 -1.04,3.106 -1.61,6.563 -1.61,10.364 0,5.175 0.68,9.773 2.18,13.691 1.5,4.023 3.45,7.359 5.98,10.008 2.42,2.754 5.41,4.824 8.75,6.211 3.33,1.386 6.79,2.07 10.58,2.07 1.38,0 2.76,-0.117 4.25,-0.234 1.5,-0.118 2.77,-0.34 3.69,-0.567 l 0,20.246 -7.83,3.106 0,2.527 c 2.65,0.813 5.3,1.27 7.83,1.621 2.64,0.227 4.71,0.449 6.44,0.449 l 3.68,0 -0.69,-6.445 0,-65.918 c 0.47,-1.152 1.03,-2.304 1.73,-3.457 0.69,-1.14 1.49,-2.297 2.64,-3.222 -1.15,-1.036 -2.41,-1.954 -3.68,-2.872"
             style="fill:#231f20;fill-opacity:1;fill-rule:nonzero;stroke:none"
             id="path72"
             inkscape:connector-curvature="0" /><path
             d="m 1943.83,443.672 c -2.07,-0.227 -4.26,-0.449 -6.79,-0.449 -1.15,0 -2.42,0.105 -3.68,0.222 -1.39,0.121 -2.53,0.344 -3.68,0.813 l 0,1.953 c 1.37,0.684 2.41,1.492 3.1,2.754 0.7,1.152 1.04,2.773 1.04,4.844 l 0,21.972 c 0,2.754 -0.24,5.176 -0.81,7.129 -0.58,2.07 -1.38,3.684 -2.3,4.832 -1.03,1.262 -2.3,2.18 -3.68,2.766 -1.49,0.566 -3.1,0.801 -4.95,0.801 -1.04,0 -2.19,-0.118 -3.33,-0.235 -1.04,-0.222 -2.19,-0.449 -3.12,-0.801 -1.03,-0.351 -1.95,-0.683 -2.87,-1.152 -0.81,-0.461 -1.61,-0.918 -2.3,-1.379 l 0,-38.66 6.44,-1.719 0,-2.187 c -1.03,-0.352 -1.95,-0.692 -2.87,-0.918 -1.04,-0.235 -1.96,-0.469 -3.11,-0.586 -1.04,-0.106 -2.18,-0.227 -3.33,-0.344 -1.27,0 -2.53,-0.105 -4.04,-0.105 -1.26,0 -2.75,0.105 -4.24,0.222 -1.61,0.121 -3.12,0.344 -4.38,0.813 l 0,1.953 c 0.8,0.234 1.5,0.566 2.3,1.035 0.69,0.457 1.38,0.918 1.96,1.492 0.58,0.461 1.03,1.039 1.38,1.731 0.34,0.566 0.46,1.269 0.46,1.953 l 0,66.73 -7.49,3.106 0,2.527 c 2.65,0.813 5.07,1.27 7.37,1.621 2.3,0.227 4.49,0.449 6.44,0.449 l 3.69,0 -0.58,-6.445 0,-27.488 c 2.07,1.949 4.49,3.562 7.25,4.715 2.64,1.035 5.86,1.609 9.44,1.609 2.41,0 4.72,-0.34 6.67,-1.148 1.95,-0.813 3.68,-1.953 5.06,-3.45 1.38,-1.503 2.53,-3.339 3.22,-5.527 0.81,-2.305 1.15,-4.941 1.15,-7.82 l 0,-32.219 5.99,-1.719 0,-2.187 c -1.61,-0.692 -3.46,-1.153 -5.41,-1.504"
             style="fill:#231f20;fill-opacity:1;fill-rule:nonzero;stroke:none"
             id="path74"
             inkscape:connector-curvature="0" /><path
             d="m 1990.62,484.297 c -0.58,2.07 -1.38,3.789 -2.42,5.176 -1.03,1.379 -2.18,2.414 -3.68,3.105 -1.38,0.684 -2.99,1.035 -4.6,1.035 -1.61,0 -3.1,-0.468 -4.71,-1.386 -1.62,-0.801 -3,-2.071 -4.15,-3.567 -1.27,-1.492 -2.18,-3.328 -2.99,-5.293 -0.8,-2.066 -1.16,-4.137 -1.16,-6.433 l 24.63,0 c 0,2.871 -0.35,5.293 -0.92,7.363 z m 10.01,-13.352 -33.94,0 c 0,-3.218 0.46,-6.101 1.26,-8.629 0.93,-2.531 2.19,-4.601 3.68,-6.332 1.5,-1.726 3.34,-3.101 5.41,-4.019 2.07,-0.93 4.26,-1.379 6.68,-1.379 1.38,0 2.75,0.105 4.25,0.344 1.5,0.222 2.88,0.574 4.26,1.035 1.49,0.34 2.76,0.918 4.14,1.492 1.27,0.684 2.54,1.387 3.57,2.07 0.11,-0.234 0.23,-0.683 0.34,-1.269 0.12,-0.567 0.12,-1.153 0.12,-1.719 0,-1.387 -0.46,-2.644 -1.39,-3.801 -0.91,-1.148 -2.17,-2.293 -3.9,-3.218 -1.73,-0.918 -3.8,-1.614 -6.21,-2.192 -2.54,-0.574 -5.3,-0.801 -8.29,-0.801 -3.33,0 -6.33,0.578 -9.2,1.848 -2.99,1.262 -5.41,2.988 -7.6,5.281 -2.18,2.309 -3.91,5.071 -5.18,8.293 -1.15,3.223 -1.83,6.895 -1.83,10.918 0,4.961 0.68,9.446 2.07,13.36 1.37,3.789 3.22,7.011 5.51,9.66 2.19,2.527 4.72,4.597 7.6,5.867 2.87,1.379 5.87,2.07 8.86,2.07 3.11,0 5.87,-0.469 8.4,-1.504 2.41,-1.035 4.48,-2.402 6.21,-4.25 1.73,-1.961 3,-4.148 3.92,-6.785 0.91,-2.762 1.37,-5.644 1.37,-8.972 0,-1.157 0,-2.192 0,-3.45 0,-1.152 0,-2.539 -0.11,-3.918"
             style="fill:#231f20;fill-opacity:1;fill-rule:nonzero;stroke:none"
             id="path76"
             inkscape:connector-curvature="0" /><path
             d="m 2026.72,513.859 c -0.35,-0.812 -0.81,-1.613 -1.39,-2.179 -0.57,-0.703 -1.26,-1.153 -2.07,-1.504 -0.8,-0.457 -1.61,-0.574 -2.53,-0.574 -0.8,0 -1.61,0.117 -2.41,0.457 -0.69,0.351 -1.39,0.808 -1.96,1.386 -0.46,0.567 -0.92,1.27 -1.26,2.071 -0.35,0.8 -0.46,1.718 -0.46,2.644 0,0.918 0.11,1.731 0.46,2.531 0.22,0.801 0.68,1.497 1.26,2.188 0.57,0.684 1.27,1.152 2.07,1.492 0.81,0.344 1.73,0.578 2.76,0.578 0.81,0 1.61,-0.117 2.31,-0.461 0.68,-0.23 1.37,-0.691 1.95,-1.265 0.58,-0.461 0.92,-1.145 1.27,-1.953 0.34,-0.696 0.46,-1.614 0.46,-2.532 0,-1.035 -0.12,-1.953 -0.46,-2.879 z m 2.18,-69.601 c -1.04,-0.235 -1.96,-0.469 -3.11,-0.586 -1.03,-0.106 -2.18,-0.227 -3.33,-0.344 -1.27,0 -2.53,-0.105 -4.03,-0.105 -1.26,0 -2.76,0.105 -4.26,0.222 -1.6,0.121 -3.11,0.344 -4.37,0.813 l 0,1.953 c 0.81,0.234 1.5,0.566 2.3,1.035 0.69,0.457 1.39,0.918 1.96,1.492 0.58,0.461 1.04,1.039 1.38,1.731 0.34,0.566 0.46,1.269 0.46,1.953 l 0,38.887 -7.36,3.105 0,2.422 c 2.64,0.801 5.17,1.262 7.59,1.602 2.41,0.468 4.49,0.585 6.1,0.585 l 3.68,0 -0.58,-6.218 0,-43.723 6.45,-1.719 0,-2.187 c -1.04,-0.352 -1.96,-0.692 -2.88,-0.918"
             style="fill:#231f20;fill-opacity:1;fill-rule:nonzero;stroke:none"
             id="path78"
             inkscape:connector-curvature="0" /><path
             d="m 2075.02,491.992 c -0.92,0.352 -2.19,0.586 -3.8,0.93 -1.49,0.223 -2.99,0.34 -4.6,0.34 -2.41,0 -4.72,-0.457 -6.79,-1.492 -2.07,-0.918 -3.91,-2.415 -5.52,-4.368 -1.5,-1.961 -2.64,-4.375 -3.57,-7.363 -0.8,-2.996 -1.26,-6.445 -1.26,-10.469 0,-3.105 0.34,-5.879 1.15,-8.293 0.81,-2.41 1.84,-4.48 3.11,-6.101 1.26,-1.602 2.65,-2.871 4.37,-3.672 1.61,-0.918 3.34,-1.27 5.17,-1.27 1.15,0 2.19,0.118 3.34,0.235 1.15,0.222 2.19,0.461 3.22,0.801 1.04,0.351 1.96,0.695 2.87,1.152 0.93,0.461 1.62,0.918 2.31,1.496 l 0,38.074 z m 10.01,-47.051 c -1.27,-0.8 -2.76,-1.718 -4.38,-2.531 -1.14,0.918 -2.17,1.965 -3.22,3.227 -0.92,1.258 -1.72,2.527 -2.29,3.679 -0.92,-0.918 -1.96,-1.836 -3.23,-2.644 -1.15,-0.813 -2.41,-1.496 -3.68,-2.07 -1.37,-0.579 -2.64,-1.036 -4.02,-1.379 -1.39,-0.352 -2.65,-0.469 -3.8,-0.469 -2.88,0 -5.63,0.574 -8.17,1.73 -2.53,1.153 -4.72,2.879 -6.67,4.95 -1.84,2.187 -3.34,4.824 -4.49,7.929 -1.03,3.106 -1.61,6.563 -1.61,10.364 0,5.175 0.69,9.773 2.19,13.691 1.49,4.023 3.45,7.359 5.98,10.008 2.42,2.754 5.41,4.824 8.75,6.211 3.33,1.386 6.78,2.07 10.57,2.07 1.39,0 2.77,-0.117 4.26,-0.234 1.49,-0.118 2.76,-0.34 3.68,-0.567 l 0,20.246 -7.82,3.106 0,2.527 c 2.65,0.813 5.29,1.27 7.82,1.621 2.65,0.227 4.72,0.449 6.45,0.449 l 3.68,0 -0.69,-6.445 0,-65.918 c 0.45,-1.152 1.03,-2.304 1.72,-3.457 0.7,-1.14 1.5,-2.297 2.65,-3.222 -1.15,-1.036 -2.41,-1.954 -3.68,-2.872"
             style="fill:#231f20;fill-opacity:1;fill-rule:nonzero;stroke:none"
             id="path80"
             inkscape:connector-curvature="0" /><path
             d="m 2113.89,442.637 c -0.93,-2.41 -2.07,-4.59 -3.46,-6.551 -1.38,-1.848 -2.87,-3.449 -4.48,-4.602 -1.5,-1.269 -2.88,-2.07 -4.14,-2.421 l -3.11,0.808 c 2.3,2.414 4.14,5.063 5.28,7.707 1.27,2.649 1.85,5.75 1.85,9.094 l -4.02,5.066 c 0.46,0.684 1.03,1.367 1.61,1.953 0.56,0.684 1.14,1.153 1.83,1.602 0.58,0.469 1.27,0.812 1.96,1.035 0.69,0.352 1.38,0.469 1.96,0.469 1.84,0 3.33,-0.574 4.48,-1.731 1.15,-1.257 1.73,-2.878 1.73,-4.832 0,-2.644 -0.46,-5.175 -1.49,-7.597"
             style="fill:#231f20;fill-opacity:1;fill-rule:nonzero;stroke:none"
             id="path82"
             inkscape:connector-curvature="0" /><path
             d="m 719.801,381.797 c -0.922,-1.27 -1.613,-2.879 -2.188,-4.832 l -18.867,-63.281 -4.488,-0.461 -15.992,60.742 -0.118,0 -15.878,-60.281 -4.372,-0.461 -21.511,68.691 -6.328,1.953 0,2.41 c 1.953,0.696 3.91,1.157 5.871,1.496 2.066,0.352 4.019,0.469 5.863,0.469 1.84,0 3.566,0 5.18,-0.117 1.605,-0.117 3.218,-0.469 5.058,-0.918 l 0,-2.187 c -1.84,-0.352 -2.988,-1.153 -3.562,-2.188 -0.461,-1.035 -0.461,-2.539 0,-4.375 l 12.539,-46.367 0.113,0 12.195,49.824 -6.093,1.836 0,2.527 c 2.179,0.696 4.254,1.157 6.211,1.379 2.07,0.352 4.14,0.469 6.328,0.469 1.722,0 3.336,-0.117 5.062,-0.234 1.723,-0.235 3.106,-0.575 4.254,-0.918 l 0,-2.188 c -2.183,-0.801 -2.988,-2.762 -2.183,-5.976 l 11.156,-46.602 0.117,0 12.656,49.59 -7.019,2.187 0,2.414 c 2.187,0.575 4.144,1.141 6.215,1.375 1.953,0.352 3.91,0.469 5.871,0.469 1.605,0 2.875,-0.117 4.019,-0.234 1.153,-0.235 2.301,-0.574 3.453,-0.918 l 0,-2.07 c -1.492,-0.926 -2.644,-2.071 -3.562,-3.223"
             style="fill:#231f20;fill-opacity:1;fill-rule:nonzero;stroke:none"
             id="path84"
             inkscape:connector-curvature="0" /><path
             d="m 758.391,354.297 c -0.578,2.07 -1.383,3.789 -2.418,5.176 -1.035,1.386 -2.188,2.422 -3.684,3.105 -1.383,0.695 -2.992,1.035 -4.601,1.035 -1.61,0 -3.11,-0.461 -4.719,-1.379 -1.614,-0.808 -2.989,-2.078 -4.141,-3.562 -1.265,-1.504 -2.187,-3.34 -2.988,-5.293 -0.805,-2.07 -1.152,-4.141 -1.152,-6.445 l 24.621,0 c 0,2.871 -0.344,5.293 -0.918,7.363 z m 10.007,-13.352 -33.941,0 c 0,-3.211 0.461,-6.09 1.266,-8.621 0.918,-2.539 2.187,-4.609 3.679,-6.328 1.496,-1.726 3.336,-3.105 5.407,-4.023 2.078,-0.926 4.257,-1.387 6.675,-1.387 1.383,0 2.762,0.117 4.258,0.352 1.492,0.222 2.875,0.566 4.258,1.035 1.492,0.332 2.758,0.918 4.141,1.484 1.265,0.695 2.531,1.387 3.562,2.07 0.117,-0.222 0.231,-0.683 0.348,-1.257 0.117,-0.579 0.117,-1.157 0.117,-1.731 0,-1.379 -0.465,-2.637 -1.383,-3.789 -0.922,-1.152 -2.183,-2.305 -3.91,-3.223 -1.727,-0.925 -3.797,-1.609 -6.215,-2.187 -2.527,-0.574 -5.293,-0.813 -8.281,-0.813 -3.34,0 -6.328,0.578 -9.203,1.848 -2.992,1.262 -5.41,2.988 -7.594,5.293 -2.187,2.305 -3.91,5.059 -5.18,8.281 -1.148,3.223 -1.839,6.906 -1.839,10.93 0,4.949 0.691,9.434 2.07,13.348 1.379,3.789 3.222,7.011 5.523,9.668 2.184,2.519 4.719,4.589 7.594,5.859 2.879,1.387 5.863,2.07 8.859,2.07 3.106,0 5.868,-0.461 8.399,-1.496 2.418,-1.031 4.484,-2.41 6.211,-4.246 1.726,-1.965 2.992,-4.148 3.91,-6.797 0.922,-2.754 1.383,-5.633 1.383,-8.972 0,-1.145 0,-2.18 0,-3.45 0,-1.152 0,-2.539 -0.114,-3.918"
             style="fill:#231f20;fill-opacity:1;fill-rule:nonzero;stroke:none"
             id="path86"
             inkscape:connector-curvature="0" /><path
             d="m 796.676,314.258 c -1.035,-0.235 -2.071,-0.457 -3.106,-0.574 -1.035,-0.118 -2.187,-0.227 -3.453,-0.344 -1.152,0 -2.418,-0.117 -3.91,-0.117 -1.383,0 -2.879,0.117 -4.375,0.234 -1.496,0.109 -2.988,0.344 -4.254,0.801 l 0,1.953 c 0.805,0.234 1.492,0.574 2.184,1.035 0.804,0.457 1.383,0.918 1.957,1.504 0.578,0.449 1.035,1.035 1.496,1.719 0.344,0.578 0.457,1.269 0.457,1.953 l 0,66.738 -7.477,3.106 0,2.531 c 1.266,0.34 2.649,0.691 3.91,0.918 1.266,0.223 2.532,0.457 3.801,0.691 1.149,0.117 2.301,0.235 3.336,0.344 1.035,0 1.953,0.113 2.758,0.113 l 3.684,0 -0.575,-6.441 0,-71.328 6.442,-1.731 0,-2.187 c -1.035,-0.34 -1.953,-0.684 -2.875,-0.918"
             style="fill:#231f20;fill-opacity:1;fill-rule:nonzero;stroke:none"
             id="path88"
             inkscape:connector-curvature="0" /><path
             d="m 845.559,314.258 -39.235,0 -0.918,1.726 28.301,46.02 -13.465,0 c -2.297,0 -4.019,-0.461 -5.402,-1.379 -1.383,-0.801 -2.301,-2.07 -2.875,-3.574 l -1.035,-2.871 -3.453,0 1.261,14.386 36.821,-0.121 0.921,-2.066 -27.96,-45.676 14.152,0 c 1.492,0 2.762,0.117 3.797,0.344 1.148,0.113 1.953,0.457 2.761,0.808 0.692,0.34 1.262,0.801 1.727,1.258 0.461,0.578 0.918,1.274 1.266,1.965 l 1.84,3.789 3.105,0 -1.609,-14.609"
             style="fill:#231f20;fill-opacity:1;fill-rule:nonzero;stroke:none"
             id="path90"
             inkscape:connector-curvature="0" /><path
             d="m 870.504,383.867 c -0.344,-0.808 -0.809,-1.621 -1.379,-2.187 -0.574,-0.696 -1.27,-1.153 -2.074,-1.504 -0.801,-0.449 -1.606,-0.567 -2.531,-0.567 -0.805,0 -1.61,0.118 -2.415,0.457 -0.687,0.344 -1.382,0.813 -1.953,1.379 -0.464,0.578 -0.922,1.27 -1.265,2.071 -0.348,0.808 -0.465,1.726 -0.465,2.656 0,0.918 0.117,1.719 0.465,2.519 0.23,0.813 0.687,1.504 1.265,2.188 0.571,0.691 1.266,1.152 2.071,1.504 0.804,0.344 1.722,0.566 2.757,0.566 0.805,0 1.614,-0.117 2.305,-0.461 0.688,-0.222 1.375,-0.691 1.953,-1.258 0.575,-0.468 0.922,-1.152 1.266,-1.953 0.348,-0.703 0.465,-1.621 0.465,-2.539 0,-1.035 -0.117,-1.953 -0.465,-2.871 z m 2.187,-69.609 c -1.035,-0.235 -1.961,-0.457 -3.105,-0.574 -1.035,-0.118 -2.188,-0.227 -3.336,-0.344 -1.27,0 -2.535,-0.117 -4.027,-0.117 -1.266,0 -2.766,0.117 -4.258,0.234 -1.613,0.109 -3.106,0.344 -4.371,0.801 l 0,1.953 c 0.804,0.234 1.496,0.574 2.301,1.035 0.687,0.457 1.378,0.918 1.953,1.504 0.574,0.449 1.039,1.035 1.382,1.719 0.344,0.578 0.458,1.269 0.458,1.953 l 0,38.887 -7.364,3.105 0,2.422 c 2.649,0.801 5.18,1.269 7.598,1.609 2.414,0.461 4.48,0.578 6.094,0.578 l 3.679,0 -0.57,-6.21 0,-43.719 6.441,-1.731 0,-2.187 c -1.035,-0.34 -1.953,-0.684 -2.875,-0.918"
             style="fill:#231f20;fill-opacity:1;fill-rule:nonzero;stroke:none"
             id="path92"
             inkscape:connector-curvature="0" /><path
             d="m 900.684,383.867 c -0.34,-0.808 -0.688,-1.621 -1.266,-2.187 -0.688,-0.696 -1.266,-1.153 -2.07,-1.504 -0.805,-0.449 -1.61,-0.567 -2.535,-0.567 -0.918,0 -1.723,0.118 -2.411,0.457 -0.804,0.344 -1.382,0.813 -1.957,1.379 -0.578,0.578 -1.035,1.27 -1.265,2.071 -0.348,0.808 -0.457,1.726 -0.457,2.656 0,0.918 0.109,1.719 0.34,2.519 0.347,0.813 0.804,1.504 1.382,2.188 0.575,0.691 1.266,1.152 2.071,1.504 0.804,0.344 1.726,0.566 2.761,0.566 0.692,0 1.496,-0.117 2.184,-0.461 0.805,-0.222 1.383,-0.691 1.957,-1.258 0.578,-0.468 0.926,-1.152 1.266,-1.953 0.347,-0.703 0.461,-1.621 0.461,-2.539 0,-1.035 -0.114,-1.953 -0.461,-2.871 z m -1.266,-21.289 0,-51.66 c 0,-4.719 -0.348,-8.621 -1.035,-11.848 -0.688,-3.101 -1.61,-5.632 -2.762,-7.593 -1.148,-1.954 -2.531,-3.332 -4.141,-4.141 -1.613,-0.805 -3.335,-1.152 -5.062,-1.152 -1.379,0 -2.531,0.234 -3.684,0.691 -1.148,0.461 -2.07,1.152 -2.875,2.07 l 0,1.848 c 1.27,0 2.536,0.34 3.797,1.031 1.153,0.805 2.301,1.836 3.223,3.332 0.918,1.496 1.726,3.34 2.184,5.528 0.578,2.187 0.921,4.718 0.921,7.589 l 0,53.036 -7.363,3.105 0,2.422 c 2.649,0.801 5.176,1.269 7.594,1.609 2.418,0.461 4.488,0.578 6.098,0.578 l 3.792,0 -0.687,-6.445"
             style="fill:#231f20;fill-opacity:1;fill-rule:nonzero;stroke:none"
             id="path94"
             inkscape:connector-curvature="0" /><path
             d="m 955.316,313.223 c -1.152,0 -2.418,0.117 -3.793,0.234 -1.269,0.109 -2.535,0.344 -3.679,0.801 l 0,1.953 c 1.492,0.691 2.527,1.492 3.101,2.766 0.692,1.152 1.035,2.761 1.035,4.832 l 0,21.972 c 0,2.766 -0.343,5.176 -0.804,7.129 -0.574,2.07 -1.379,3.692 -2.414,4.844 -1.035,1.262 -2.192,2.18 -3.567,2.754 -1.5,0.578 -2.992,0.801 -4.715,0.801 -2.304,0 -4.605,-0.34 -6.675,-1.036 -2.188,-0.683 -3.91,-1.601 -5.176,-2.519 l 0,-38.66 6.437,-1.731 0,-2.187 c -1.035,-0.34 -1.953,-0.684 -2.875,-0.918 -1.035,-0.235 -2.07,-0.457 -3.105,-0.574 -1.035,-0.118 -2.188,-0.227 -3.449,-0.344 -1.157,0 -2.418,-0.117 -3.914,-0.117 -1.379,0 -2.875,0.117 -4.375,0.234 -1.493,0.109 -2.989,0.344 -4.25,0.801 l 0,1.953 c 0.804,0.234 1.492,0.574 2.179,1.035 0.809,0.457 1.383,0.918 1.957,1.504 0.579,0.449 1.036,1.035 1.496,1.719 0.348,0.578 0.458,1.269 0.458,1.953 l 0,38.887 -7.473,3.105 0,2.539 c 2.644,0.801 5.176,1.27 7.594,1.613 2.414,0.34 4.484,0.457 6.211,0.457 l 2.761,0 0,-6.21 c 1.953,1.953 4.489,3.566 7.477,4.707 2.992,1.152 6.215,1.738 9.551,1.738 2.418,0 4.601,-0.352 6.554,-1.153 1.961,-0.808 3.684,-1.953 5.067,-3.457 1.383,-1.496 2.527,-3.339 3.336,-5.527 0.691,-2.297 1.152,-4.941 1.152,-7.812 l 0,-32.215 5.98,-1.731 0,-2.187 c -3.222,-1.258 -7.246,-1.953 -12.082,-1.953"
             style="fill:#231f20;fill-opacity:1;fill-rule:nonzero;stroke:none"
             id="path96"
             inkscape:connector-curvature="0" /><path
             d="m 1031.67,354.297 c -0.57,2.07 -1.38,3.789 -2.41,5.176 -1.04,1.386 -2.19,2.422 -3.68,3.105 -1.39,0.695 -3,1.035 -4.61,1.035 -1.6,0 -3.1,-0.461 -4.72,-1.379 -1.6,-0.808 -2.98,-2.078 -4.14,-3.562 -1.26,-1.504 -2.18,-3.34 -2.99,-5.293 -0.8,-2.07 -1.15,-4.141 -1.15,-6.445 l 24.62,0 c 0,2.871 -0.34,5.293 -0.92,7.363 z m 10.01,-13.352 -33.94,0 c 0,-3.211 0.46,-6.09 1.27,-8.621 0.92,-2.539 2.19,-4.609 3.68,-6.328 1.49,-1.726 3.34,-3.105 5.41,-4.023 2.07,-0.926 4.25,-1.387 6.67,-1.387 1.38,0 2.76,0.117 4.26,0.352 1.49,0.222 2.87,0.566 4.26,1.035 1.49,0.332 2.75,0.918 4.14,1.484 1.26,0.695 2.53,1.387 3.56,2.07 0.12,-0.222 0.23,-0.683 0.35,-1.257 0.12,-0.579 0.12,-1.157 0.12,-1.731 0,-1.379 -0.47,-2.637 -1.39,-3.789 -0.92,-1.152 -2.18,-2.305 -3.91,-3.223 -1.73,-0.925 -3.8,-1.609 -6.21,-2.187 -2.53,-0.574 -5.3,-0.813 -8.28,-0.813 -3.34,0 -6.33,0.578 -9.21,1.848 -2.99,1.262 -5.41,2.988 -7.59,5.293 -2.19,2.305 -3.91,5.059 -5.182,8.281 -1.149,3.223 -1.84,6.906 -1.84,10.93 0,4.949 0.691,9.434 2.074,13.348 1.378,3.789 3.218,7.011 5.518,9.668 2.19,2.519 4.72,4.589 7.6,5.859 2.87,1.387 5.86,2.07 8.85,2.07 3.11,0 5.87,-0.461 8.4,-1.496 2.42,-1.031 4.49,-2.41 6.21,-4.246 1.73,-1.965 3,-4.148 3.92,-6.797 0.92,-2.754 1.38,-5.633 1.38,-8.972 0,-1.145 0,-2.18 0,-3.45 0,-1.152 0,-2.539 -0.12,-3.918"
             style="fill:#231f20;fill-opacity:1;fill-rule:nonzero;stroke:none"
             id="path98"
             inkscape:connector-curvature="0" /><path
             d="m 1093.08,313.223 c -1.15,0 -2.42,0.117 -3.79,0.234 -1.27,0.109 -2.54,0.344 -3.68,0.801 l 0,1.953 c 1.49,0.691 2.52,1.492 3.1,2.766 0.69,1.152 1.04,2.761 1.04,4.832 l 0,21.972 c 0,2.766 -0.35,5.176 -0.81,7.129 -0.58,2.07 -1.38,3.692 -2.42,4.844 -1.03,1.262 -2.18,2.18 -3.56,2.754 -1.5,0.578 -2.99,0.801 -4.72,0.801 -2.3,0 -4.6,-0.34 -6.67,-1.036 -2.19,-0.683 -3.91,-1.601 -5.18,-2.519 l 0,-38.66 6.44,-1.731 0,-2.187 c -1.03,-0.34 -1.95,-0.684 -2.87,-0.918 -1.04,-0.235 -2.07,-0.457 -3.11,-0.574 -1.03,-0.118 -2.19,-0.227 -3.45,-0.344 -1.15,0 -2.42,-0.117 -3.91,-0.117 -1.38,0 -2.88,0.117 -4.38,0.234 -1.49,0.109 -2.99,0.344 -4.25,0.801 l 0,1.953 c 0.81,0.234 1.49,0.574 2.18,1.035 0.81,0.457 1.38,0.918 1.96,1.504 0.58,0.449 1.04,1.035 1.49,1.719 0.35,0.578 0.46,1.269 0.46,1.953 l 0,38.887 -7.47,3.105 0,2.539 c 2.64,0.801 5.17,1.27 7.59,1.613 2.42,0.34 4.49,0.457 6.21,0.457 l 2.76,0 0,-6.21 c 1.96,1.953 4.49,3.566 7.48,4.707 2.99,1.152 6.22,1.738 9.55,1.738 2.42,0 4.61,-0.352 6.56,-1.153 1.96,-0.808 3.68,-1.953 5.06,-3.457 1.38,-1.496 2.53,-3.339 3.34,-5.527 0.69,-2.297 1.15,-4.941 1.15,-7.812 l 0,-32.215 5.98,-1.731 0,-2.187 c -3.22,-1.258 -7.24,-1.953 -12.08,-1.953"
             style="fill:#231f20;fill-opacity:1;fill-rule:nonzero;stroke:none"
             id="path100"
             inkscape:connector-curvature="0" /><path
             d="m 1176.46,326.563 c -1.39,-2.637 -3.23,-5.059 -5.53,-7.129 -2.3,-2.071 -5.06,-3.68 -8.17,-4.832 -3.1,-1.262 -6.32,-1.836 -9.78,-1.836 -3.68,0 -6.9,0.117 -9.78,0.574 -2.76,0.344 -5.4,0.918 -7.93,1.836 l 0,16.679 3.33,0 0.81,-2.871 c 0.46,-1.609 1.03,-2.988 1.72,-4.023 0.7,-1.152 1.61,-2.188 2.77,-2.883 1.03,-0.808 2.41,-1.258 4.02,-1.726 1.61,-0.34 3.45,-0.45 5.64,-0.45 2.07,0 4.14,0.227 5.98,0.801 1.84,0.567 3.34,1.492 4.72,2.531 1.38,1.036 2.53,2.293 3.22,3.797 0.81,1.496 1.15,3.106 1.15,4.824 0,2.188 -0.8,4.375 -2.41,6.563 -1.5,2.187 -4.03,4.258 -7.6,6.328 l -10.93,6.445 c -7.02,4.141 -10.47,10.008 -10.47,17.481 0,2.883 0.58,5.527 1.84,7.949 1.27,2.52 3,4.59 5.18,6.438 2.07,1.726 4.6,3.218 7.6,4.257 2.98,0.926 6.09,1.493 9.43,1.493 1.72,0 3.33,0 4.83,-0.118 1.38,-0.117 2.76,-0.222 4.14,-0.449 1.27,-0.234 2.53,-0.586 3.69,-0.926 1.14,-0.343 2.3,-0.695 3.45,-1.144 l -1.04,-16.231 -3.34,0 -0.46,2.305 c -0.34,1.719 -0.92,3.223 -1.49,4.375 -0.58,1.145 -1.38,2.188 -2.42,2.871 -0.92,0.684 -2.18,1.27 -3.57,1.613 -1.37,0.34 -2.98,0.458 -4.94,0.458 -2.07,0 -3.91,-0.352 -5.64,-0.918 -1.61,-0.579 -3.11,-1.387 -4.26,-2.422 -1.15,-0.918 -2.07,-2.071 -2.76,-3.446 -0.58,-1.261 -0.92,-2.648 -0.92,-4.035 0,-2.297 0.69,-4.48 1.96,-6.328 1.27,-1.953 3.57,-3.555 6.55,-5.293 l 11.4,-6.211 c 4.02,-2.187 7.13,-4.707 9.09,-7.707 1.95,-2.984 2.99,-6.324 2.99,-10.008 0,-2.988 -0.69,-5.859 -2.07,-8.632"
             style="fill:#231f20;fill-opacity:1;fill-rule:nonzero;stroke:none"
             id="path102"
             inkscape:connector-curvature="0" /><path
             d="m 1227.17,351.074 c -0.8,2.422 -1.96,4.375 -3.34,5.977 -1.38,1.621 -2.99,2.883 -4.83,3.691 -1.84,0.801 -3.68,1.153 -5.64,1.153 -2.07,0 -4.02,-0.235 -5.75,-0.696 -1.73,-0.457 -3.33,-1.043 -4.83,-1.961 l 0,-39.004 c 0.92,-0.332 2.07,-0.566 3.33,-0.683 1.27,-0.117 2.65,-0.117 4.03,-0.117 2.54,0 4.95,0.468 7.25,1.386 2.19,0.801 4.14,2.293 5.75,4.141 1.62,1.953 2.99,4.375 3.92,7.246 0.91,2.988 1.38,6.563 1.38,10.586 0,3.105 -0.47,5.859 -1.27,8.281 z m 8.86,-19.785 c -1.5,-4.023 -3.57,-7.363 -6.22,-10.129 -2.52,-2.762 -5.52,-4.832 -8.97,-6.101 -3.34,-1.375 -6.9,-2.071 -10.58,-2.071 -1.27,0 -2.54,0.117 -3.91,0.352 -1.38,0.226 -2.54,0.578 -3.45,1.035 l 0,-22.551 7.59,-1.609 0,-2.305 c -1.96,-0.691 -4.14,-1.152 -6.45,-1.379 -2.3,-0.347 -5.06,-0.457 -8.05,-0.457 -1.38,0 -2.87,0.11 -4.37,0.227 -1.5,0.117 -2.87,0.457 -4.26,0.808 l 0,1.954 c 0.81,0.222 1.5,0.578 2.19,1.035 0.8,0.343 1.38,0.8 1.95,1.379 0.69,0.574 1.16,1.152 1.5,1.726 0.34,0.695 0.46,1.375 0.46,2.07 l 0,66.036 -7.48,3.105 0,2.539 c 2.65,0.801 5.29,1.27 7.71,1.613 2.42,0.34 4.37,0.457 6.1,0.457 l 2.76,0 0,-5.293 c 1.84,1.719 4.14,3.106 6.79,4.258 2.76,1.035 5.41,1.614 8.05,1.614 2.88,0 5.64,-0.579 8.17,-1.614 2.53,-1.035 4.83,-2.539 6.67,-4.609 1.84,-2.07 3.34,-4.59 4.49,-7.586 1.03,-3 1.61,-6.438 1.61,-10.363 0,-5.403 -0.81,-10 -2.3,-14.141"
             style="fill:#231f20;fill-opacity:1;fill-rule:nonzero;stroke:none"
             id="path104"
             inkscape:connector-curvature="0" /><path
             d="m 1287.43,351.309 c -0.81,2.531 -1.96,4.707 -3.34,6.55 -1.49,1.731 -3.1,3.11 -4.95,4.036 -1.84,0.918 -3.79,1.378 -5.86,1.378 -1.95,0 -3.91,-0.578 -5.75,-1.496 -1.96,-1.035 -3.68,-2.422 -5.07,-4.375 -1.49,-1.953 -2.75,-4.375 -3.56,-7.246 -0.92,-2.879 -1.38,-6.211 -1.38,-10.008 0,-3.449 0.46,-6.562 1.27,-9.093 0.8,-2.649 1.95,-4.832 3.33,-6.668 1.49,-1.731 3.1,-3.117 4.95,-4.035 1.84,-0.801 3.79,-1.258 5.86,-1.258 1.96,0 3.8,0.457 5.76,1.375 1.84,0.918 3.57,2.422 5.06,4.375 1.49,1.836 2.65,4.258 3.56,7.246 0.93,2.871 1.38,6.328 1.38,10.234 0,3.34 -0.45,6.328 -1.26,8.985 z m 9.44,-20.829 c -1.5,-3.8 -3.45,-7.023 -5.99,-9.777 -2.53,-2.644 -5.41,-4.719 -8.62,-6.101 -3.34,-1.497 -6.67,-2.18 -10.01,-2.18 -3.46,0 -6.8,0.566 -9.79,1.836 -3.1,1.152 -5.75,2.883 -8.05,5.176 -2.18,2.187 -4.02,5.058 -5.41,8.281 -1.26,3.34 -1.95,7.019 -1.95,11.277 0,4.719 0.8,8.977 2.18,12.766 1.5,3.808 3.57,7.14 5.98,9.785 2.54,2.648 5.42,4.719 8.64,6.211 3.22,1.504 6.67,2.187 10.23,2.187 3.58,0 6.8,-0.683 9.9,-1.953 3.11,-1.269 5.75,-2.988 7.93,-5.41 2.31,-2.305 4.03,-5.058 5.3,-8.281 1.38,-3.34 1.95,-6.902 1.95,-10.938 0,-4.707 -0.68,-9.082 -2.29,-12.879"
             style="fill:#231f20;fill-opacity:1;fill-rule:nonzero;stroke:none"
             id="path106"
             inkscape:connector-curvature="0" /><path
             d="m 1342.34,361.199 c -0.34,-1.265 -0.8,-2.41 -1.37,-3.445 -1.04,0.801 -2.19,1.484 -3.45,1.953 -1.27,0.449 -2.42,0.684 -3.69,0.684 -3.56,0 -6.9,-1.602 -10.12,-4.715 l 0,-36.582 7.93,-1.731 0,-2.187 c -0.92,-0.34 -1.95,-0.684 -2.99,-0.918 -0.92,-0.235 -1.95,-0.457 -3.1,-0.574 -1.16,-0.118 -2.42,-0.227 -3.67,-0.344 -1.39,0 -2.89,-0.117 -4.5,-0.117 -1.73,0 -3.34,0.117 -4.83,0.234 -1.61,0.109 -3.11,0.344 -4.37,0.801 l 0,1.953 c 0.8,0.234 1.49,0.574 2.18,1.035 0.81,0.457 1.38,0.918 1.96,1.504 0.57,0.449 1.04,1.035 1.49,1.719 0.35,0.578 0.47,1.269 0.47,1.953 l 0,38.887 -7.48,3.105 0,2.539 c 2.64,0.801 5.17,1.27 7.59,1.613 2.42,0.34 4.49,0.457 6.22,0.457 l 2.75,0 0,-8.054 0.12,0 3.22,3.562 c 1.49,1.731 3.22,2.989 4.83,3.797 1.61,0.813 3.33,1.274 5.3,1.274 4.02,0 5.98,-1.614 5.98,-4.954 0,-1.035 -0.11,-2.187 -0.47,-3.449"
             style="fill:#231f20;fill-opacity:1;fill-rule:nonzero;stroke:none"
             id="path108"
             inkscape:connector-curvature="0" /><path
             d="m 1367.52,312.766 c -4.6,0 -8.05,1.257 -10.35,3.797 -2.19,2.531 -3.34,6.55 -3.34,12.187 0,2.766 0,5.645 0.12,8.516 0.11,2.988 0.11,5.761 0.23,8.398 l 0.34,15.305 -6.33,0 0,3.797 12.43,12.304 3.79,0.469 -0.45,-10.351 15.18,0 -0.8,-6.219 -14.73,0 -0.23,-14.492 c 0,-2.414 -0.12,-4.719 -0.12,-7.024 0,-2.187 0,-4.258 0,-6.445 0,-2.305 0.12,-4.258 0.47,-5.86 0.34,-1.621 0.8,-2.878 1.49,-3.914 0.58,-0.929 1.26,-1.613 2.19,-2.074 0.8,-0.457 1.84,-0.691 2.87,-0.691 1.73,0 3.23,0.234 4.72,0.801 1.39,0.585 2.65,1.269 3.8,2.187 l 1.15,-0.449 c -0.46,-6.797 -4.61,-10.242 -12.43,-10.242"
             style="fill:#231f20;fill-opacity:1;fill-rule:nonzero;stroke:none"
             id="path110"
             inkscape:connector-curvature="0" /></g></g></g></g></svg>